G04 #@! TF.FileFunction,Copper,L2,Bot,Signal*
%FSLAX46Y46*%
G04 Gerber Fmt 4.6, Leading zero omitted, Abs format (unit mm)*
G04 Created by KiCad (PCBNEW 4.0.0-rc2-stable) date 2017/04/01 15:23:39*
%MOMM*%
G01*
G04 APERTURE LIST*
%ADD10C,0.100000*%
%ADD11C,1.524000*%
%ADD12R,1.700000X1.700000*%
%ADD13O,1.700000X1.700000*%
%ADD14C,2.000000*%
%ADD15C,1.500000*%
%ADD16C,3.200000*%
%ADD17C,0.600000*%
%ADD18C,1.000000*%
%ADD19C,0.500000*%
%ADD20C,0.250000*%
%ADD21C,0.254000*%
G04 APERTURE END LIST*
D10*
D11*
X225000000Y-132000000D03*
X225000000Y-87200000D03*
D12*
X233000000Y-132500000D03*
D13*
X233000000Y-129960000D03*
X233000000Y-127420000D03*
D14*
X225000000Y-62400000D03*
X225000000Y-17600000D03*
D15*
X227500000Y-83000000D03*
X222600000Y-83000000D03*
D12*
X230000000Y-132500000D03*
D13*
X230000000Y-129960000D03*
X230000000Y-127420000D03*
D12*
X218000000Y-132000000D03*
D13*
X218000000Y-129460000D03*
X218000000Y-126920000D03*
D12*
X232532000Y-108204000D03*
D13*
X232532000Y-105664000D03*
X232532000Y-103124000D03*
X232532000Y-100584000D03*
X232532000Y-98044000D03*
D12*
X233000000Y-52380000D03*
D13*
X233000000Y-54920000D03*
X233000000Y-57460000D03*
X233000000Y-60000000D03*
X233000000Y-62540000D03*
X233000000Y-65080000D03*
D14*
X205000000Y-62400000D03*
X205000000Y-17600000D03*
D11*
X205000000Y-132000000D03*
X205000000Y-87200000D03*
D12*
X213000000Y-132500000D03*
D13*
X213000000Y-129960000D03*
X213000000Y-127420000D03*
D12*
X213000000Y-52380000D03*
D13*
X213000000Y-54920000D03*
X213000000Y-57460000D03*
X213000000Y-60000000D03*
X213000000Y-62540000D03*
X213000000Y-65080000D03*
D15*
X207500000Y-83000000D03*
X202600000Y-83000000D03*
D12*
X198000000Y-132000000D03*
D13*
X198000000Y-129460000D03*
X198000000Y-126920000D03*
D12*
X212532000Y-108204000D03*
D13*
X212532000Y-105664000D03*
X212532000Y-103124000D03*
X212532000Y-100584000D03*
X212532000Y-98044000D03*
D12*
X210000000Y-132500000D03*
D13*
X210000000Y-129960000D03*
X210000000Y-127420000D03*
D12*
X192532000Y-108204000D03*
D13*
X192532000Y-105664000D03*
X192532000Y-103124000D03*
X192532000Y-100584000D03*
X192532000Y-98044000D03*
D12*
X193000000Y-132500000D03*
D13*
X193000000Y-129960000D03*
X193000000Y-127420000D03*
D14*
X185000000Y-62400000D03*
X185000000Y-17600000D03*
D12*
X190000000Y-132500000D03*
D13*
X190000000Y-129960000D03*
X190000000Y-127420000D03*
D12*
X178000000Y-132000000D03*
D13*
X178000000Y-129460000D03*
X178000000Y-126920000D03*
D15*
X187500000Y-83000000D03*
X182600000Y-83000000D03*
D12*
X193000000Y-52380000D03*
D13*
X193000000Y-54920000D03*
X193000000Y-57460000D03*
X193000000Y-60000000D03*
X193000000Y-62540000D03*
X193000000Y-65080000D03*
D11*
X185000000Y-132000000D03*
X185000000Y-87200000D03*
D16*
X217000000Y-75000000D03*
X233000000Y-75000000D03*
X213000000Y-75000000D03*
X197000000Y-75000000D03*
X193000000Y-75000000D03*
X177000000Y-75000000D03*
D17*
X234000000Y-81000000D03*
X229050000Y-104000000D03*
X230090000Y-114590000D03*
X229050000Y-123550000D03*
X221000000Y-93000000D03*
X229050000Y-90900000D03*
X209050000Y-104000000D03*
X209050000Y-123550000D03*
X210090000Y-114590000D03*
X214000000Y-81000000D03*
X201000000Y-93000000D03*
X209050000Y-90900000D03*
X190090000Y-114590000D03*
X181000000Y-93000000D03*
X194000000Y-81000000D03*
X189050000Y-104000000D03*
X189050000Y-123550000D03*
X189050000Y-90900000D03*
X225420000Y-90805000D03*
X229738000Y-116713000D03*
X223104726Y-103720828D03*
X223750067Y-92807139D03*
X203104726Y-103720828D03*
X209738000Y-116713000D03*
X205420000Y-90805000D03*
X203750067Y-92807139D03*
X189738000Y-116713000D03*
X183104726Y-103720828D03*
X183750067Y-92807139D03*
X185420000Y-90805000D03*
X221000000Y-52000000D03*
X218000000Y-55000000D03*
X201000000Y-52000000D03*
X198000000Y-55000000D03*
X181000000Y-52000000D03*
X178000000Y-55000000D03*
X218000000Y-57000000D03*
X225000000Y-57000000D03*
X205000000Y-57000000D03*
X198000000Y-57000000D03*
X185000000Y-57000000D03*
X178000000Y-57000000D03*
X229874980Y-105918000D03*
X219494613Y-108585000D03*
X199494613Y-108585000D03*
X209874980Y-105918000D03*
X189874980Y-105918000D03*
X179494613Y-108585000D03*
X221170202Y-106621202D03*
X222880000Y-106621202D03*
X202880000Y-106621202D03*
X201170202Y-106621202D03*
X181170202Y-106621202D03*
X182880000Y-106621202D03*
X226650000Y-63250000D03*
X225974980Y-104699756D03*
X205974980Y-104699756D03*
X206650000Y-63250000D03*
X185974980Y-104699756D03*
X186650000Y-63250000D03*
X226650000Y-67900000D03*
X226774990Y-104701318D03*
X206774990Y-104701318D03*
X206650000Y-67900000D03*
X186774990Y-104701318D03*
X186650000Y-67900000D03*
X226424999Y-72624999D03*
X227843158Y-105888989D03*
X207843158Y-105888989D03*
X206424999Y-72624999D03*
X187843158Y-105888989D03*
X186424999Y-72624999D03*
X228350000Y-78450000D03*
X230731979Y-100250000D03*
X210731979Y-100250000D03*
X208350000Y-78450000D03*
X190731979Y-100250000D03*
X188350000Y-78450000D03*
X233270577Y-123654488D03*
X233374990Y-109760001D03*
X213374990Y-109760001D03*
X213270577Y-123654488D03*
X193270577Y-123654488D03*
X193374990Y-109760001D03*
X230826319Y-93482611D03*
X210826319Y-93482611D03*
X190826319Y-93482611D03*
X231373170Y-95602065D03*
X211373170Y-95602065D03*
X191373170Y-95602065D03*
X230700000Y-31400000D03*
X230158842Y-93923623D03*
X210700000Y-31400000D03*
X210158842Y-93923623D03*
X190158842Y-93923623D03*
X190700000Y-31400000D03*
X232900000Y-70900000D03*
X232250000Y-84650000D03*
X212900000Y-70900000D03*
X212250000Y-84650000D03*
X192900000Y-70900000D03*
X192250000Y-84650000D03*
X230406958Y-99481002D03*
X231500000Y-121500000D03*
X210406958Y-99481002D03*
X211500000Y-121500000D03*
X190406958Y-99481002D03*
X191500000Y-121500000D03*
D18*
X220400000Y-132000000D02*
X225000000Y-132000000D01*
X218000000Y-132000000D02*
X220400000Y-132000000D01*
X198000000Y-132000000D02*
X200400000Y-132000000D01*
X200400000Y-132000000D02*
X205000000Y-132000000D01*
X180400000Y-132000000D02*
X185000000Y-132000000D01*
X178000000Y-132000000D02*
X180400000Y-132000000D01*
X224524969Y-64289244D02*
X225000000Y-63814213D01*
X224524969Y-85310756D02*
X224524969Y-64289244D01*
X225000000Y-63814213D02*
X225000000Y-62400000D01*
X225000000Y-87200000D02*
X225000000Y-85785787D01*
X225000000Y-85785787D02*
X224524969Y-85310756D01*
X204524969Y-64289244D02*
X205000000Y-63814213D01*
X205000000Y-63814213D02*
X205000000Y-62400000D01*
X204524969Y-85310756D02*
X204524969Y-64289244D01*
X205000000Y-85785787D02*
X204524969Y-85310756D01*
X205000000Y-87200000D02*
X205000000Y-85785787D01*
X185000000Y-63814213D02*
X185000000Y-62400000D01*
X185000000Y-85785787D02*
X184524969Y-85310756D01*
X184524969Y-85310756D02*
X184524969Y-64289244D01*
X185000000Y-87200000D02*
X185000000Y-85785787D01*
X184524969Y-64289244D02*
X185000000Y-63814213D01*
D19*
X227599998Y-78810002D02*
X229050000Y-80260004D01*
D20*
X233000000Y-50350002D02*
X233000000Y-52380000D01*
X234000000Y-81000000D02*
X234000000Y-85824999D01*
X229050000Y-94600000D02*
X228750000Y-94600000D01*
D19*
X228750001Y-94300001D02*
X229050000Y-94600000D01*
X228750001Y-91199999D02*
X228750001Y-94300001D01*
D20*
X234175001Y-94824999D02*
X234175001Y-86000000D01*
X234000000Y-85824999D02*
X234175001Y-86000000D01*
D19*
X229050000Y-90900000D02*
X228750001Y-91199999D01*
X229050000Y-90475736D02*
X229050000Y-90900000D01*
X229050000Y-80260004D02*
X229050000Y-90475736D01*
D20*
X232532000Y-98044000D02*
X232532000Y-94468000D01*
X232532000Y-94468000D02*
X234000000Y-93000000D01*
X232532000Y-96468000D02*
X234175001Y-94824999D01*
X232532000Y-98044000D02*
X232532000Y-96468000D01*
X220000000Y-94000000D02*
X221000000Y-94000000D01*
X221000000Y-93000000D02*
X220000000Y-94000000D01*
D19*
X228499998Y-103449998D02*
X228750001Y-103700001D01*
X228750001Y-103700001D02*
X229050000Y-104000000D01*
X229050000Y-94600000D02*
X228499998Y-95150002D01*
X228499998Y-95150002D02*
X228499998Y-103449998D01*
X228595000Y-128555000D02*
X230000000Y-129960000D01*
X228595000Y-126900998D02*
X228595000Y-128555000D01*
X229050000Y-123550000D02*
X229050000Y-126445998D01*
X229050000Y-126445998D02*
X228595000Y-126900998D01*
X227599998Y-20199998D02*
X227599998Y-78810002D01*
X225000000Y-17600000D02*
X227599998Y-20199998D01*
D20*
X234175001Y-49175001D02*
X233000000Y-50350002D01*
X213000000Y-50350002D02*
X213000000Y-52380000D01*
X212532000Y-96468000D02*
X214175001Y-94824999D01*
X214175001Y-49175001D02*
X213000000Y-50350002D01*
D19*
X207599998Y-20199998D02*
X207599998Y-78810002D01*
X205000000Y-17600000D02*
X207599998Y-20199998D01*
D20*
X212532000Y-94468000D02*
X214000000Y-93000000D01*
X214000000Y-81000000D02*
X214000000Y-85824999D01*
D19*
X207599998Y-78810002D02*
X209050000Y-80260004D01*
D20*
X214000000Y-85824999D02*
X214175001Y-86000000D01*
X214175001Y-94824999D02*
X214175001Y-86000000D01*
D19*
X209050000Y-94600000D02*
X208499998Y-95150002D01*
D20*
X209050000Y-94600000D02*
X208750000Y-94600000D01*
D19*
X208750001Y-94300001D02*
X209050000Y-94600000D01*
X208750001Y-91199999D02*
X208750001Y-94300001D01*
X209050000Y-90475736D02*
X209050000Y-90900000D01*
X209050000Y-80260004D02*
X209050000Y-90475736D01*
X209050000Y-90900000D02*
X208750001Y-91199999D01*
X208750001Y-103700001D02*
X209050000Y-104000000D01*
D20*
X201000000Y-93000000D02*
X200000000Y-94000000D01*
X200000000Y-94000000D02*
X201000000Y-94000000D01*
D19*
X209050000Y-126445998D02*
X208595000Y-126900998D01*
X209050000Y-123550000D02*
X209050000Y-126445998D01*
X208499998Y-103449998D02*
X208750001Y-103700001D01*
X208499998Y-95150002D02*
X208499998Y-103449998D01*
D20*
X212532000Y-98044000D02*
X212532000Y-94468000D01*
X212532000Y-98044000D02*
X212532000Y-96468000D01*
D19*
X208595000Y-126900998D02*
X208595000Y-128555000D01*
X208595000Y-128555000D02*
X210000000Y-129960000D01*
X189050000Y-94600000D02*
X188499998Y-95150002D01*
X188499998Y-95150002D02*
X188499998Y-103449998D01*
X188499998Y-103449998D02*
X188750001Y-103700001D01*
X188750001Y-103700001D02*
X189050000Y-104000000D01*
D20*
X192532000Y-94468000D02*
X194000000Y-93000000D01*
X192532000Y-98044000D02*
X192532000Y-94468000D01*
X180000000Y-94000000D02*
X181000000Y-94000000D01*
X181000000Y-93000000D02*
X180000000Y-94000000D01*
X194175001Y-94824999D02*
X194175001Y-86000000D01*
X194000000Y-81000000D02*
X194000000Y-85824999D01*
X194000000Y-85824999D02*
X194175001Y-86000000D01*
X192532000Y-98044000D02*
X192532000Y-96468000D01*
X192532000Y-96468000D02*
X194175001Y-94824999D01*
X194175001Y-49175001D02*
X193000000Y-50350002D01*
X193000000Y-50350002D02*
X193000000Y-52380000D01*
D19*
X188750001Y-94300001D02*
X189050000Y-94600000D01*
X189050000Y-90900000D02*
X188750001Y-91199999D01*
X188750001Y-91199999D02*
X188750001Y-94300001D01*
X189050000Y-90475736D02*
X189050000Y-90900000D01*
X189050000Y-80260004D02*
X189050000Y-90475736D01*
X187599998Y-78810002D02*
X189050000Y-80260004D01*
X187599998Y-20199998D02*
X187599998Y-78810002D01*
X185000000Y-17600000D02*
X187599998Y-20199998D01*
X189050000Y-123550000D02*
X189050000Y-126445998D01*
D20*
X189050000Y-94600000D02*
X188750000Y-94600000D01*
D19*
X188595000Y-126900998D02*
X188595000Y-128555000D01*
X188595000Y-128555000D02*
X190000000Y-129960000D01*
X189050000Y-126445998D02*
X188595000Y-126900998D01*
X225420000Y-90805000D02*
X223515000Y-90805000D01*
X223515000Y-90805000D02*
X222880000Y-91440000D01*
D20*
X223282942Y-92850000D02*
X222880000Y-92850000D01*
D19*
X222880000Y-91440000D02*
X222880000Y-92850000D01*
D20*
X223325803Y-92807139D02*
X223282942Y-92850000D01*
X223750067Y-92807139D02*
X223325803Y-92807139D01*
D19*
X222880000Y-92850000D02*
X222880000Y-102775996D01*
D20*
X223104726Y-103720828D02*
X222680462Y-103720828D01*
D19*
X222880000Y-102775996D02*
X221737000Y-103918996D01*
D20*
X222680462Y-103720828D02*
X222482294Y-103918996D01*
X222482294Y-103918996D02*
X221737000Y-103918996D01*
D19*
X221737000Y-103918996D02*
X218000000Y-107655996D01*
D20*
X218508000Y-116713000D02*
X218000000Y-117221000D01*
D19*
X218000000Y-107655996D02*
X218000000Y-117221000D01*
X218000000Y-125717919D02*
X218000000Y-126920000D01*
X218000000Y-117221000D02*
X218000000Y-125717919D01*
D18*
X218000000Y-126920000D02*
X221944000Y-126920000D01*
D19*
X218000000Y-126920000D02*
X218000000Y-129460000D01*
D18*
X221944000Y-126920000D02*
X222880000Y-125984000D01*
D20*
X229738000Y-116713000D02*
X218508000Y-116713000D01*
D19*
X205420000Y-90805000D02*
X203515000Y-90805000D01*
X203515000Y-90805000D02*
X202880000Y-91440000D01*
D20*
X203325803Y-92807139D02*
X203282942Y-92850000D01*
X203750067Y-92807139D02*
X203325803Y-92807139D01*
D19*
X202880000Y-91440000D02*
X202880000Y-92850000D01*
D20*
X203282942Y-92850000D02*
X202880000Y-92850000D01*
D19*
X198000000Y-107655996D02*
X198000000Y-117221000D01*
X201737000Y-103918996D02*
X198000000Y-107655996D01*
D20*
X202482294Y-103918996D02*
X201737000Y-103918996D01*
X202680462Y-103720828D02*
X202482294Y-103918996D01*
D19*
X202880000Y-102775996D02*
X201737000Y-103918996D01*
X202880000Y-92850000D02*
X202880000Y-102775996D01*
D20*
X203104726Y-103720828D02*
X202680462Y-103720828D01*
D19*
X198000000Y-117221000D02*
X198000000Y-125717919D01*
D20*
X198508000Y-116713000D02*
X198000000Y-117221000D01*
D18*
X201944000Y-126920000D02*
X202880000Y-125984000D01*
D20*
X209738000Y-116713000D02*
X198508000Y-116713000D01*
D19*
X198000000Y-125717919D02*
X198000000Y-126920000D01*
D18*
X198000000Y-126920000D02*
X201944000Y-126920000D01*
D19*
X198000000Y-126920000D02*
X198000000Y-129460000D01*
X178000000Y-107655996D02*
X178000000Y-117221000D01*
X178000000Y-117221000D02*
X178000000Y-125717919D01*
D20*
X189738000Y-116713000D02*
X178508000Y-116713000D01*
X178508000Y-116713000D02*
X178000000Y-117221000D01*
D19*
X182880000Y-102775996D02*
X181737000Y-103918996D01*
X181737000Y-103918996D02*
X178000000Y-107655996D01*
D20*
X183104726Y-103720828D02*
X182680462Y-103720828D01*
X182680462Y-103720828D02*
X182482294Y-103918996D01*
X182482294Y-103918996D02*
X181737000Y-103918996D01*
D18*
X181944000Y-126920000D02*
X182880000Y-125984000D01*
X178000000Y-126920000D02*
X181944000Y-126920000D01*
D19*
X178000000Y-125717919D02*
X178000000Y-126920000D01*
X182880000Y-92850000D02*
X182880000Y-102775996D01*
X178000000Y-126920000D02*
X178000000Y-129460000D01*
X182880000Y-91440000D02*
X182880000Y-92850000D01*
D20*
X183750067Y-92807139D02*
X183325803Y-92807139D01*
X183325803Y-92807139D02*
X183282942Y-92850000D01*
X183282942Y-92850000D02*
X182880000Y-92850000D01*
D19*
X183515000Y-90805000D02*
X182880000Y-91440000D01*
X185420000Y-90805000D02*
X183515000Y-90805000D01*
D20*
X218000000Y-55000000D02*
X221000000Y-52000000D01*
X198000000Y-55000000D02*
X201000000Y-52000000D01*
X178000000Y-55000000D02*
X181000000Y-52000000D01*
X218000000Y-57000000D02*
X225000000Y-57000000D01*
X198000000Y-57000000D02*
X205000000Y-57000000D01*
X178000000Y-57000000D02*
X185000000Y-57000000D01*
X229574981Y-106217999D02*
X229874980Y-105918000D01*
X227207980Y-108585000D02*
X229574981Y-106217999D01*
X219494613Y-108585000D02*
X227207980Y-108585000D01*
X209574981Y-106217999D02*
X209874980Y-105918000D01*
X207207980Y-108585000D02*
X209574981Y-106217999D01*
X199494613Y-108585000D02*
X207207980Y-108585000D01*
X187207980Y-108585000D02*
X189574981Y-106217999D01*
X189574981Y-106217999D02*
X189874980Y-105918000D01*
X179494613Y-108585000D02*
X187207980Y-108585000D01*
X222880000Y-106621202D02*
X221170202Y-106621202D01*
X202880000Y-106621202D02*
X201170202Y-106621202D01*
X182880000Y-106621202D02*
X181170202Y-106621202D01*
X226650000Y-63250000D02*
X226650000Y-63674264D01*
X226650000Y-63674264D02*
X225349980Y-64974284D01*
X225349980Y-64974284D02*
X225349980Y-83972801D01*
X226399999Y-85022819D02*
X226399999Y-103850473D01*
X225349980Y-83972801D02*
X226399999Y-85022819D01*
X226399999Y-103850473D02*
X225974980Y-104275492D01*
X225974980Y-104275492D02*
X225974980Y-104699756D01*
X206399999Y-85022819D02*
X206399999Y-103850473D01*
X206650000Y-63250000D02*
X206650000Y-63674264D01*
X205349980Y-64974284D02*
X205349980Y-83972801D01*
X206650000Y-63674264D02*
X205349980Y-64974284D01*
X205349980Y-83972801D02*
X206399999Y-85022819D01*
X205974980Y-104275492D02*
X205974980Y-104699756D01*
X206399999Y-103850473D02*
X205974980Y-104275492D01*
X185974980Y-104275492D02*
X185974980Y-104699756D01*
X186399999Y-103850473D02*
X185974980Y-104275492D01*
X185349980Y-83972801D02*
X186399999Y-85022819D01*
X186399999Y-85022819D02*
X186399999Y-103850473D01*
X186650000Y-63674264D02*
X185349980Y-64974284D01*
X185349980Y-64974284D02*
X185349980Y-83972801D01*
X186650000Y-63250000D02*
X186650000Y-63674264D01*
X225799991Y-68750009D02*
X225799991Y-83786401D01*
X226650000Y-67900000D02*
X225799991Y-68750009D01*
X225799991Y-83786401D02*
X226949989Y-84936399D01*
X226949989Y-84936399D02*
X226949989Y-104102055D01*
X226949989Y-104102055D02*
X226774990Y-104277054D01*
X226774990Y-104277054D02*
X226774990Y-104701318D01*
X206949989Y-84936399D02*
X206949989Y-104102055D01*
X206650000Y-67900000D02*
X205799991Y-68750009D01*
X205799991Y-68750009D02*
X205799991Y-83786401D01*
X205799991Y-83786401D02*
X206949989Y-84936399D01*
X206774990Y-104277054D02*
X206774990Y-104701318D01*
X206949989Y-104102055D02*
X206774990Y-104277054D01*
X186650000Y-67900000D02*
X185799991Y-68750009D01*
X185799991Y-83786401D02*
X186949989Y-84936399D01*
X186949989Y-104102055D02*
X186774990Y-104277054D01*
X186774990Y-104277054D02*
X186774990Y-104701318D01*
X186949989Y-84936399D02*
X186949989Y-104102055D01*
X185799991Y-68750009D02*
X185799991Y-83786401D01*
X226424999Y-72624999D02*
X226424999Y-83516001D01*
X226424999Y-83516001D02*
X227843158Y-84934160D01*
X227843158Y-84934160D02*
X227843158Y-105464725D01*
X227843158Y-105464725D02*
X227843158Y-105888989D01*
X207843158Y-84934160D02*
X207843158Y-105464725D01*
X206424999Y-72624999D02*
X206424999Y-83516001D01*
X206424999Y-83516001D02*
X207843158Y-84934160D01*
X207843158Y-105464725D02*
X207843158Y-105888989D01*
X186424999Y-83516001D02*
X187843158Y-84934160D01*
X186424999Y-72624999D02*
X186424999Y-83516001D01*
X187843158Y-105464725D02*
X187843158Y-105888989D01*
X187843158Y-84934160D02*
X187843158Y-105464725D01*
X228350000Y-78450000D02*
X229799991Y-79899991D01*
X230731979Y-100250000D02*
X231031978Y-99950001D01*
X229799991Y-92638595D02*
X229533841Y-92904745D01*
X229533841Y-92904745D02*
X229533841Y-94223624D01*
X231031978Y-98645567D02*
X230731979Y-98345568D01*
X230731979Y-95421762D02*
X230731979Y-98345568D01*
X231031978Y-99950001D02*
X231031978Y-98645567D01*
X229799991Y-79899991D02*
X229799991Y-92638595D01*
X229533841Y-94223624D02*
X230731979Y-95421762D01*
X208350000Y-78450000D02*
X209799991Y-79899991D01*
X209533841Y-94223624D02*
X210731979Y-95421762D01*
X210731979Y-95421762D02*
X210731979Y-98345568D01*
X209533841Y-92904745D02*
X209533841Y-94223624D01*
X209799991Y-92638595D02*
X209533841Y-92904745D01*
X209799991Y-79899991D02*
X209799991Y-92638595D01*
X211031978Y-99950001D02*
X211031978Y-98645567D01*
X210731979Y-100250000D02*
X211031978Y-99950001D01*
X211031978Y-98645567D02*
X210731979Y-98345568D01*
X191031978Y-98645567D02*
X190731979Y-98345568D01*
X190731979Y-100250000D02*
X191031978Y-99950001D01*
X191031978Y-99950001D02*
X191031978Y-98645567D01*
X189533841Y-94223624D02*
X190731979Y-95421762D01*
X188350000Y-78450000D02*
X189799991Y-79899991D01*
X189799991Y-79899991D02*
X189799991Y-92638595D01*
X190731979Y-95421762D02*
X190731979Y-98345568D01*
X189799991Y-92638595D02*
X189533841Y-92904745D01*
X189533841Y-92904745D02*
X189533841Y-94223624D01*
X233374990Y-123550075D02*
X233270577Y-123654488D01*
X233374990Y-109760001D02*
X233374990Y-123550075D01*
X213374990Y-123550075D02*
X213270577Y-123654488D01*
X213374990Y-109760001D02*
X213374990Y-123550075D01*
X193374990Y-109760001D02*
X193374990Y-123550075D01*
X193374990Y-123550075D02*
X193270577Y-123654488D01*
X229450000Y-77650000D02*
X230826319Y-79026319D01*
X229450000Y-63550000D02*
X229450000Y-77650000D01*
X233000000Y-60000000D02*
X229450000Y-63550000D01*
X230826319Y-79026319D02*
X230826319Y-93058347D01*
X230826319Y-93058347D02*
X230826319Y-93482611D01*
X213000000Y-60000000D02*
X209450000Y-63550000D01*
X209450000Y-63550000D02*
X209450000Y-77650000D01*
X210826319Y-79026319D02*
X210826319Y-93058347D01*
X209450000Y-77650000D02*
X210826319Y-79026319D01*
X210826319Y-93058347D02*
X210826319Y-93482611D01*
X190826319Y-79026319D02*
X190826319Y-93058347D01*
X190826319Y-93058347D02*
X190826319Y-93482611D01*
X189450000Y-77650000D02*
X190826319Y-79026319D01*
X189450000Y-63550000D02*
X189450000Y-77650000D01*
X193000000Y-60000000D02*
X189450000Y-63550000D01*
X229922989Y-77022989D02*
X231349999Y-78449999D01*
X233000000Y-62540000D02*
X229922989Y-65617011D01*
X229922989Y-65617011D02*
X229922989Y-77022989D01*
X231349999Y-78449999D02*
X231349999Y-92824995D01*
X231673169Y-95302066D02*
X231373170Y-95602065D01*
X231673169Y-93148165D02*
X231673169Y-95302066D01*
X231349999Y-92824995D02*
X231673169Y-93148165D01*
X213000000Y-62540000D02*
X209922989Y-65617011D01*
X209922989Y-65617011D02*
X209922989Y-77022989D01*
X211349999Y-78449999D02*
X211349999Y-92824995D01*
X209922989Y-77022989D02*
X211349999Y-78449999D01*
X211349999Y-92824995D02*
X211673169Y-93148165D01*
X211673169Y-95302066D02*
X211373170Y-95602065D01*
X211673169Y-93148165D02*
X211673169Y-95302066D01*
X191349999Y-92824995D02*
X191673169Y-93148165D01*
X191349999Y-78449999D02*
X191349999Y-92824995D01*
X189922989Y-77022989D02*
X191349999Y-78449999D01*
X189922989Y-65617011D02*
X189922989Y-77022989D01*
X193000000Y-62540000D02*
X189922989Y-65617011D01*
X191673169Y-95302066D02*
X191373170Y-95602065D01*
X191673169Y-93148165D02*
X191673169Y-95302066D01*
X228199989Y-77036399D02*
X230250001Y-79086411D01*
X230250001Y-79086411D02*
X230250001Y-92824995D01*
X230250001Y-92824995D02*
X230158842Y-92916154D01*
X230158842Y-92916154D02*
X230158842Y-93923623D01*
X228199989Y-33900011D02*
X228199989Y-77036399D01*
X230700000Y-31400000D02*
X228199989Y-33900011D01*
X208199989Y-33900011D02*
X208199989Y-77036399D01*
X210700000Y-31400000D02*
X208199989Y-33900011D01*
X208199989Y-77036399D02*
X210250001Y-79086411D01*
X210158842Y-92916154D02*
X210158842Y-93923623D01*
X210250001Y-92824995D02*
X210158842Y-92916154D01*
X210250001Y-79086411D02*
X210250001Y-92824995D01*
X190158842Y-92916154D02*
X190158842Y-93923623D01*
X190250001Y-79086411D02*
X190250001Y-92824995D01*
X190700000Y-31400000D02*
X188199989Y-33900011D01*
X188199989Y-77036399D02*
X190250001Y-79086411D01*
X188199989Y-33900011D02*
X188199989Y-77036399D01*
X190250001Y-92824995D02*
X190158842Y-92916154D01*
X230550000Y-76250000D02*
X230550000Y-74422000D01*
X232250000Y-77950000D02*
X230550000Y-76250000D01*
X232250000Y-83887988D02*
X232250000Y-77950000D01*
X230550000Y-73250000D02*
X232900000Y-70900000D01*
X230550000Y-74422000D02*
X230550000Y-73250000D01*
X232250000Y-84650000D02*
X232250000Y-83887988D01*
X210550000Y-73250000D02*
X212900000Y-70900000D01*
X210550000Y-74422000D02*
X210550000Y-73250000D01*
X212250000Y-84650000D02*
X212250000Y-83887988D01*
X212250000Y-83887988D02*
X212250000Y-77950000D01*
X212250000Y-77950000D02*
X210550000Y-76250000D01*
X210550000Y-76250000D02*
X210550000Y-74422000D01*
X190550000Y-74422000D02*
X190550000Y-73250000D01*
X190550000Y-76250000D02*
X190550000Y-74422000D01*
X190550000Y-73250000D02*
X192900000Y-70900000D01*
X192250000Y-77950000D02*
X190550000Y-76250000D01*
X192250000Y-83887988D02*
X192250000Y-77950000D01*
X192250000Y-84650000D02*
X192250000Y-83887988D01*
X230106959Y-99781001D02*
X230406958Y-99481002D01*
X230106959Y-100694777D02*
X230106959Y-99781001D01*
X230500000Y-101087818D02*
X230106959Y-100694777D01*
X230500000Y-109500000D02*
X230500000Y-101087818D01*
X231000000Y-110000000D02*
X231250000Y-110000000D01*
X231000000Y-110000000D02*
X230500000Y-109500000D01*
X231250000Y-110000000D02*
X231500000Y-110250000D01*
X231500000Y-110250000D02*
X231500000Y-121500000D01*
X210106959Y-100694777D02*
X210106959Y-99781001D01*
X210106959Y-99781001D02*
X210406958Y-99481002D01*
X210500000Y-109500000D02*
X210500000Y-101087818D01*
X210500000Y-101087818D02*
X210106959Y-100694777D01*
X211500000Y-110250000D02*
X211500000Y-121500000D01*
X211250000Y-110000000D02*
X211500000Y-110250000D01*
X211000000Y-110000000D02*
X211250000Y-110000000D01*
X211000000Y-110000000D02*
X210500000Y-109500000D01*
X191250000Y-110000000D02*
X191500000Y-110250000D01*
X191500000Y-110250000D02*
X191500000Y-121500000D01*
X191000000Y-110000000D02*
X191250000Y-110000000D01*
X191000000Y-110000000D02*
X190500000Y-109500000D01*
X190500000Y-109500000D02*
X190500000Y-101087818D01*
X190500000Y-101087818D02*
X190106959Y-100694777D01*
X190106959Y-100694777D02*
X190106959Y-99781001D01*
X190106959Y-99781001D02*
X190406958Y-99481002D01*
D21*
G36*
X194315000Y-51096974D02*
X194209698Y-50991673D01*
X193976309Y-50895000D01*
X193285750Y-50895000D01*
X193127000Y-51053750D01*
X193127000Y-52253000D01*
X193147000Y-52253000D01*
X193147000Y-52507000D01*
X193127000Y-52507000D01*
X193127000Y-52527000D01*
X192873000Y-52527000D01*
X192873000Y-52507000D01*
X191673750Y-52507000D01*
X191515000Y-52665750D01*
X191515000Y-53356310D01*
X191611673Y-53589699D01*
X191790302Y-53768327D01*
X191964777Y-53840597D01*
X191920853Y-53869946D01*
X191598946Y-54351715D01*
X191485907Y-54920000D01*
X191598946Y-55488285D01*
X191920853Y-55970054D01*
X192250026Y-56190000D01*
X191920853Y-56409946D01*
X191598946Y-56891715D01*
X191485907Y-57460000D01*
X191598946Y-58028285D01*
X191920853Y-58510054D01*
X192250026Y-58730000D01*
X191920853Y-58949946D01*
X191598946Y-59431715D01*
X191485907Y-60000000D01*
X191558790Y-60366408D01*
X188959989Y-62965209D01*
X188959989Y-51403690D01*
X191515000Y-51403690D01*
X191515000Y-52094250D01*
X191673750Y-52253000D01*
X192873000Y-52253000D01*
X192873000Y-51053750D01*
X192714250Y-50895000D01*
X192023691Y-50895000D01*
X191790302Y-50991673D01*
X191611673Y-51170301D01*
X191515000Y-51403690D01*
X188959989Y-51403690D01*
X188959989Y-34214813D01*
X190839680Y-32335122D01*
X190885167Y-32335162D01*
X191228943Y-32193117D01*
X191492192Y-31930327D01*
X191634838Y-31586799D01*
X191635162Y-31214833D01*
X191493117Y-30871057D01*
X191230327Y-30607808D01*
X190886799Y-30465162D01*
X190514833Y-30464838D01*
X190171057Y-30606883D01*
X189907808Y-30869673D01*
X189765162Y-31213201D01*
X189765121Y-31260077D01*
X187662588Y-33362610D01*
X187497841Y-33609172D01*
X187439989Y-33900011D01*
X187439989Y-62717924D01*
X187180327Y-62457808D01*
X186836799Y-62315162D01*
X186635075Y-62314986D01*
X186635284Y-62076205D01*
X186386894Y-61475057D01*
X185927363Y-61014722D01*
X185326648Y-60765284D01*
X184676205Y-60764716D01*
X184075057Y-61013106D01*
X183614722Y-61472637D01*
X183365284Y-62073352D01*
X183364716Y-62723795D01*
X183613106Y-63324943D01*
X183748504Y-63460577D01*
X183722403Y-63486678D01*
X183476366Y-63854898D01*
X183389969Y-64289244D01*
X183389969Y-81830952D01*
X183385564Y-81826539D01*
X182876702Y-81615241D01*
X182325715Y-81614760D01*
X181816485Y-81825169D01*
X181426539Y-82214436D01*
X181215241Y-82723298D01*
X181214760Y-83274285D01*
X181425169Y-83783515D01*
X181814436Y-84173461D01*
X182323298Y-84384759D01*
X182874285Y-84385240D01*
X183383515Y-84174831D01*
X183389969Y-84168388D01*
X183389969Y-85310756D01*
X183476366Y-85745102D01*
X183722403Y-86113322D01*
X183865000Y-86255919D01*
X183865000Y-86359086D01*
X183816371Y-86407630D01*
X183603243Y-86920900D01*
X183602758Y-87476661D01*
X183814990Y-87990303D01*
X184207630Y-88383629D01*
X184720900Y-88596757D01*
X185276661Y-88597242D01*
X185639999Y-88447114D01*
X185639999Y-89883948D01*
X185606799Y-89870162D01*
X185234833Y-89869838D01*
X185113431Y-89920000D01*
X183515005Y-89920000D01*
X183515000Y-89919999D01*
X183176326Y-89987366D01*
X183081054Y-90051025D01*
X182889210Y-90179210D01*
X182889208Y-90179213D01*
X182254210Y-90814210D01*
X182062367Y-91101325D01*
X182062367Y-91101326D01*
X181994999Y-91440000D01*
X181995000Y-91440005D01*
X181995000Y-102409417D01*
X181111210Y-103293206D01*
X181111208Y-103293209D01*
X177374210Y-107030206D01*
X177182367Y-107317321D01*
X177182367Y-107317322D01*
X177114999Y-107655996D01*
X177115000Y-107656001D01*
X177115000Y-125740221D01*
X176920853Y-125869946D01*
X176598946Y-126351715D01*
X176485907Y-126920000D01*
X176598946Y-127488285D01*
X176920853Y-127970054D01*
X177115000Y-128099779D01*
X177115000Y-128280221D01*
X176920853Y-128409946D01*
X176598946Y-128891715D01*
X176485907Y-129460000D01*
X176598946Y-130028285D01*
X176920853Y-130510054D01*
X176962452Y-130537850D01*
X176914683Y-130546838D01*
X176698559Y-130685910D01*
X176553569Y-130898110D01*
X176502560Y-131150000D01*
X176502560Y-132850000D01*
X176546838Y-133085317D01*
X176685910Y-133301441D01*
X176898110Y-133446431D01*
X177150000Y-133497440D01*
X178850000Y-133497440D01*
X179085317Y-133453162D01*
X179301441Y-133314090D01*
X179423808Y-133135000D01*
X184159086Y-133135000D01*
X184207630Y-133183629D01*
X184720900Y-133396757D01*
X185276661Y-133397242D01*
X185790303Y-133185010D01*
X186183629Y-132792370D01*
X186396757Y-132279100D01*
X186397242Y-131723339D01*
X186366940Y-131650000D01*
X188502560Y-131650000D01*
X188502560Y-133350000D01*
X188546838Y-133585317D01*
X188685910Y-133801441D01*
X188898110Y-133946431D01*
X189150000Y-133997440D01*
X190850000Y-133997440D01*
X191085317Y-133953162D01*
X191301441Y-133814090D01*
X191446431Y-133601890D01*
X191497440Y-133350000D01*
X191497440Y-131650000D01*
X191453162Y-131414683D01*
X191314090Y-131198559D01*
X191101890Y-131053569D01*
X190993893Y-131031699D01*
X191271645Y-130726924D01*
X191441476Y-130316890D01*
X191320155Y-130087000D01*
X190127000Y-130087000D01*
X190127000Y-130107000D01*
X189873000Y-130107000D01*
X189873000Y-130087000D01*
X188679845Y-130087000D01*
X188558524Y-130316890D01*
X188728355Y-130726924D01*
X189004501Y-131029937D01*
X188914683Y-131046838D01*
X188698559Y-131185910D01*
X188553569Y-131398110D01*
X188502560Y-131650000D01*
X186366940Y-131650000D01*
X186185010Y-131209697D01*
X185792370Y-130816371D01*
X185279100Y-130603243D01*
X184723339Y-130602758D01*
X184209697Y-130814990D01*
X184159600Y-130865000D01*
X179421192Y-130865000D01*
X179314090Y-130698559D01*
X179101890Y-130553569D01*
X179034459Y-130539914D01*
X179079147Y-130510054D01*
X179401054Y-130028285D01*
X179514093Y-129460000D01*
X179401054Y-128891715D01*
X179079147Y-128409946D01*
X178885000Y-128280221D01*
X178885000Y-128099779D01*
X178952016Y-128055000D01*
X181944000Y-128055000D01*
X182378346Y-127968603D01*
X182746566Y-127722566D01*
X183682566Y-126786566D01*
X183928603Y-126418345D01*
X184015000Y-125984000D01*
X183928603Y-125549655D01*
X183682566Y-125181434D01*
X183314345Y-124935397D01*
X182880000Y-124849000D01*
X182445655Y-124935397D01*
X182077434Y-125181434D01*
X181473868Y-125785000D01*
X178952016Y-125785000D01*
X178885000Y-125740221D01*
X178885000Y-117473000D01*
X189175537Y-117473000D01*
X189207673Y-117505192D01*
X189551201Y-117647838D01*
X189923167Y-117648162D01*
X190266943Y-117506117D01*
X190530192Y-117243327D01*
X190672838Y-116899799D01*
X190673162Y-116527833D01*
X190531117Y-116184057D01*
X190268327Y-115920808D01*
X189924799Y-115778162D01*
X189552833Y-115777838D01*
X189209057Y-115919883D01*
X189175882Y-115953000D01*
X178885000Y-115953000D01*
X178885000Y-109297768D01*
X178964286Y-109377192D01*
X179307814Y-109519838D01*
X179679780Y-109520162D01*
X180023556Y-109378117D01*
X180056731Y-109345000D01*
X187207980Y-109345000D01*
X187498819Y-109287148D01*
X187745381Y-109122401D01*
X189740000Y-107127782D01*
X189740000Y-109500000D01*
X189797852Y-109790839D01*
X189962599Y-110037401D01*
X190462599Y-110537401D01*
X190709161Y-110702148D01*
X190740000Y-110708282D01*
X190740000Y-120937537D01*
X190707808Y-120969673D01*
X190565162Y-121313201D01*
X190564838Y-121685167D01*
X190706883Y-122028943D01*
X190969673Y-122292192D01*
X191313201Y-122434838D01*
X191685167Y-122435162D01*
X192028943Y-122293117D01*
X192292192Y-122030327D01*
X192434838Y-121686799D01*
X192435162Y-121314833D01*
X192293117Y-120971057D01*
X192260000Y-120937882D01*
X192260000Y-110250000D01*
X192217711Y-110037401D01*
X192202148Y-109959160D01*
X192037401Y-109712599D01*
X192026242Y-109701440D01*
X192440040Y-109701440D01*
X192439828Y-109945168D01*
X192581873Y-110288944D01*
X192614990Y-110322119D01*
X192614990Y-122987794D01*
X192478385Y-123124161D01*
X192335739Y-123467689D01*
X192335415Y-123839655D01*
X192477460Y-124183431D01*
X192740250Y-124446680D01*
X193083778Y-124589326D01*
X193455744Y-124589650D01*
X193799520Y-124447605D01*
X194062769Y-124184815D01*
X194205415Y-123841287D01*
X194205739Y-123469321D01*
X194134990Y-123298095D01*
X194134990Y-110322464D01*
X194167182Y-110290328D01*
X194309828Y-109946800D01*
X194310152Y-109574834D01*
X194168107Y-109231058D01*
X194023018Y-109085715D01*
X194029440Y-109054000D01*
X194029440Y-107354000D01*
X193985162Y-107118683D01*
X193846090Y-106902559D01*
X193633890Y-106757569D01*
X193566459Y-106743914D01*
X193611147Y-106714054D01*
X193933054Y-106232285D01*
X194046093Y-105664000D01*
X193933054Y-105095715D01*
X193611147Y-104613946D01*
X193281974Y-104394000D01*
X193611147Y-104174054D01*
X193933054Y-103692285D01*
X194046093Y-103124000D01*
X193933054Y-102555715D01*
X193611147Y-102073946D01*
X193281974Y-101854000D01*
X193611147Y-101634054D01*
X193933054Y-101152285D01*
X194046093Y-100584000D01*
X193933054Y-100015715D01*
X193611147Y-99533946D01*
X193270447Y-99306298D01*
X193413358Y-99239183D01*
X193803645Y-98810924D01*
X193973476Y-98400890D01*
X193852155Y-98171000D01*
X192659000Y-98171000D01*
X192659000Y-98191000D01*
X192405000Y-98191000D01*
X192405000Y-98171000D01*
X192385000Y-98171000D01*
X192385000Y-97917000D01*
X192405000Y-97917000D01*
X192405000Y-96723181D01*
X192659000Y-96723181D01*
X192659000Y-97917000D01*
X193852155Y-97917000D01*
X193973476Y-97687110D01*
X193803645Y-97277076D01*
X193413358Y-96848817D01*
X192888892Y-96602514D01*
X192659000Y-96723181D01*
X192405000Y-96723181D01*
X192175108Y-96602514D01*
X191650642Y-96848817D01*
X191491979Y-97022917D01*
X191491979Y-96537169D01*
X191558337Y-96537227D01*
X191902113Y-96395182D01*
X192165362Y-96132392D01*
X192308008Y-95788864D01*
X192308091Y-95693516D01*
X192375317Y-95592905D01*
X192433169Y-95302066D01*
X192433169Y-93148165D01*
X192402491Y-92993938D01*
X192375317Y-92857325D01*
X192210570Y-92610764D01*
X192109999Y-92510193D01*
X192109999Y-85584879D01*
X192435167Y-85585162D01*
X192778943Y-85443117D01*
X193042192Y-85180327D01*
X193184838Y-84836799D01*
X193185162Y-84464833D01*
X193043117Y-84121057D01*
X193010000Y-84087882D01*
X193010000Y-77950000D01*
X192952148Y-77659161D01*
X192787401Y-77412599D01*
X192609462Y-77234660D01*
X193442619Y-77235387D01*
X194264372Y-76895845D01*
X194315000Y-76845305D01*
X194315000Y-126722926D01*
X194079147Y-126369946D01*
X193597378Y-126048039D01*
X193029093Y-125935000D01*
X192970907Y-125935000D01*
X192402622Y-126048039D01*
X191920853Y-126369946D01*
X191598946Y-126851715D01*
X191500000Y-127349150D01*
X191401054Y-126851715D01*
X191079147Y-126369946D01*
X190597378Y-126048039D01*
X190029093Y-125935000D01*
X189970907Y-125935000D01*
X189402622Y-126048039D01*
X188920853Y-126369946D01*
X188598946Y-126851715D01*
X188485907Y-127420000D01*
X188598946Y-127988285D01*
X188920853Y-128470054D01*
X189261553Y-128697702D01*
X189118642Y-128764817D01*
X188728355Y-129193076D01*
X188558524Y-129603110D01*
X188679845Y-129833000D01*
X189873000Y-129833000D01*
X189873000Y-129813000D01*
X190127000Y-129813000D01*
X190127000Y-129833000D01*
X191320155Y-129833000D01*
X191441476Y-129603110D01*
X191271645Y-129193076D01*
X190881358Y-128764817D01*
X190738447Y-128697702D01*
X191079147Y-128470054D01*
X191401054Y-127988285D01*
X191500000Y-127490850D01*
X191598946Y-127988285D01*
X191920853Y-128470054D01*
X192261553Y-128697702D01*
X192118642Y-128764817D01*
X191728355Y-129193076D01*
X191558524Y-129603110D01*
X191679845Y-129833000D01*
X192873000Y-129833000D01*
X192873000Y-129813000D01*
X193127000Y-129813000D01*
X193127000Y-129833000D01*
X193147000Y-129833000D01*
X193147000Y-130087000D01*
X193127000Y-130087000D01*
X193127000Y-130107000D01*
X192873000Y-130107000D01*
X192873000Y-130087000D01*
X191679845Y-130087000D01*
X191558524Y-130316890D01*
X191728355Y-130726924D01*
X192004501Y-131029937D01*
X191914683Y-131046838D01*
X191698559Y-131185910D01*
X191553569Y-131398110D01*
X191502560Y-131650000D01*
X191502560Y-133350000D01*
X191546838Y-133585317D01*
X191685910Y-133801441D01*
X191898110Y-133946431D01*
X192150000Y-133997440D01*
X193850000Y-133997440D01*
X194085317Y-133953162D01*
X194301441Y-133814090D01*
X194315000Y-133794246D01*
X194315000Y-134315000D01*
X175685000Y-134315000D01*
X175685000Y-76846232D01*
X175732321Y-76893636D01*
X176553481Y-77234611D01*
X177442619Y-77235387D01*
X178264372Y-76895845D01*
X178893636Y-76267679D01*
X179234611Y-75446519D01*
X179235387Y-74557381D01*
X178895845Y-73735628D01*
X178267679Y-73106364D01*
X177446519Y-72765389D01*
X176557381Y-72764613D01*
X175735628Y-73104155D01*
X175685000Y-73154695D01*
X175685000Y-57185167D01*
X177064838Y-57185167D01*
X177206883Y-57528943D01*
X177469673Y-57792192D01*
X177813201Y-57934838D01*
X178185167Y-57935162D01*
X178528943Y-57793117D01*
X178562118Y-57760000D01*
X184437537Y-57760000D01*
X184469673Y-57792192D01*
X184813201Y-57934838D01*
X185185167Y-57935162D01*
X185528943Y-57793117D01*
X185792192Y-57530327D01*
X185934838Y-57186799D01*
X185935162Y-56814833D01*
X185793117Y-56471057D01*
X185530327Y-56207808D01*
X185186799Y-56065162D01*
X184814833Y-56064838D01*
X184471057Y-56206883D01*
X184437882Y-56240000D01*
X178562463Y-56240000D01*
X178530327Y-56207808D01*
X178186799Y-56065162D01*
X177814833Y-56064838D01*
X177471057Y-56206883D01*
X177207808Y-56469673D01*
X177065162Y-56813201D01*
X177064838Y-57185167D01*
X175685000Y-57185167D01*
X175685000Y-55185167D01*
X177064838Y-55185167D01*
X177206883Y-55528943D01*
X177469673Y-55792192D01*
X177813201Y-55934838D01*
X178185167Y-55935162D01*
X178528943Y-55793117D01*
X178792192Y-55530327D01*
X178934838Y-55186799D01*
X178934879Y-55139923D01*
X181139680Y-52935122D01*
X181185167Y-52935162D01*
X181528943Y-52793117D01*
X181792192Y-52530327D01*
X181934838Y-52186799D01*
X181935162Y-51814833D01*
X181793117Y-51471057D01*
X181530327Y-51207808D01*
X181186799Y-51065162D01*
X180814833Y-51064838D01*
X180471057Y-51206883D01*
X180207808Y-51469673D01*
X180065162Y-51813201D01*
X180065121Y-51860077D01*
X177860320Y-54064878D01*
X177814833Y-54064838D01*
X177471057Y-54206883D01*
X177207808Y-54469673D01*
X177065162Y-54813201D01*
X177064838Y-55185167D01*
X175685000Y-55185167D01*
X175685000Y-18752532D01*
X184027073Y-18752532D01*
X184125736Y-19019387D01*
X184735461Y-19245908D01*
X185385460Y-19221856D01*
X185874264Y-19019387D01*
X185972927Y-18752532D01*
X185000000Y-17779605D01*
X184027073Y-18752532D01*
X175685000Y-18752532D01*
X175685000Y-17335461D01*
X183354092Y-17335461D01*
X183378144Y-17985460D01*
X183580613Y-18474264D01*
X183847468Y-18572927D01*
X184820395Y-17600000D01*
X185179605Y-17600000D01*
X186152532Y-18572927D01*
X186419387Y-18474264D01*
X186645908Y-17864539D01*
X186621856Y-17214540D01*
X186419387Y-16725736D01*
X186152532Y-16627073D01*
X185179605Y-17600000D01*
X184820395Y-17600000D01*
X183847468Y-16627073D01*
X183580613Y-16725736D01*
X183354092Y-17335461D01*
X175685000Y-17335461D01*
X175685000Y-16447468D01*
X184027073Y-16447468D01*
X185000000Y-17420395D01*
X185972927Y-16447468D01*
X185874264Y-16180613D01*
X185264539Y-15954092D01*
X184614540Y-15978144D01*
X184125736Y-16180613D01*
X184027073Y-16447468D01*
X175685000Y-16447468D01*
X175685000Y-15685000D01*
X194315000Y-15685000D01*
X194315000Y-51096974D01*
X194315000Y-51096974D01*
G37*
X194315000Y-51096974D02*
X194209698Y-50991673D01*
X193976309Y-50895000D01*
X193285750Y-50895000D01*
X193127000Y-51053750D01*
X193127000Y-52253000D01*
X193147000Y-52253000D01*
X193147000Y-52507000D01*
X193127000Y-52507000D01*
X193127000Y-52527000D01*
X192873000Y-52527000D01*
X192873000Y-52507000D01*
X191673750Y-52507000D01*
X191515000Y-52665750D01*
X191515000Y-53356310D01*
X191611673Y-53589699D01*
X191790302Y-53768327D01*
X191964777Y-53840597D01*
X191920853Y-53869946D01*
X191598946Y-54351715D01*
X191485907Y-54920000D01*
X191598946Y-55488285D01*
X191920853Y-55970054D01*
X192250026Y-56190000D01*
X191920853Y-56409946D01*
X191598946Y-56891715D01*
X191485907Y-57460000D01*
X191598946Y-58028285D01*
X191920853Y-58510054D01*
X192250026Y-58730000D01*
X191920853Y-58949946D01*
X191598946Y-59431715D01*
X191485907Y-60000000D01*
X191558790Y-60366408D01*
X188959989Y-62965209D01*
X188959989Y-51403690D01*
X191515000Y-51403690D01*
X191515000Y-52094250D01*
X191673750Y-52253000D01*
X192873000Y-52253000D01*
X192873000Y-51053750D01*
X192714250Y-50895000D01*
X192023691Y-50895000D01*
X191790302Y-50991673D01*
X191611673Y-51170301D01*
X191515000Y-51403690D01*
X188959989Y-51403690D01*
X188959989Y-34214813D01*
X190839680Y-32335122D01*
X190885167Y-32335162D01*
X191228943Y-32193117D01*
X191492192Y-31930327D01*
X191634838Y-31586799D01*
X191635162Y-31214833D01*
X191493117Y-30871057D01*
X191230327Y-30607808D01*
X190886799Y-30465162D01*
X190514833Y-30464838D01*
X190171057Y-30606883D01*
X189907808Y-30869673D01*
X189765162Y-31213201D01*
X189765121Y-31260077D01*
X187662588Y-33362610D01*
X187497841Y-33609172D01*
X187439989Y-33900011D01*
X187439989Y-62717924D01*
X187180327Y-62457808D01*
X186836799Y-62315162D01*
X186635075Y-62314986D01*
X186635284Y-62076205D01*
X186386894Y-61475057D01*
X185927363Y-61014722D01*
X185326648Y-60765284D01*
X184676205Y-60764716D01*
X184075057Y-61013106D01*
X183614722Y-61472637D01*
X183365284Y-62073352D01*
X183364716Y-62723795D01*
X183613106Y-63324943D01*
X183748504Y-63460577D01*
X183722403Y-63486678D01*
X183476366Y-63854898D01*
X183389969Y-64289244D01*
X183389969Y-81830952D01*
X183385564Y-81826539D01*
X182876702Y-81615241D01*
X182325715Y-81614760D01*
X181816485Y-81825169D01*
X181426539Y-82214436D01*
X181215241Y-82723298D01*
X181214760Y-83274285D01*
X181425169Y-83783515D01*
X181814436Y-84173461D01*
X182323298Y-84384759D01*
X182874285Y-84385240D01*
X183383515Y-84174831D01*
X183389969Y-84168388D01*
X183389969Y-85310756D01*
X183476366Y-85745102D01*
X183722403Y-86113322D01*
X183865000Y-86255919D01*
X183865000Y-86359086D01*
X183816371Y-86407630D01*
X183603243Y-86920900D01*
X183602758Y-87476661D01*
X183814990Y-87990303D01*
X184207630Y-88383629D01*
X184720900Y-88596757D01*
X185276661Y-88597242D01*
X185639999Y-88447114D01*
X185639999Y-89883948D01*
X185606799Y-89870162D01*
X185234833Y-89869838D01*
X185113431Y-89920000D01*
X183515005Y-89920000D01*
X183515000Y-89919999D01*
X183176326Y-89987366D01*
X183081054Y-90051025D01*
X182889210Y-90179210D01*
X182889208Y-90179213D01*
X182254210Y-90814210D01*
X182062367Y-91101325D01*
X182062367Y-91101326D01*
X181994999Y-91440000D01*
X181995000Y-91440005D01*
X181995000Y-102409417D01*
X181111210Y-103293206D01*
X181111208Y-103293209D01*
X177374210Y-107030206D01*
X177182367Y-107317321D01*
X177182367Y-107317322D01*
X177114999Y-107655996D01*
X177115000Y-107656001D01*
X177115000Y-125740221D01*
X176920853Y-125869946D01*
X176598946Y-126351715D01*
X176485907Y-126920000D01*
X176598946Y-127488285D01*
X176920853Y-127970054D01*
X177115000Y-128099779D01*
X177115000Y-128280221D01*
X176920853Y-128409946D01*
X176598946Y-128891715D01*
X176485907Y-129460000D01*
X176598946Y-130028285D01*
X176920853Y-130510054D01*
X176962452Y-130537850D01*
X176914683Y-130546838D01*
X176698559Y-130685910D01*
X176553569Y-130898110D01*
X176502560Y-131150000D01*
X176502560Y-132850000D01*
X176546838Y-133085317D01*
X176685910Y-133301441D01*
X176898110Y-133446431D01*
X177150000Y-133497440D01*
X178850000Y-133497440D01*
X179085317Y-133453162D01*
X179301441Y-133314090D01*
X179423808Y-133135000D01*
X184159086Y-133135000D01*
X184207630Y-133183629D01*
X184720900Y-133396757D01*
X185276661Y-133397242D01*
X185790303Y-133185010D01*
X186183629Y-132792370D01*
X186396757Y-132279100D01*
X186397242Y-131723339D01*
X186366940Y-131650000D01*
X188502560Y-131650000D01*
X188502560Y-133350000D01*
X188546838Y-133585317D01*
X188685910Y-133801441D01*
X188898110Y-133946431D01*
X189150000Y-133997440D01*
X190850000Y-133997440D01*
X191085317Y-133953162D01*
X191301441Y-133814090D01*
X191446431Y-133601890D01*
X191497440Y-133350000D01*
X191497440Y-131650000D01*
X191453162Y-131414683D01*
X191314090Y-131198559D01*
X191101890Y-131053569D01*
X190993893Y-131031699D01*
X191271645Y-130726924D01*
X191441476Y-130316890D01*
X191320155Y-130087000D01*
X190127000Y-130087000D01*
X190127000Y-130107000D01*
X189873000Y-130107000D01*
X189873000Y-130087000D01*
X188679845Y-130087000D01*
X188558524Y-130316890D01*
X188728355Y-130726924D01*
X189004501Y-131029937D01*
X188914683Y-131046838D01*
X188698559Y-131185910D01*
X188553569Y-131398110D01*
X188502560Y-131650000D01*
X186366940Y-131650000D01*
X186185010Y-131209697D01*
X185792370Y-130816371D01*
X185279100Y-130603243D01*
X184723339Y-130602758D01*
X184209697Y-130814990D01*
X184159600Y-130865000D01*
X179421192Y-130865000D01*
X179314090Y-130698559D01*
X179101890Y-130553569D01*
X179034459Y-130539914D01*
X179079147Y-130510054D01*
X179401054Y-130028285D01*
X179514093Y-129460000D01*
X179401054Y-128891715D01*
X179079147Y-128409946D01*
X178885000Y-128280221D01*
X178885000Y-128099779D01*
X178952016Y-128055000D01*
X181944000Y-128055000D01*
X182378346Y-127968603D01*
X182746566Y-127722566D01*
X183682566Y-126786566D01*
X183928603Y-126418345D01*
X184015000Y-125984000D01*
X183928603Y-125549655D01*
X183682566Y-125181434D01*
X183314345Y-124935397D01*
X182880000Y-124849000D01*
X182445655Y-124935397D01*
X182077434Y-125181434D01*
X181473868Y-125785000D01*
X178952016Y-125785000D01*
X178885000Y-125740221D01*
X178885000Y-117473000D01*
X189175537Y-117473000D01*
X189207673Y-117505192D01*
X189551201Y-117647838D01*
X189923167Y-117648162D01*
X190266943Y-117506117D01*
X190530192Y-117243327D01*
X190672838Y-116899799D01*
X190673162Y-116527833D01*
X190531117Y-116184057D01*
X190268327Y-115920808D01*
X189924799Y-115778162D01*
X189552833Y-115777838D01*
X189209057Y-115919883D01*
X189175882Y-115953000D01*
X178885000Y-115953000D01*
X178885000Y-109297768D01*
X178964286Y-109377192D01*
X179307814Y-109519838D01*
X179679780Y-109520162D01*
X180023556Y-109378117D01*
X180056731Y-109345000D01*
X187207980Y-109345000D01*
X187498819Y-109287148D01*
X187745381Y-109122401D01*
X189740000Y-107127782D01*
X189740000Y-109500000D01*
X189797852Y-109790839D01*
X189962599Y-110037401D01*
X190462599Y-110537401D01*
X190709161Y-110702148D01*
X190740000Y-110708282D01*
X190740000Y-120937537D01*
X190707808Y-120969673D01*
X190565162Y-121313201D01*
X190564838Y-121685167D01*
X190706883Y-122028943D01*
X190969673Y-122292192D01*
X191313201Y-122434838D01*
X191685167Y-122435162D01*
X192028943Y-122293117D01*
X192292192Y-122030327D01*
X192434838Y-121686799D01*
X192435162Y-121314833D01*
X192293117Y-120971057D01*
X192260000Y-120937882D01*
X192260000Y-110250000D01*
X192217711Y-110037401D01*
X192202148Y-109959160D01*
X192037401Y-109712599D01*
X192026242Y-109701440D01*
X192440040Y-109701440D01*
X192439828Y-109945168D01*
X192581873Y-110288944D01*
X192614990Y-110322119D01*
X192614990Y-122987794D01*
X192478385Y-123124161D01*
X192335739Y-123467689D01*
X192335415Y-123839655D01*
X192477460Y-124183431D01*
X192740250Y-124446680D01*
X193083778Y-124589326D01*
X193455744Y-124589650D01*
X193799520Y-124447605D01*
X194062769Y-124184815D01*
X194205415Y-123841287D01*
X194205739Y-123469321D01*
X194134990Y-123298095D01*
X194134990Y-110322464D01*
X194167182Y-110290328D01*
X194309828Y-109946800D01*
X194310152Y-109574834D01*
X194168107Y-109231058D01*
X194023018Y-109085715D01*
X194029440Y-109054000D01*
X194029440Y-107354000D01*
X193985162Y-107118683D01*
X193846090Y-106902559D01*
X193633890Y-106757569D01*
X193566459Y-106743914D01*
X193611147Y-106714054D01*
X193933054Y-106232285D01*
X194046093Y-105664000D01*
X193933054Y-105095715D01*
X193611147Y-104613946D01*
X193281974Y-104394000D01*
X193611147Y-104174054D01*
X193933054Y-103692285D01*
X194046093Y-103124000D01*
X193933054Y-102555715D01*
X193611147Y-102073946D01*
X193281974Y-101854000D01*
X193611147Y-101634054D01*
X193933054Y-101152285D01*
X194046093Y-100584000D01*
X193933054Y-100015715D01*
X193611147Y-99533946D01*
X193270447Y-99306298D01*
X193413358Y-99239183D01*
X193803645Y-98810924D01*
X193973476Y-98400890D01*
X193852155Y-98171000D01*
X192659000Y-98171000D01*
X192659000Y-98191000D01*
X192405000Y-98191000D01*
X192405000Y-98171000D01*
X192385000Y-98171000D01*
X192385000Y-97917000D01*
X192405000Y-97917000D01*
X192405000Y-96723181D01*
X192659000Y-96723181D01*
X192659000Y-97917000D01*
X193852155Y-97917000D01*
X193973476Y-97687110D01*
X193803645Y-97277076D01*
X193413358Y-96848817D01*
X192888892Y-96602514D01*
X192659000Y-96723181D01*
X192405000Y-96723181D01*
X192175108Y-96602514D01*
X191650642Y-96848817D01*
X191491979Y-97022917D01*
X191491979Y-96537169D01*
X191558337Y-96537227D01*
X191902113Y-96395182D01*
X192165362Y-96132392D01*
X192308008Y-95788864D01*
X192308091Y-95693516D01*
X192375317Y-95592905D01*
X192433169Y-95302066D01*
X192433169Y-93148165D01*
X192402491Y-92993938D01*
X192375317Y-92857325D01*
X192210570Y-92610764D01*
X192109999Y-92510193D01*
X192109999Y-85584879D01*
X192435167Y-85585162D01*
X192778943Y-85443117D01*
X193042192Y-85180327D01*
X193184838Y-84836799D01*
X193185162Y-84464833D01*
X193043117Y-84121057D01*
X193010000Y-84087882D01*
X193010000Y-77950000D01*
X192952148Y-77659161D01*
X192787401Y-77412599D01*
X192609462Y-77234660D01*
X193442619Y-77235387D01*
X194264372Y-76895845D01*
X194315000Y-76845305D01*
X194315000Y-126722926D01*
X194079147Y-126369946D01*
X193597378Y-126048039D01*
X193029093Y-125935000D01*
X192970907Y-125935000D01*
X192402622Y-126048039D01*
X191920853Y-126369946D01*
X191598946Y-126851715D01*
X191500000Y-127349150D01*
X191401054Y-126851715D01*
X191079147Y-126369946D01*
X190597378Y-126048039D01*
X190029093Y-125935000D01*
X189970907Y-125935000D01*
X189402622Y-126048039D01*
X188920853Y-126369946D01*
X188598946Y-126851715D01*
X188485907Y-127420000D01*
X188598946Y-127988285D01*
X188920853Y-128470054D01*
X189261553Y-128697702D01*
X189118642Y-128764817D01*
X188728355Y-129193076D01*
X188558524Y-129603110D01*
X188679845Y-129833000D01*
X189873000Y-129833000D01*
X189873000Y-129813000D01*
X190127000Y-129813000D01*
X190127000Y-129833000D01*
X191320155Y-129833000D01*
X191441476Y-129603110D01*
X191271645Y-129193076D01*
X190881358Y-128764817D01*
X190738447Y-128697702D01*
X191079147Y-128470054D01*
X191401054Y-127988285D01*
X191500000Y-127490850D01*
X191598946Y-127988285D01*
X191920853Y-128470054D01*
X192261553Y-128697702D01*
X192118642Y-128764817D01*
X191728355Y-129193076D01*
X191558524Y-129603110D01*
X191679845Y-129833000D01*
X192873000Y-129833000D01*
X192873000Y-129813000D01*
X193127000Y-129813000D01*
X193127000Y-129833000D01*
X193147000Y-129833000D01*
X193147000Y-130087000D01*
X193127000Y-130087000D01*
X193127000Y-130107000D01*
X192873000Y-130107000D01*
X192873000Y-130087000D01*
X191679845Y-130087000D01*
X191558524Y-130316890D01*
X191728355Y-130726924D01*
X192004501Y-131029937D01*
X191914683Y-131046838D01*
X191698559Y-131185910D01*
X191553569Y-131398110D01*
X191502560Y-131650000D01*
X191502560Y-133350000D01*
X191546838Y-133585317D01*
X191685910Y-133801441D01*
X191898110Y-133946431D01*
X192150000Y-133997440D01*
X193850000Y-133997440D01*
X194085317Y-133953162D01*
X194301441Y-133814090D01*
X194315000Y-133794246D01*
X194315000Y-134315000D01*
X175685000Y-134315000D01*
X175685000Y-76846232D01*
X175732321Y-76893636D01*
X176553481Y-77234611D01*
X177442619Y-77235387D01*
X178264372Y-76895845D01*
X178893636Y-76267679D01*
X179234611Y-75446519D01*
X179235387Y-74557381D01*
X178895845Y-73735628D01*
X178267679Y-73106364D01*
X177446519Y-72765389D01*
X176557381Y-72764613D01*
X175735628Y-73104155D01*
X175685000Y-73154695D01*
X175685000Y-57185167D01*
X177064838Y-57185167D01*
X177206883Y-57528943D01*
X177469673Y-57792192D01*
X177813201Y-57934838D01*
X178185167Y-57935162D01*
X178528943Y-57793117D01*
X178562118Y-57760000D01*
X184437537Y-57760000D01*
X184469673Y-57792192D01*
X184813201Y-57934838D01*
X185185167Y-57935162D01*
X185528943Y-57793117D01*
X185792192Y-57530327D01*
X185934838Y-57186799D01*
X185935162Y-56814833D01*
X185793117Y-56471057D01*
X185530327Y-56207808D01*
X185186799Y-56065162D01*
X184814833Y-56064838D01*
X184471057Y-56206883D01*
X184437882Y-56240000D01*
X178562463Y-56240000D01*
X178530327Y-56207808D01*
X178186799Y-56065162D01*
X177814833Y-56064838D01*
X177471057Y-56206883D01*
X177207808Y-56469673D01*
X177065162Y-56813201D01*
X177064838Y-57185167D01*
X175685000Y-57185167D01*
X175685000Y-55185167D01*
X177064838Y-55185167D01*
X177206883Y-55528943D01*
X177469673Y-55792192D01*
X177813201Y-55934838D01*
X178185167Y-55935162D01*
X178528943Y-55793117D01*
X178792192Y-55530327D01*
X178934838Y-55186799D01*
X178934879Y-55139923D01*
X181139680Y-52935122D01*
X181185167Y-52935162D01*
X181528943Y-52793117D01*
X181792192Y-52530327D01*
X181934838Y-52186799D01*
X181935162Y-51814833D01*
X181793117Y-51471057D01*
X181530327Y-51207808D01*
X181186799Y-51065162D01*
X180814833Y-51064838D01*
X180471057Y-51206883D01*
X180207808Y-51469673D01*
X180065162Y-51813201D01*
X180065121Y-51860077D01*
X177860320Y-54064878D01*
X177814833Y-54064838D01*
X177471057Y-54206883D01*
X177207808Y-54469673D01*
X177065162Y-54813201D01*
X177064838Y-55185167D01*
X175685000Y-55185167D01*
X175685000Y-18752532D01*
X184027073Y-18752532D01*
X184125736Y-19019387D01*
X184735461Y-19245908D01*
X185385460Y-19221856D01*
X185874264Y-19019387D01*
X185972927Y-18752532D01*
X185000000Y-17779605D01*
X184027073Y-18752532D01*
X175685000Y-18752532D01*
X175685000Y-17335461D01*
X183354092Y-17335461D01*
X183378144Y-17985460D01*
X183580613Y-18474264D01*
X183847468Y-18572927D01*
X184820395Y-17600000D01*
X185179605Y-17600000D01*
X186152532Y-18572927D01*
X186419387Y-18474264D01*
X186645908Y-17864539D01*
X186621856Y-17214540D01*
X186419387Y-16725736D01*
X186152532Y-16627073D01*
X185179605Y-17600000D01*
X184820395Y-17600000D01*
X183847468Y-16627073D01*
X183580613Y-16725736D01*
X183354092Y-17335461D01*
X175685000Y-17335461D01*
X175685000Y-16447468D01*
X184027073Y-16447468D01*
X185000000Y-17420395D01*
X185972927Y-16447468D01*
X185874264Y-16180613D01*
X185264539Y-15954092D01*
X184614540Y-15978144D01*
X184125736Y-16180613D01*
X184027073Y-16447468D01*
X175685000Y-16447468D01*
X175685000Y-15685000D01*
X194315000Y-15685000D01*
X194315000Y-51096974D01*
G36*
X187439989Y-77036399D02*
X187497841Y-77327238D01*
X187662588Y-77573800D01*
X187783331Y-77694543D01*
X187557808Y-77919673D01*
X187415162Y-78263201D01*
X187414838Y-78635167D01*
X187556883Y-78978943D01*
X187819673Y-79242192D01*
X188163201Y-79384838D01*
X188210077Y-79384879D01*
X189039991Y-80214793D01*
X189039991Y-92323793D01*
X188996440Y-92367344D01*
X188831693Y-92613906D01*
X188773841Y-92904745D01*
X188773841Y-94223624D01*
X188831693Y-94514463D01*
X188996440Y-94761025D01*
X189971979Y-95736564D01*
X189971979Y-98345568D01*
X190027763Y-98626011D01*
X189878015Y-98687885D01*
X189614766Y-98950675D01*
X189472120Y-99294203D01*
X189472037Y-99389551D01*
X189404811Y-99490162D01*
X189346959Y-99781001D01*
X189346959Y-100694777D01*
X189404811Y-100985616D01*
X189569558Y-101232178D01*
X189740000Y-101402620D01*
X189740000Y-104982882D01*
X189689813Y-104982838D01*
X189346037Y-105124883D01*
X189082788Y-105387673D01*
X188940142Y-105731201D01*
X188940101Y-105778077D01*
X188778114Y-105940064D01*
X188778320Y-105703822D01*
X188636275Y-105360046D01*
X188603158Y-105326871D01*
X188603158Y-84934160D01*
X188545306Y-84643321D01*
X188380559Y-84396759D01*
X188195145Y-84211345D01*
X188283515Y-84174831D01*
X188673461Y-83785564D01*
X188884759Y-83276702D01*
X188885240Y-82725715D01*
X188674831Y-82216485D01*
X188285564Y-81826539D01*
X187776702Y-81615241D01*
X187225715Y-81614760D01*
X187184999Y-81631583D01*
X187184999Y-73187462D01*
X187217191Y-73155326D01*
X187359837Y-72811798D01*
X187360161Y-72439832D01*
X187218116Y-72096056D01*
X186955326Y-71832807D01*
X186611798Y-71690161D01*
X186559991Y-71690116D01*
X186559991Y-69064811D01*
X186789680Y-68835122D01*
X186835167Y-68835162D01*
X187178943Y-68693117D01*
X187439989Y-68432526D01*
X187439989Y-77036399D01*
X187439989Y-77036399D01*
G37*
X187439989Y-77036399D02*
X187497841Y-77327238D01*
X187662588Y-77573800D01*
X187783331Y-77694543D01*
X187557808Y-77919673D01*
X187415162Y-78263201D01*
X187414838Y-78635167D01*
X187556883Y-78978943D01*
X187819673Y-79242192D01*
X188163201Y-79384838D01*
X188210077Y-79384879D01*
X189039991Y-80214793D01*
X189039991Y-92323793D01*
X188996440Y-92367344D01*
X188831693Y-92613906D01*
X188773841Y-92904745D01*
X188773841Y-94223624D01*
X188831693Y-94514463D01*
X188996440Y-94761025D01*
X189971979Y-95736564D01*
X189971979Y-98345568D01*
X190027763Y-98626011D01*
X189878015Y-98687885D01*
X189614766Y-98950675D01*
X189472120Y-99294203D01*
X189472037Y-99389551D01*
X189404811Y-99490162D01*
X189346959Y-99781001D01*
X189346959Y-100694777D01*
X189404811Y-100985616D01*
X189569558Y-101232178D01*
X189740000Y-101402620D01*
X189740000Y-104982882D01*
X189689813Y-104982838D01*
X189346037Y-105124883D01*
X189082788Y-105387673D01*
X188940142Y-105731201D01*
X188940101Y-105778077D01*
X188778114Y-105940064D01*
X188778320Y-105703822D01*
X188636275Y-105360046D01*
X188603158Y-105326871D01*
X188603158Y-84934160D01*
X188545306Y-84643321D01*
X188380559Y-84396759D01*
X188195145Y-84211345D01*
X188283515Y-84174831D01*
X188673461Y-83785564D01*
X188884759Y-83276702D01*
X188885240Y-82725715D01*
X188674831Y-82216485D01*
X188285564Y-81826539D01*
X187776702Y-81615241D01*
X187225715Y-81614760D01*
X187184999Y-81631583D01*
X187184999Y-73187462D01*
X187217191Y-73155326D01*
X187359837Y-72811798D01*
X187360161Y-72439832D01*
X187218116Y-72096056D01*
X186955326Y-71832807D01*
X186611798Y-71690161D01*
X186559991Y-71690116D01*
X186559991Y-69064811D01*
X186789680Y-68835122D01*
X186835167Y-68835162D01*
X187178943Y-68693117D01*
X187439989Y-68432526D01*
X187439989Y-77036399D01*
G36*
X214315000Y-51096974D02*
X214209698Y-50991673D01*
X213976309Y-50895000D01*
X213285750Y-50895000D01*
X213127000Y-51053750D01*
X213127000Y-52253000D01*
X213147000Y-52253000D01*
X213147000Y-52507000D01*
X213127000Y-52507000D01*
X213127000Y-52527000D01*
X212873000Y-52527000D01*
X212873000Y-52507000D01*
X211673750Y-52507000D01*
X211515000Y-52665750D01*
X211515000Y-53356310D01*
X211611673Y-53589699D01*
X211790302Y-53768327D01*
X211964777Y-53840597D01*
X211920853Y-53869946D01*
X211598946Y-54351715D01*
X211485907Y-54920000D01*
X211598946Y-55488285D01*
X211920853Y-55970054D01*
X212250026Y-56190000D01*
X211920853Y-56409946D01*
X211598946Y-56891715D01*
X211485907Y-57460000D01*
X211598946Y-58028285D01*
X211920853Y-58510054D01*
X212250026Y-58730000D01*
X211920853Y-58949946D01*
X211598946Y-59431715D01*
X211485907Y-60000000D01*
X211558790Y-60366408D01*
X208959989Y-62965209D01*
X208959989Y-51403690D01*
X211515000Y-51403690D01*
X211515000Y-52094250D01*
X211673750Y-52253000D01*
X212873000Y-52253000D01*
X212873000Y-51053750D01*
X212714250Y-50895000D01*
X212023691Y-50895000D01*
X211790302Y-50991673D01*
X211611673Y-51170301D01*
X211515000Y-51403690D01*
X208959989Y-51403690D01*
X208959989Y-34214813D01*
X210839680Y-32335122D01*
X210885167Y-32335162D01*
X211228943Y-32193117D01*
X211492192Y-31930327D01*
X211634838Y-31586799D01*
X211635162Y-31214833D01*
X211493117Y-30871057D01*
X211230327Y-30607808D01*
X210886799Y-30465162D01*
X210514833Y-30464838D01*
X210171057Y-30606883D01*
X209907808Y-30869673D01*
X209765162Y-31213201D01*
X209765121Y-31260077D01*
X207662588Y-33362610D01*
X207497841Y-33609172D01*
X207439989Y-33900011D01*
X207439989Y-62717924D01*
X207180327Y-62457808D01*
X206836799Y-62315162D01*
X206635075Y-62314986D01*
X206635284Y-62076205D01*
X206386894Y-61475057D01*
X205927363Y-61014722D01*
X205326648Y-60765284D01*
X204676205Y-60764716D01*
X204075057Y-61013106D01*
X203614722Y-61472637D01*
X203365284Y-62073352D01*
X203364716Y-62723795D01*
X203613106Y-63324943D01*
X203748504Y-63460577D01*
X203722403Y-63486678D01*
X203476366Y-63854898D01*
X203389969Y-64289244D01*
X203389969Y-81830952D01*
X203385564Y-81826539D01*
X202876702Y-81615241D01*
X202325715Y-81614760D01*
X201816485Y-81825169D01*
X201426539Y-82214436D01*
X201215241Y-82723298D01*
X201214760Y-83274285D01*
X201425169Y-83783515D01*
X201814436Y-84173461D01*
X202323298Y-84384759D01*
X202874285Y-84385240D01*
X203383515Y-84174831D01*
X203389969Y-84168388D01*
X203389969Y-85310756D01*
X203476366Y-85745102D01*
X203722403Y-86113322D01*
X203865000Y-86255919D01*
X203865000Y-86359086D01*
X203816371Y-86407630D01*
X203603243Y-86920900D01*
X203602758Y-87476661D01*
X203814990Y-87990303D01*
X204207630Y-88383629D01*
X204720900Y-88596757D01*
X205276661Y-88597242D01*
X205639999Y-88447114D01*
X205639999Y-89883948D01*
X205606799Y-89870162D01*
X205234833Y-89869838D01*
X205113431Y-89920000D01*
X203515005Y-89920000D01*
X203515000Y-89919999D01*
X203176326Y-89987366D01*
X203081054Y-90051025D01*
X202889210Y-90179210D01*
X202889208Y-90179213D01*
X202254210Y-90814210D01*
X202062367Y-91101325D01*
X202062367Y-91101326D01*
X201994999Y-91440000D01*
X201995000Y-91440005D01*
X201995000Y-102409417D01*
X201111210Y-103293206D01*
X201111208Y-103293209D01*
X197374210Y-107030206D01*
X197182367Y-107317321D01*
X197182367Y-107317322D01*
X197114999Y-107655996D01*
X197115000Y-107656001D01*
X197115000Y-125740221D01*
X196920853Y-125869946D01*
X196598946Y-126351715D01*
X196485907Y-126920000D01*
X196598946Y-127488285D01*
X196920853Y-127970054D01*
X197115000Y-128099779D01*
X197115000Y-128280221D01*
X196920853Y-128409946D01*
X196598946Y-128891715D01*
X196485907Y-129460000D01*
X196598946Y-130028285D01*
X196920853Y-130510054D01*
X196962452Y-130537850D01*
X196914683Y-130546838D01*
X196698559Y-130685910D01*
X196553569Y-130898110D01*
X196502560Y-131150000D01*
X196502560Y-132850000D01*
X196546838Y-133085317D01*
X196685910Y-133301441D01*
X196898110Y-133446431D01*
X197150000Y-133497440D01*
X198850000Y-133497440D01*
X199085317Y-133453162D01*
X199301441Y-133314090D01*
X199423808Y-133135000D01*
X204159086Y-133135000D01*
X204207630Y-133183629D01*
X204720900Y-133396757D01*
X205276661Y-133397242D01*
X205790303Y-133185010D01*
X206183629Y-132792370D01*
X206396757Y-132279100D01*
X206397242Y-131723339D01*
X206366940Y-131650000D01*
X208502560Y-131650000D01*
X208502560Y-133350000D01*
X208546838Y-133585317D01*
X208685910Y-133801441D01*
X208898110Y-133946431D01*
X209150000Y-133997440D01*
X210850000Y-133997440D01*
X211085317Y-133953162D01*
X211301441Y-133814090D01*
X211446431Y-133601890D01*
X211497440Y-133350000D01*
X211497440Y-131650000D01*
X211453162Y-131414683D01*
X211314090Y-131198559D01*
X211101890Y-131053569D01*
X210993893Y-131031699D01*
X211271645Y-130726924D01*
X211441476Y-130316890D01*
X211320155Y-130087000D01*
X210127000Y-130087000D01*
X210127000Y-130107000D01*
X209873000Y-130107000D01*
X209873000Y-130087000D01*
X208679845Y-130087000D01*
X208558524Y-130316890D01*
X208728355Y-130726924D01*
X209004501Y-131029937D01*
X208914683Y-131046838D01*
X208698559Y-131185910D01*
X208553569Y-131398110D01*
X208502560Y-131650000D01*
X206366940Y-131650000D01*
X206185010Y-131209697D01*
X205792370Y-130816371D01*
X205279100Y-130603243D01*
X204723339Y-130602758D01*
X204209697Y-130814990D01*
X204159600Y-130865000D01*
X199421192Y-130865000D01*
X199314090Y-130698559D01*
X199101890Y-130553569D01*
X199034459Y-130539914D01*
X199079147Y-130510054D01*
X199401054Y-130028285D01*
X199514093Y-129460000D01*
X199401054Y-128891715D01*
X199079147Y-128409946D01*
X198885000Y-128280221D01*
X198885000Y-128099779D01*
X198952016Y-128055000D01*
X201944000Y-128055000D01*
X202378346Y-127968603D01*
X202746566Y-127722566D01*
X203682566Y-126786566D01*
X203928603Y-126418345D01*
X204015000Y-125984000D01*
X203928603Y-125549655D01*
X203682566Y-125181434D01*
X203314345Y-124935397D01*
X202880000Y-124849000D01*
X202445655Y-124935397D01*
X202077434Y-125181434D01*
X201473868Y-125785000D01*
X198952016Y-125785000D01*
X198885000Y-125740221D01*
X198885000Y-117473000D01*
X209175537Y-117473000D01*
X209207673Y-117505192D01*
X209551201Y-117647838D01*
X209923167Y-117648162D01*
X210266943Y-117506117D01*
X210530192Y-117243327D01*
X210672838Y-116899799D01*
X210673162Y-116527833D01*
X210531117Y-116184057D01*
X210268327Y-115920808D01*
X209924799Y-115778162D01*
X209552833Y-115777838D01*
X209209057Y-115919883D01*
X209175882Y-115953000D01*
X198885000Y-115953000D01*
X198885000Y-109297768D01*
X198964286Y-109377192D01*
X199307814Y-109519838D01*
X199679780Y-109520162D01*
X200023556Y-109378117D01*
X200056731Y-109345000D01*
X207207980Y-109345000D01*
X207498819Y-109287148D01*
X207745381Y-109122401D01*
X209740000Y-107127782D01*
X209740000Y-109500000D01*
X209797852Y-109790839D01*
X209962599Y-110037401D01*
X210462599Y-110537401D01*
X210709161Y-110702148D01*
X210740000Y-110708282D01*
X210740000Y-120937537D01*
X210707808Y-120969673D01*
X210565162Y-121313201D01*
X210564838Y-121685167D01*
X210706883Y-122028943D01*
X210969673Y-122292192D01*
X211313201Y-122434838D01*
X211685167Y-122435162D01*
X212028943Y-122293117D01*
X212292192Y-122030327D01*
X212434838Y-121686799D01*
X212435162Y-121314833D01*
X212293117Y-120971057D01*
X212260000Y-120937882D01*
X212260000Y-110250000D01*
X212217711Y-110037401D01*
X212202148Y-109959160D01*
X212037401Y-109712599D01*
X212026242Y-109701440D01*
X212440040Y-109701440D01*
X212439828Y-109945168D01*
X212581873Y-110288944D01*
X212614990Y-110322119D01*
X212614990Y-122987794D01*
X212478385Y-123124161D01*
X212335739Y-123467689D01*
X212335415Y-123839655D01*
X212477460Y-124183431D01*
X212740250Y-124446680D01*
X213083778Y-124589326D01*
X213455744Y-124589650D01*
X213799520Y-124447605D01*
X214062769Y-124184815D01*
X214205415Y-123841287D01*
X214205739Y-123469321D01*
X214134990Y-123298095D01*
X214134990Y-110322464D01*
X214167182Y-110290328D01*
X214309828Y-109946800D01*
X214310152Y-109574834D01*
X214168107Y-109231058D01*
X214023018Y-109085715D01*
X214029440Y-109054000D01*
X214029440Y-107354000D01*
X213985162Y-107118683D01*
X213846090Y-106902559D01*
X213633890Y-106757569D01*
X213566459Y-106743914D01*
X213611147Y-106714054D01*
X213933054Y-106232285D01*
X214046093Y-105664000D01*
X213933054Y-105095715D01*
X213611147Y-104613946D01*
X213281974Y-104394000D01*
X213611147Y-104174054D01*
X213933054Y-103692285D01*
X214046093Y-103124000D01*
X213933054Y-102555715D01*
X213611147Y-102073946D01*
X213281974Y-101854000D01*
X213611147Y-101634054D01*
X213933054Y-101152285D01*
X214046093Y-100584000D01*
X213933054Y-100015715D01*
X213611147Y-99533946D01*
X213270447Y-99306298D01*
X213413358Y-99239183D01*
X213803645Y-98810924D01*
X213973476Y-98400890D01*
X213852155Y-98171000D01*
X212659000Y-98171000D01*
X212659000Y-98191000D01*
X212405000Y-98191000D01*
X212405000Y-98171000D01*
X212385000Y-98171000D01*
X212385000Y-97917000D01*
X212405000Y-97917000D01*
X212405000Y-96723181D01*
X212659000Y-96723181D01*
X212659000Y-97917000D01*
X213852155Y-97917000D01*
X213973476Y-97687110D01*
X213803645Y-97277076D01*
X213413358Y-96848817D01*
X212888892Y-96602514D01*
X212659000Y-96723181D01*
X212405000Y-96723181D01*
X212175108Y-96602514D01*
X211650642Y-96848817D01*
X211491979Y-97022917D01*
X211491979Y-96537169D01*
X211558337Y-96537227D01*
X211902113Y-96395182D01*
X212165362Y-96132392D01*
X212308008Y-95788864D01*
X212308091Y-95693516D01*
X212375317Y-95592905D01*
X212433169Y-95302066D01*
X212433169Y-93148165D01*
X212402491Y-92993938D01*
X212375317Y-92857325D01*
X212210570Y-92610764D01*
X212109999Y-92510193D01*
X212109999Y-85584879D01*
X212435167Y-85585162D01*
X212778943Y-85443117D01*
X213042192Y-85180327D01*
X213184838Y-84836799D01*
X213185162Y-84464833D01*
X213043117Y-84121057D01*
X213010000Y-84087882D01*
X213010000Y-77950000D01*
X212952148Y-77659161D01*
X212787401Y-77412599D01*
X212609462Y-77234660D01*
X213442619Y-77235387D01*
X214264372Y-76895845D01*
X214315000Y-76845305D01*
X214315000Y-126722926D01*
X214079147Y-126369946D01*
X213597378Y-126048039D01*
X213029093Y-125935000D01*
X212970907Y-125935000D01*
X212402622Y-126048039D01*
X211920853Y-126369946D01*
X211598946Y-126851715D01*
X211500000Y-127349150D01*
X211401054Y-126851715D01*
X211079147Y-126369946D01*
X210597378Y-126048039D01*
X210029093Y-125935000D01*
X209970907Y-125935000D01*
X209402622Y-126048039D01*
X208920853Y-126369946D01*
X208598946Y-126851715D01*
X208485907Y-127420000D01*
X208598946Y-127988285D01*
X208920853Y-128470054D01*
X209261553Y-128697702D01*
X209118642Y-128764817D01*
X208728355Y-129193076D01*
X208558524Y-129603110D01*
X208679845Y-129833000D01*
X209873000Y-129833000D01*
X209873000Y-129813000D01*
X210127000Y-129813000D01*
X210127000Y-129833000D01*
X211320155Y-129833000D01*
X211441476Y-129603110D01*
X211271645Y-129193076D01*
X210881358Y-128764817D01*
X210738447Y-128697702D01*
X211079147Y-128470054D01*
X211401054Y-127988285D01*
X211500000Y-127490850D01*
X211598946Y-127988285D01*
X211920853Y-128470054D01*
X212261553Y-128697702D01*
X212118642Y-128764817D01*
X211728355Y-129193076D01*
X211558524Y-129603110D01*
X211679845Y-129833000D01*
X212873000Y-129833000D01*
X212873000Y-129813000D01*
X213127000Y-129813000D01*
X213127000Y-129833000D01*
X213147000Y-129833000D01*
X213147000Y-130087000D01*
X213127000Y-130087000D01*
X213127000Y-130107000D01*
X212873000Y-130107000D01*
X212873000Y-130087000D01*
X211679845Y-130087000D01*
X211558524Y-130316890D01*
X211728355Y-130726924D01*
X212004501Y-131029937D01*
X211914683Y-131046838D01*
X211698559Y-131185910D01*
X211553569Y-131398110D01*
X211502560Y-131650000D01*
X211502560Y-133350000D01*
X211546838Y-133585317D01*
X211685910Y-133801441D01*
X211898110Y-133946431D01*
X212150000Y-133997440D01*
X213850000Y-133997440D01*
X214085317Y-133953162D01*
X214301441Y-133814090D01*
X214315000Y-133794246D01*
X214315000Y-134315000D01*
X195685000Y-134315000D01*
X195685000Y-76846232D01*
X195732321Y-76893636D01*
X196553481Y-77234611D01*
X197442619Y-77235387D01*
X198264372Y-76895845D01*
X198893636Y-76267679D01*
X199234611Y-75446519D01*
X199235387Y-74557381D01*
X198895845Y-73735628D01*
X198267679Y-73106364D01*
X197446519Y-72765389D01*
X196557381Y-72764613D01*
X195735628Y-73104155D01*
X195685000Y-73154695D01*
X195685000Y-57185167D01*
X197064838Y-57185167D01*
X197206883Y-57528943D01*
X197469673Y-57792192D01*
X197813201Y-57934838D01*
X198185167Y-57935162D01*
X198528943Y-57793117D01*
X198562118Y-57760000D01*
X204437537Y-57760000D01*
X204469673Y-57792192D01*
X204813201Y-57934838D01*
X205185167Y-57935162D01*
X205528943Y-57793117D01*
X205792192Y-57530327D01*
X205934838Y-57186799D01*
X205935162Y-56814833D01*
X205793117Y-56471057D01*
X205530327Y-56207808D01*
X205186799Y-56065162D01*
X204814833Y-56064838D01*
X204471057Y-56206883D01*
X204437882Y-56240000D01*
X198562463Y-56240000D01*
X198530327Y-56207808D01*
X198186799Y-56065162D01*
X197814833Y-56064838D01*
X197471057Y-56206883D01*
X197207808Y-56469673D01*
X197065162Y-56813201D01*
X197064838Y-57185167D01*
X195685000Y-57185167D01*
X195685000Y-55185167D01*
X197064838Y-55185167D01*
X197206883Y-55528943D01*
X197469673Y-55792192D01*
X197813201Y-55934838D01*
X198185167Y-55935162D01*
X198528943Y-55793117D01*
X198792192Y-55530327D01*
X198934838Y-55186799D01*
X198934879Y-55139923D01*
X201139680Y-52935122D01*
X201185167Y-52935162D01*
X201528943Y-52793117D01*
X201792192Y-52530327D01*
X201934838Y-52186799D01*
X201935162Y-51814833D01*
X201793117Y-51471057D01*
X201530327Y-51207808D01*
X201186799Y-51065162D01*
X200814833Y-51064838D01*
X200471057Y-51206883D01*
X200207808Y-51469673D01*
X200065162Y-51813201D01*
X200065121Y-51860077D01*
X197860320Y-54064878D01*
X197814833Y-54064838D01*
X197471057Y-54206883D01*
X197207808Y-54469673D01*
X197065162Y-54813201D01*
X197064838Y-55185167D01*
X195685000Y-55185167D01*
X195685000Y-18752532D01*
X204027073Y-18752532D01*
X204125736Y-19019387D01*
X204735461Y-19245908D01*
X205385460Y-19221856D01*
X205874264Y-19019387D01*
X205972927Y-18752532D01*
X205000000Y-17779605D01*
X204027073Y-18752532D01*
X195685000Y-18752532D01*
X195685000Y-17335461D01*
X203354092Y-17335461D01*
X203378144Y-17985460D01*
X203580613Y-18474264D01*
X203847468Y-18572927D01*
X204820395Y-17600000D01*
X205179605Y-17600000D01*
X206152532Y-18572927D01*
X206419387Y-18474264D01*
X206645908Y-17864539D01*
X206621856Y-17214540D01*
X206419387Y-16725736D01*
X206152532Y-16627073D01*
X205179605Y-17600000D01*
X204820395Y-17600000D01*
X203847468Y-16627073D01*
X203580613Y-16725736D01*
X203354092Y-17335461D01*
X195685000Y-17335461D01*
X195685000Y-16447468D01*
X204027073Y-16447468D01*
X205000000Y-17420395D01*
X205972927Y-16447468D01*
X205874264Y-16180613D01*
X205264539Y-15954092D01*
X204614540Y-15978144D01*
X204125736Y-16180613D01*
X204027073Y-16447468D01*
X195685000Y-16447468D01*
X195685000Y-15685000D01*
X214315000Y-15685000D01*
X214315000Y-51096974D01*
X214315000Y-51096974D01*
G37*
X214315000Y-51096974D02*
X214209698Y-50991673D01*
X213976309Y-50895000D01*
X213285750Y-50895000D01*
X213127000Y-51053750D01*
X213127000Y-52253000D01*
X213147000Y-52253000D01*
X213147000Y-52507000D01*
X213127000Y-52507000D01*
X213127000Y-52527000D01*
X212873000Y-52527000D01*
X212873000Y-52507000D01*
X211673750Y-52507000D01*
X211515000Y-52665750D01*
X211515000Y-53356310D01*
X211611673Y-53589699D01*
X211790302Y-53768327D01*
X211964777Y-53840597D01*
X211920853Y-53869946D01*
X211598946Y-54351715D01*
X211485907Y-54920000D01*
X211598946Y-55488285D01*
X211920853Y-55970054D01*
X212250026Y-56190000D01*
X211920853Y-56409946D01*
X211598946Y-56891715D01*
X211485907Y-57460000D01*
X211598946Y-58028285D01*
X211920853Y-58510054D01*
X212250026Y-58730000D01*
X211920853Y-58949946D01*
X211598946Y-59431715D01*
X211485907Y-60000000D01*
X211558790Y-60366408D01*
X208959989Y-62965209D01*
X208959989Y-51403690D01*
X211515000Y-51403690D01*
X211515000Y-52094250D01*
X211673750Y-52253000D01*
X212873000Y-52253000D01*
X212873000Y-51053750D01*
X212714250Y-50895000D01*
X212023691Y-50895000D01*
X211790302Y-50991673D01*
X211611673Y-51170301D01*
X211515000Y-51403690D01*
X208959989Y-51403690D01*
X208959989Y-34214813D01*
X210839680Y-32335122D01*
X210885167Y-32335162D01*
X211228943Y-32193117D01*
X211492192Y-31930327D01*
X211634838Y-31586799D01*
X211635162Y-31214833D01*
X211493117Y-30871057D01*
X211230327Y-30607808D01*
X210886799Y-30465162D01*
X210514833Y-30464838D01*
X210171057Y-30606883D01*
X209907808Y-30869673D01*
X209765162Y-31213201D01*
X209765121Y-31260077D01*
X207662588Y-33362610D01*
X207497841Y-33609172D01*
X207439989Y-33900011D01*
X207439989Y-62717924D01*
X207180327Y-62457808D01*
X206836799Y-62315162D01*
X206635075Y-62314986D01*
X206635284Y-62076205D01*
X206386894Y-61475057D01*
X205927363Y-61014722D01*
X205326648Y-60765284D01*
X204676205Y-60764716D01*
X204075057Y-61013106D01*
X203614722Y-61472637D01*
X203365284Y-62073352D01*
X203364716Y-62723795D01*
X203613106Y-63324943D01*
X203748504Y-63460577D01*
X203722403Y-63486678D01*
X203476366Y-63854898D01*
X203389969Y-64289244D01*
X203389969Y-81830952D01*
X203385564Y-81826539D01*
X202876702Y-81615241D01*
X202325715Y-81614760D01*
X201816485Y-81825169D01*
X201426539Y-82214436D01*
X201215241Y-82723298D01*
X201214760Y-83274285D01*
X201425169Y-83783515D01*
X201814436Y-84173461D01*
X202323298Y-84384759D01*
X202874285Y-84385240D01*
X203383515Y-84174831D01*
X203389969Y-84168388D01*
X203389969Y-85310756D01*
X203476366Y-85745102D01*
X203722403Y-86113322D01*
X203865000Y-86255919D01*
X203865000Y-86359086D01*
X203816371Y-86407630D01*
X203603243Y-86920900D01*
X203602758Y-87476661D01*
X203814990Y-87990303D01*
X204207630Y-88383629D01*
X204720900Y-88596757D01*
X205276661Y-88597242D01*
X205639999Y-88447114D01*
X205639999Y-89883948D01*
X205606799Y-89870162D01*
X205234833Y-89869838D01*
X205113431Y-89920000D01*
X203515005Y-89920000D01*
X203515000Y-89919999D01*
X203176326Y-89987366D01*
X203081054Y-90051025D01*
X202889210Y-90179210D01*
X202889208Y-90179213D01*
X202254210Y-90814210D01*
X202062367Y-91101325D01*
X202062367Y-91101326D01*
X201994999Y-91440000D01*
X201995000Y-91440005D01*
X201995000Y-102409417D01*
X201111210Y-103293206D01*
X201111208Y-103293209D01*
X197374210Y-107030206D01*
X197182367Y-107317321D01*
X197182367Y-107317322D01*
X197114999Y-107655996D01*
X197115000Y-107656001D01*
X197115000Y-125740221D01*
X196920853Y-125869946D01*
X196598946Y-126351715D01*
X196485907Y-126920000D01*
X196598946Y-127488285D01*
X196920853Y-127970054D01*
X197115000Y-128099779D01*
X197115000Y-128280221D01*
X196920853Y-128409946D01*
X196598946Y-128891715D01*
X196485907Y-129460000D01*
X196598946Y-130028285D01*
X196920853Y-130510054D01*
X196962452Y-130537850D01*
X196914683Y-130546838D01*
X196698559Y-130685910D01*
X196553569Y-130898110D01*
X196502560Y-131150000D01*
X196502560Y-132850000D01*
X196546838Y-133085317D01*
X196685910Y-133301441D01*
X196898110Y-133446431D01*
X197150000Y-133497440D01*
X198850000Y-133497440D01*
X199085317Y-133453162D01*
X199301441Y-133314090D01*
X199423808Y-133135000D01*
X204159086Y-133135000D01*
X204207630Y-133183629D01*
X204720900Y-133396757D01*
X205276661Y-133397242D01*
X205790303Y-133185010D01*
X206183629Y-132792370D01*
X206396757Y-132279100D01*
X206397242Y-131723339D01*
X206366940Y-131650000D01*
X208502560Y-131650000D01*
X208502560Y-133350000D01*
X208546838Y-133585317D01*
X208685910Y-133801441D01*
X208898110Y-133946431D01*
X209150000Y-133997440D01*
X210850000Y-133997440D01*
X211085317Y-133953162D01*
X211301441Y-133814090D01*
X211446431Y-133601890D01*
X211497440Y-133350000D01*
X211497440Y-131650000D01*
X211453162Y-131414683D01*
X211314090Y-131198559D01*
X211101890Y-131053569D01*
X210993893Y-131031699D01*
X211271645Y-130726924D01*
X211441476Y-130316890D01*
X211320155Y-130087000D01*
X210127000Y-130087000D01*
X210127000Y-130107000D01*
X209873000Y-130107000D01*
X209873000Y-130087000D01*
X208679845Y-130087000D01*
X208558524Y-130316890D01*
X208728355Y-130726924D01*
X209004501Y-131029937D01*
X208914683Y-131046838D01*
X208698559Y-131185910D01*
X208553569Y-131398110D01*
X208502560Y-131650000D01*
X206366940Y-131650000D01*
X206185010Y-131209697D01*
X205792370Y-130816371D01*
X205279100Y-130603243D01*
X204723339Y-130602758D01*
X204209697Y-130814990D01*
X204159600Y-130865000D01*
X199421192Y-130865000D01*
X199314090Y-130698559D01*
X199101890Y-130553569D01*
X199034459Y-130539914D01*
X199079147Y-130510054D01*
X199401054Y-130028285D01*
X199514093Y-129460000D01*
X199401054Y-128891715D01*
X199079147Y-128409946D01*
X198885000Y-128280221D01*
X198885000Y-128099779D01*
X198952016Y-128055000D01*
X201944000Y-128055000D01*
X202378346Y-127968603D01*
X202746566Y-127722566D01*
X203682566Y-126786566D01*
X203928603Y-126418345D01*
X204015000Y-125984000D01*
X203928603Y-125549655D01*
X203682566Y-125181434D01*
X203314345Y-124935397D01*
X202880000Y-124849000D01*
X202445655Y-124935397D01*
X202077434Y-125181434D01*
X201473868Y-125785000D01*
X198952016Y-125785000D01*
X198885000Y-125740221D01*
X198885000Y-117473000D01*
X209175537Y-117473000D01*
X209207673Y-117505192D01*
X209551201Y-117647838D01*
X209923167Y-117648162D01*
X210266943Y-117506117D01*
X210530192Y-117243327D01*
X210672838Y-116899799D01*
X210673162Y-116527833D01*
X210531117Y-116184057D01*
X210268327Y-115920808D01*
X209924799Y-115778162D01*
X209552833Y-115777838D01*
X209209057Y-115919883D01*
X209175882Y-115953000D01*
X198885000Y-115953000D01*
X198885000Y-109297768D01*
X198964286Y-109377192D01*
X199307814Y-109519838D01*
X199679780Y-109520162D01*
X200023556Y-109378117D01*
X200056731Y-109345000D01*
X207207980Y-109345000D01*
X207498819Y-109287148D01*
X207745381Y-109122401D01*
X209740000Y-107127782D01*
X209740000Y-109500000D01*
X209797852Y-109790839D01*
X209962599Y-110037401D01*
X210462599Y-110537401D01*
X210709161Y-110702148D01*
X210740000Y-110708282D01*
X210740000Y-120937537D01*
X210707808Y-120969673D01*
X210565162Y-121313201D01*
X210564838Y-121685167D01*
X210706883Y-122028943D01*
X210969673Y-122292192D01*
X211313201Y-122434838D01*
X211685167Y-122435162D01*
X212028943Y-122293117D01*
X212292192Y-122030327D01*
X212434838Y-121686799D01*
X212435162Y-121314833D01*
X212293117Y-120971057D01*
X212260000Y-120937882D01*
X212260000Y-110250000D01*
X212217711Y-110037401D01*
X212202148Y-109959160D01*
X212037401Y-109712599D01*
X212026242Y-109701440D01*
X212440040Y-109701440D01*
X212439828Y-109945168D01*
X212581873Y-110288944D01*
X212614990Y-110322119D01*
X212614990Y-122987794D01*
X212478385Y-123124161D01*
X212335739Y-123467689D01*
X212335415Y-123839655D01*
X212477460Y-124183431D01*
X212740250Y-124446680D01*
X213083778Y-124589326D01*
X213455744Y-124589650D01*
X213799520Y-124447605D01*
X214062769Y-124184815D01*
X214205415Y-123841287D01*
X214205739Y-123469321D01*
X214134990Y-123298095D01*
X214134990Y-110322464D01*
X214167182Y-110290328D01*
X214309828Y-109946800D01*
X214310152Y-109574834D01*
X214168107Y-109231058D01*
X214023018Y-109085715D01*
X214029440Y-109054000D01*
X214029440Y-107354000D01*
X213985162Y-107118683D01*
X213846090Y-106902559D01*
X213633890Y-106757569D01*
X213566459Y-106743914D01*
X213611147Y-106714054D01*
X213933054Y-106232285D01*
X214046093Y-105664000D01*
X213933054Y-105095715D01*
X213611147Y-104613946D01*
X213281974Y-104394000D01*
X213611147Y-104174054D01*
X213933054Y-103692285D01*
X214046093Y-103124000D01*
X213933054Y-102555715D01*
X213611147Y-102073946D01*
X213281974Y-101854000D01*
X213611147Y-101634054D01*
X213933054Y-101152285D01*
X214046093Y-100584000D01*
X213933054Y-100015715D01*
X213611147Y-99533946D01*
X213270447Y-99306298D01*
X213413358Y-99239183D01*
X213803645Y-98810924D01*
X213973476Y-98400890D01*
X213852155Y-98171000D01*
X212659000Y-98171000D01*
X212659000Y-98191000D01*
X212405000Y-98191000D01*
X212405000Y-98171000D01*
X212385000Y-98171000D01*
X212385000Y-97917000D01*
X212405000Y-97917000D01*
X212405000Y-96723181D01*
X212659000Y-96723181D01*
X212659000Y-97917000D01*
X213852155Y-97917000D01*
X213973476Y-97687110D01*
X213803645Y-97277076D01*
X213413358Y-96848817D01*
X212888892Y-96602514D01*
X212659000Y-96723181D01*
X212405000Y-96723181D01*
X212175108Y-96602514D01*
X211650642Y-96848817D01*
X211491979Y-97022917D01*
X211491979Y-96537169D01*
X211558337Y-96537227D01*
X211902113Y-96395182D01*
X212165362Y-96132392D01*
X212308008Y-95788864D01*
X212308091Y-95693516D01*
X212375317Y-95592905D01*
X212433169Y-95302066D01*
X212433169Y-93148165D01*
X212402491Y-92993938D01*
X212375317Y-92857325D01*
X212210570Y-92610764D01*
X212109999Y-92510193D01*
X212109999Y-85584879D01*
X212435167Y-85585162D01*
X212778943Y-85443117D01*
X213042192Y-85180327D01*
X213184838Y-84836799D01*
X213185162Y-84464833D01*
X213043117Y-84121057D01*
X213010000Y-84087882D01*
X213010000Y-77950000D01*
X212952148Y-77659161D01*
X212787401Y-77412599D01*
X212609462Y-77234660D01*
X213442619Y-77235387D01*
X214264372Y-76895845D01*
X214315000Y-76845305D01*
X214315000Y-126722926D01*
X214079147Y-126369946D01*
X213597378Y-126048039D01*
X213029093Y-125935000D01*
X212970907Y-125935000D01*
X212402622Y-126048039D01*
X211920853Y-126369946D01*
X211598946Y-126851715D01*
X211500000Y-127349150D01*
X211401054Y-126851715D01*
X211079147Y-126369946D01*
X210597378Y-126048039D01*
X210029093Y-125935000D01*
X209970907Y-125935000D01*
X209402622Y-126048039D01*
X208920853Y-126369946D01*
X208598946Y-126851715D01*
X208485907Y-127420000D01*
X208598946Y-127988285D01*
X208920853Y-128470054D01*
X209261553Y-128697702D01*
X209118642Y-128764817D01*
X208728355Y-129193076D01*
X208558524Y-129603110D01*
X208679845Y-129833000D01*
X209873000Y-129833000D01*
X209873000Y-129813000D01*
X210127000Y-129813000D01*
X210127000Y-129833000D01*
X211320155Y-129833000D01*
X211441476Y-129603110D01*
X211271645Y-129193076D01*
X210881358Y-128764817D01*
X210738447Y-128697702D01*
X211079147Y-128470054D01*
X211401054Y-127988285D01*
X211500000Y-127490850D01*
X211598946Y-127988285D01*
X211920853Y-128470054D01*
X212261553Y-128697702D01*
X212118642Y-128764817D01*
X211728355Y-129193076D01*
X211558524Y-129603110D01*
X211679845Y-129833000D01*
X212873000Y-129833000D01*
X212873000Y-129813000D01*
X213127000Y-129813000D01*
X213127000Y-129833000D01*
X213147000Y-129833000D01*
X213147000Y-130087000D01*
X213127000Y-130087000D01*
X213127000Y-130107000D01*
X212873000Y-130107000D01*
X212873000Y-130087000D01*
X211679845Y-130087000D01*
X211558524Y-130316890D01*
X211728355Y-130726924D01*
X212004501Y-131029937D01*
X211914683Y-131046838D01*
X211698559Y-131185910D01*
X211553569Y-131398110D01*
X211502560Y-131650000D01*
X211502560Y-133350000D01*
X211546838Y-133585317D01*
X211685910Y-133801441D01*
X211898110Y-133946431D01*
X212150000Y-133997440D01*
X213850000Y-133997440D01*
X214085317Y-133953162D01*
X214301441Y-133814090D01*
X214315000Y-133794246D01*
X214315000Y-134315000D01*
X195685000Y-134315000D01*
X195685000Y-76846232D01*
X195732321Y-76893636D01*
X196553481Y-77234611D01*
X197442619Y-77235387D01*
X198264372Y-76895845D01*
X198893636Y-76267679D01*
X199234611Y-75446519D01*
X199235387Y-74557381D01*
X198895845Y-73735628D01*
X198267679Y-73106364D01*
X197446519Y-72765389D01*
X196557381Y-72764613D01*
X195735628Y-73104155D01*
X195685000Y-73154695D01*
X195685000Y-57185167D01*
X197064838Y-57185167D01*
X197206883Y-57528943D01*
X197469673Y-57792192D01*
X197813201Y-57934838D01*
X198185167Y-57935162D01*
X198528943Y-57793117D01*
X198562118Y-57760000D01*
X204437537Y-57760000D01*
X204469673Y-57792192D01*
X204813201Y-57934838D01*
X205185167Y-57935162D01*
X205528943Y-57793117D01*
X205792192Y-57530327D01*
X205934838Y-57186799D01*
X205935162Y-56814833D01*
X205793117Y-56471057D01*
X205530327Y-56207808D01*
X205186799Y-56065162D01*
X204814833Y-56064838D01*
X204471057Y-56206883D01*
X204437882Y-56240000D01*
X198562463Y-56240000D01*
X198530327Y-56207808D01*
X198186799Y-56065162D01*
X197814833Y-56064838D01*
X197471057Y-56206883D01*
X197207808Y-56469673D01*
X197065162Y-56813201D01*
X197064838Y-57185167D01*
X195685000Y-57185167D01*
X195685000Y-55185167D01*
X197064838Y-55185167D01*
X197206883Y-55528943D01*
X197469673Y-55792192D01*
X197813201Y-55934838D01*
X198185167Y-55935162D01*
X198528943Y-55793117D01*
X198792192Y-55530327D01*
X198934838Y-55186799D01*
X198934879Y-55139923D01*
X201139680Y-52935122D01*
X201185167Y-52935162D01*
X201528943Y-52793117D01*
X201792192Y-52530327D01*
X201934838Y-52186799D01*
X201935162Y-51814833D01*
X201793117Y-51471057D01*
X201530327Y-51207808D01*
X201186799Y-51065162D01*
X200814833Y-51064838D01*
X200471057Y-51206883D01*
X200207808Y-51469673D01*
X200065162Y-51813201D01*
X200065121Y-51860077D01*
X197860320Y-54064878D01*
X197814833Y-54064838D01*
X197471057Y-54206883D01*
X197207808Y-54469673D01*
X197065162Y-54813201D01*
X197064838Y-55185167D01*
X195685000Y-55185167D01*
X195685000Y-18752532D01*
X204027073Y-18752532D01*
X204125736Y-19019387D01*
X204735461Y-19245908D01*
X205385460Y-19221856D01*
X205874264Y-19019387D01*
X205972927Y-18752532D01*
X205000000Y-17779605D01*
X204027073Y-18752532D01*
X195685000Y-18752532D01*
X195685000Y-17335461D01*
X203354092Y-17335461D01*
X203378144Y-17985460D01*
X203580613Y-18474264D01*
X203847468Y-18572927D01*
X204820395Y-17600000D01*
X205179605Y-17600000D01*
X206152532Y-18572927D01*
X206419387Y-18474264D01*
X206645908Y-17864539D01*
X206621856Y-17214540D01*
X206419387Y-16725736D01*
X206152532Y-16627073D01*
X205179605Y-17600000D01*
X204820395Y-17600000D01*
X203847468Y-16627073D01*
X203580613Y-16725736D01*
X203354092Y-17335461D01*
X195685000Y-17335461D01*
X195685000Y-16447468D01*
X204027073Y-16447468D01*
X205000000Y-17420395D01*
X205972927Y-16447468D01*
X205874264Y-16180613D01*
X205264539Y-15954092D01*
X204614540Y-15978144D01*
X204125736Y-16180613D01*
X204027073Y-16447468D01*
X195685000Y-16447468D01*
X195685000Y-15685000D01*
X214315000Y-15685000D01*
X214315000Y-51096974D01*
G36*
X207439989Y-77036399D02*
X207497841Y-77327238D01*
X207662588Y-77573800D01*
X207783331Y-77694543D01*
X207557808Y-77919673D01*
X207415162Y-78263201D01*
X207414838Y-78635167D01*
X207556883Y-78978943D01*
X207819673Y-79242192D01*
X208163201Y-79384838D01*
X208210077Y-79384879D01*
X209039991Y-80214793D01*
X209039991Y-92323793D01*
X208996440Y-92367344D01*
X208831693Y-92613906D01*
X208773841Y-92904745D01*
X208773841Y-94223624D01*
X208831693Y-94514463D01*
X208996440Y-94761025D01*
X209971979Y-95736564D01*
X209971979Y-98345568D01*
X210027763Y-98626011D01*
X209878015Y-98687885D01*
X209614766Y-98950675D01*
X209472120Y-99294203D01*
X209472037Y-99389551D01*
X209404811Y-99490162D01*
X209346959Y-99781001D01*
X209346959Y-100694777D01*
X209404811Y-100985616D01*
X209569558Y-101232178D01*
X209740000Y-101402620D01*
X209740000Y-104982882D01*
X209689813Y-104982838D01*
X209346037Y-105124883D01*
X209082788Y-105387673D01*
X208940142Y-105731201D01*
X208940101Y-105778077D01*
X208778114Y-105940064D01*
X208778320Y-105703822D01*
X208636275Y-105360046D01*
X208603158Y-105326871D01*
X208603158Y-84934160D01*
X208545306Y-84643321D01*
X208380559Y-84396759D01*
X208195145Y-84211345D01*
X208283515Y-84174831D01*
X208673461Y-83785564D01*
X208884759Y-83276702D01*
X208885240Y-82725715D01*
X208674831Y-82216485D01*
X208285564Y-81826539D01*
X207776702Y-81615241D01*
X207225715Y-81614760D01*
X207184999Y-81631583D01*
X207184999Y-73187462D01*
X207217191Y-73155326D01*
X207359837Y-72811798D01*
X207360161Y-72439832D01*
X207218116Y-72096056D01*
X206955326Y-71832807D01*
X206611798Y-71690161D01*
X206559991Y-71690116D01*
X206559991Y-69064811D01*
X206789680Y-68835122D01*
X206835167Y-68835162D01*
X207178943Y-68693117D01*
X207439989Y-68432526D01*
X207439989Y-77036399D01*
X207439989Y-77036399D01*
G37*
X207439989Y-77036399D02*
X207497841Y-77327238D01*
X207662588Y-77573800D01*
X207783331Y-77694543D01*
X207557808Y-77919673D01*
X207415162Y-78263201D01*
X207414838Y-78635167D01*
X207556883Y-78978943D01*
X207819673Y-79242192D01*
X208163201Y-79384838D01*
X208210077Y-79384879D01*
X209039991Y-80214793D01*
X209039991Y-92323793D01*
X208996440Y-92367344D01*
X208831693Y-92613906D01*
X208773841Y-92904745D01*
X208773841Y-94223624D01*
X208831693Y-94514463D01*
X208996440Y-94761025D01*
X209971979Y-95736564D01*
X209971979Y-98345568D01*
X210027763Y-98626011D01*
X209878015Y-98687885D01*
X209614766Y-98950675D01*
X209472120Y-99294203D01*
X209472037Y-99389551D01*
X209404811Y-99490162D01*
X209346959Y-99781001D01*
X209346959Y-100694777D01*
X209404811Y-100985616D01*
X209569558Y-101232178D01*
X209740000Y-101402620D01*
X209740000Y-104982882D01*
X209689813Y-104982838D01*
X209346037Y-105124883D01*
X209082788Y-105387673D01*
X208940142Y-105731201D01*
X208940101Y-105778077D01*
X208778114Y-105940064D01*
X208778320Y-105703822D01*
X208636275Y-105360046D01*
X208603158Y-105326871D01*
X208603158Y-84934160D01*
X208545306Y-84643321D01*
X208380559Y-84396759D01*
X208195145Y-84211345D01*
X208283515Y-84174831D01*
X208673461Y-83785564D01*
X208884759Y-83276702D01*
X208885240Y-82725715D01*
X208674831Y-82216485D01*
X208285564Y-81826539D01*
X207776702Y-81615241D01*
X207225715Y-81614760D01*
X207184999Y-81631583D01*
X207184999Y-73187462D01*
X207217191Y-73155326D01*
X207359837Y-72811798D01*
X207360161Y-72439832D01*
X207218116Y-72096056D01*
X206955326Y-71832807D01*
X206611798Y-71690161D01*
X206559991Y-71690116D01*
X206559991Y-69064811D01*
X206789680Y-68835122D01*
X206835167Y-68835162D01*
X207178943Y-68693117D01*
X207439989Y-68432526D01*
X207439989Y-77036399D01*
G36*
X234315000Y-51096974D02*
X234209698Y-50991673D01*
X233976309Y-50895000D01*
X233285750Y-50895000D01*
X233127000Y-51053750D01*
X233127000Y-52253000D01*
X233147000Y-52253000D01*
X233147000Y-52507000D01*
X233127000Y-52507000D01*
X233127000Y-52527000D01*
X232873000Y-52527000D01*
X232873000Y-52507000D01*
X231673750Y-52507000D01*
X231515000Y-52665750D01*
X231515000Y-53356310D01*
X231611673Y-53589699D01*
X231790302Y-53768327D01*
X231964777Y-53840597D01*
X231920853Y-53869946D01*
X231598946Y-54351715D01*
X231485907Y-54920000D01*
X231598946Y-55488285D01*
X231920853Y-55970054D01*
X232250026Y-56190000D01*
X231920853Y-56409946D01*
X231598946Y-56891715D01*
X231485907Y-57460000D01*
X231598946Y-58028285D01*
X231920853Y-58510054D01*
X232250026Y-58730000D01*
X231920853Y-58949946D01*
X231598946Y-59431715D01*
X231485907Y-60000000D01*
X231558790Y-60366408D01*
X228959989Y-62965209D01*
X228959989Y-51403690D01*
X231515000Y-51403690D01*
X231515000Y-52094250D01*
X231673750Y-52253000D01*
X232873000Y-52253000D01*
X232873000Y-51053750D01*
X232714250Y-50895000D01*
X232023691Y-50895000D01*
X231790302Y-50991673D01*
X231611673Y-51170301D01*
X231515000Y-51403690D01*
X228959989Y-51403690D01*
X228959989Y-34214813D01*
X230839680Y-32335122D01*
X230885167Y-32335162D01*
X231228943Y-32193117D01*
X231492192Y-31930327D01*
X231634838Y-31586799D01*
X231635162Y-31214833D01*
X231493117Y-30871057D01*
X231230327Y-30607808D01*
X230886799Y-30465162D01*
X230514833Y-30464838D01*
X230171057Y-30606883D01*
X229907808Y-30869673D01*
X229765162Y-31213201D01*
X229765121Y-31260077D01*
X227662588Y-33362610D01*
X227497841Y-33609172D01*
X227439989Y-33900011D01*
X227439989Y-62717924D01*
X227180327Y-62457808D01*
X226836799Y-62315162D01*
X226635075Y-62314986D01*
X226635284Y-62076205D01*
X226386894Y-61475057D01*
X225927363Y-61014722D01*
X225326648Y-60765284D01*
X224676205Y-60764716D01*
X224075057Y-61013106D01*
X223614722Y-61472637D01*
X223365284Y-62073352D01*
X223364716Y-62723795D01*
X223613106Y-63324943D01*
X223748504Y-63460577D01*
X223722403Y-63486678D01*
X223476366Y-63854898D01*
X223389969Y-64289244D01*
X223389969Y-81830952D01*
X223385564Y-81826539D01*
X222876702Y-81615241D01*
X222325715Y-81614760D01*
X221816485Y-81825169D01*
X221426539Y-82214436D01*
X221215241Y-82723298D01*
X221214760Y-83274285D01*
X221425169Y-83783515D01*
X221814436Y-84173461D01*
X222323298Y-84384759D01*
X222874285Y-84385240D01*
X223383515Y-84174831D01*
X223389969Y-84168388D01*
X223389969Y-85310756D01*
X223476366Y-85745102D01*
X223722403Y-86113322D01*
X223865000Y-86255919D01*
X223865000Y-86359086D01*
X223816371Y-86407630D01*
X223603243Y-86920900D01*
X223602758Y-87476661D01*
X223814990Y-87990303D01*
X224207630Y-88383629D01*
X224720900Y-88596757D01*
X225276661Y-88597242D01*
X225639999Y-88447114D01*
X225639999Y-89883948D01*
X225606799Y-89870162D01*
X225234833Y-89869838D01*
X225113431Y-89920000D01*
X223515005Y-89920000D01*
X223515000Y-89919999D01*
X223176326Y-89987366D01*
X223081054Y-90051025D01*
X222889210Y-90179210D01*
X222889208Y-90179213D01*
X222254210Y-90814210D01*
X222062367Y-91101325D01*
X222062367Y-91101326D01*
X221994999Y-91440000D01*
X221995000Y-91440005D01*
X221995000Y-102409417D01*
X221111210Y-103293206D01*
X221111208Y-103293209D01*
X217374210Y-107030206D01*
X217182367Y-107317321D01*
X217182367Y-107317322D01*
X217114999Y-107655996D01*
X217115000Y-107656001D01*
X217115000Y-125740221D01*
X216920853Y-125869946D01*
X216598946Y-126351715D01*
X216485907Y-126920000D01*
X216598946Y-127488285D01*
X216920853Y-127970054D01*
X217115000Y-128099779D01*
X217115000Y-128280221D01*
X216920853Y-128409946D01*
X216598946Y-128891715D01*
X216485907Y-129460000D01*
X216598946Y-130028285D01*
X216920853Y-130510054D01*
X216962452Y-130537850D01*
X216914683Y-130546838D01*
X216698559Y-130685910D01*
X216553569Y-130898110D01*
X216502560Y-131150000D01*
X216502560Y-132850000D01*
X216546838Y-133085317D01*
X216685910Y-133301441D01*
X216898110Y-133446431D01*
X217150000Y-133497440D01*
X218850000Y-133497440D01*
X219085317Y-133453162D01*
X219301441Y-133314090D01*
X219423808Y-133135000D01*
X224159086Y-133135000D01*
X224207630Y-133183629D01*
X224720900Y-133396757D01*
X225276661Y-133397242D01*
X225790303Y-133185010D01*
X226183629Y-132792370D01*
X226396757Y-132279100D01*
X226397242Y-131723339D01*
X226366940Y-131650000D01*
X228502560Y-131650000D01*
X228502560Y-133350000D01*
X228546838Y-133585317D01*
X228685910Y-133801441D01*
X228898110Y-133946431D01*
X229150000Y-133997440D01*
X230850000Y-133997440D01*
X231085317Y-133953162D01*
X231301441Y-133814090D01*
X231446431Y-133601890D01*
X231497440Y-133350000D01*
X231497440Y-131650000D01*
X231453162Y-131414683D01*
X231314090Y-131198559D01*
X231101890Y-131053569D01*
X230993893Y-131031699D01*
X231271645Y-130726924D01*
X231441476Y-130316890D01*
X231320155Y-130087000D01*
X230127000Y-130087000D01*
X230127000Y-130107000D01*
X229873000Y-130107000D01*
X229873000Y-130087000D01*
X228679845Y-130087000D01*
X228558524Y-130316890D01*
X228728355Y-130726924D01*
X229004501Y-131029937D01*
X228914683Y-131046838D01*
X228698559Y-131185910D01*
X228553569Y-131398110D01*
X228502560Y-131650000D01*
X226366940Y-131650000D01*
X226185010Y-131209697D01*
X225792370Y-130816371D01*
X225279100Y-130603243D01*
X224723339Y-130602758D01*
X224209697Y-130814990D01*
X224159600Y-130865000D01*
X219421192Y-130865000D01*
X219314090Y-130698559D01*
X219101890Y-130553569D01*
X219034459Y-130539914D01*
X219079147Y-130510054D01*
X219401054Y-130028285D01*
X219514093Y-129460000D01*
X219401054Y-128891715D01*
X219079147Y-128409946D01*
X218885000Y-128280221D01*
X218885000Y-128099779D01*
X218952016Y-128055000D01*
X221944000Y-128055000D01*
X222378346Y-127968603D01*
X222746566Y-127722566D01*
X223682566Y-126786566D01*
X223928603Y-126418345D01*
X224015000Y-125984000D01*
X223928603Y-125549655D01*
X223682566Y-125181434D01*
X223314345Y-124935397D01*
X222880000Y-124849000D01*
X222445655Y-124935397D01*
X222077434Y-125181434D01*
X221473868Y-125785000D01*
X218952016Y-125785000D01*
X218885000Y-125740221D01*
X218885000Y-117473000D01*
X229175537Y-117473000D01*
X229207673Y-117505192D01*
X229551201Y-117647838D01*
X229923167Y-117648162D01*
X230266943Y-117506117D01*
X230530192Y-117243327D01*
X230672838Y-116899799D01*
X230673162Y-116527833D01*
X230531117Y-116184057D01*
X230268327Y-115920808D01*
X229924799Y-115778162D01*
X229552833Y-115777838D01*
X229209057Y-115919883D01*
X229175882Y-115953000D01*
X218885000Y-115953000D01*
X218885000Y-109297768D01*
X218964286Y-109377192D01*
X219307814Y-109519838D01*
X219679780Y-109520162D01*
X220023556Y-109378117D01*
X220056731Y-109345000D01*
X227207980Y-109345000D01*
X227498819Y-109287148D01*
X227745381Y-109122401D01*
X229740000Y-107127782D01*
X229740000Y-109500000D01*
X229797852Y-109790839D01*
X229962599Y-110037401D01*
X230462599Y-110537401D01*
X230709161Y-110702148D01*
X230740000Y-110708282D01*
X230740000Y-120937537D01*
X230707808Y-120969673D01*
X230565162Y-121313201D01*
X230564838Y-121685167D01*
X230706883Y-122028943D01*
X230969673Y-122292192D01*
X231313201Y-122434838D01*
X231685167Y-122435162D01*
X232028943Y-122293117D01*
X232292192Y-122030327D01*
X232434838Y-121686799D01*
X232435162Y-121314833D01*
X232293117Y-120971057D01*
X232260000Y-120937882D01*
X232260000Y-110250000D01*
X232217711Y-110037401D01*
X232202148Y-109959160D01*
X232037401Y-109712599D01*
X232026242Y-109701440D01*
X232440040Y-109701440D01*
X232439828Y-109945168D01*
X232581873Y-110288944D01*
X232614990Y-110322119D01*
X232614990Y-122987794D01*
X232478385Y-123124161D01*
X232335739Y-123467689D01*
X232335415Y-123839655D01*
X232477460Y-124183431D01*
X232740250Y-124446680D01*
X233083778Y-124589326D01*
X233455744Y-124589650D01*
X233799520Y-124447605D01*
X234062769Y-124184815D01*
X234205415Y-123841287D01*
X234205739Y-123469321D01*
X234134990Y-123298095D01*
X234134990Y-110322464D01*
X234167182Y-110290328D01*
X234309828Y-109946800D01*
X234310152Y-109574834D01*
X234168107Y-109231058D01*
X234023018Y-109085715D01*
X234029440Y-109054000D01*
X234029440Y-107354000D01*
X233985162Y-107118683D01*
X233846090Y-106902559D01*
X233633890Y-106757569D01*
X233566459Y-106743914D01*
X233611147Y-106714054D01*
X233933054Y-106232285D01*
X234046093Y-105664000D01*
X233933054Y-105095715D01*
X233611147Y-104613946D01*
X233281974Y-104394000D01*
X233611147Y-104174054D01*
X233933054Y-103692285D01*
X234046093Y-103124000D01*
X233933054Y-102555715D01*
X233611147Y-102073946D01*
X233281974Y-101854000D01*
X233611147Y-101634054D01*
X233933054Y-101152285D01*
X234046093Y-100584000D01*
X233933054Y-100015715D01*
X233611147Y-99533946D01*
X233270447Y-99306298D01*
X233413358Y-99239183D01*
X233803645Y-98810924D01*
X233973476Y-98400890D01*
X233852155Y-98171000D01*
X232659000Y-98171000D01*
X232659000Y-98191000D01*
X232405000Y-98191000D01*
X232405000Y-98171000D01*
X232385000Y-98171000D01*
X232385000Y-97917000D01*
X232405000Y-97917000D01*
X232405000Y-96723181D01*
X232659000Y-96723181D01*
X232659000Y-97917000D01*
X233852155Y-97917000D01*
X233973476Y-97687110D01*
X233803645Y-97277076D01*
X233413358Y-96848817D01*
X232888892Y-96602514D01*
X232659000Y-96723181D01*
X232405000Y-96723181D01*
X232175108Y-96602514D01*
X231650642Y-96848817D01*
X231491979Y-97022917D01*
X231491979Y-96537169D01*
X231558337Y-96537227D01*
X231902113Y-96395182D01*
X232165362Y-96132392D01*
X232308008Y-95788864D01*
X232308091Y-95693516D01*
X232375317Y-95592905D01*
X232433169Y-95302066D01*
X232433169Y-93148165D01*
X232402491Y-92993938D01*
X232375317Y-92857325D01*
X232210570Y-92610764D01*
X232109999Y-92510193D01*
X232109999Y-85584879D01*
X232435167Y-85585162D01*
X232778943Y-85443117D01*
X233042192Y-85180327D01*
X233184838Y-84836799D01*
X233185162Y-84464833D01*
X233043117Y-84121057D01*
X233010000Y-84087882D01*
X233010000Y-77950000D01*
X232952148Y-77659161D01*
X232787401Y-77412599D01*
X232609462Y-77234660D01*
X233442619Y-77235387D01*
X234264372Y-76895845D01*
X234315000Y-76845305D01*
X234315000Y-126722926D01*
X234079147Y-126369946D01*
X233597378Y-126048039D01*
X233029093Y-125935000D01*
X232970907Y-125935000D01*
X232402622Y-126048039D01*
X231920853Y-126369946D01*
X231598946Y-126851715D01*
X231500000Y-127349150D01*
X231401054Y-126851715D01*
X231079147Y-126369946D01*
X230597378Y-126048039D01*
X230029093Y-125935000D01*
X229970907Y-125935000D01*
X229402622Y-126048039D01*
X228920853Y-126369946D01*
X228598946Y-126851715D01*
X228485907Y-127420000D01*
X228598946Y-127988285D01*
X228920853Y-128470054D01*
X229261553Y-128697702D01*
X229118642Y-128764817D01*
X228728355Y-129193076D01*
X228558524Y-129603110D01*
X228679845Y-129833000D01*
X229873000Y-129833000D01*
X229873000Y-129813000D01*
X230127000Y-129813000D01*
X230127000Y-129833000D01*
X231320155Y-129833000D01*
X231441476Y-129603110D01*
X231271645Y-129193076D01*
X230881358Y-128764817D01*
X230738447Y-128697702D01*
X231079147Y-128470054D01*
X231401054Y-127988285D01*
X231500000Y-127490850D01*
X231598946Y-127988285D01*
X231920853Y-128470054D01*
X232261553Y-128697702D01*
X232118642Y-128764817D01*
X231728355Y-129193076D01*
X231558524Y-129603110D01*
X231679845Y-129833000D01*
X232873000Y-129833000D01*
X232873000Y-129813000D01*
X233127000Y-129813000D01*
X233127000Y-129833000D01*
X233147000Y-129833000D01*
X233147000Y-130087000D01*
X233127000Y-130087000D01*
X233127000Y-130107000D01*
X232873000Y-130107000D01*
X232873000Y-130087000D01*
X231679845Y-130087000D01*
X231558524Y-130316890D01*
X231728355Y-130726924D01*
X232004501Y-131029937D01*
X231914683Y-131046838D01*
X231698559Y-131185910D01*
X231553569Y-131398110D01*
X231502560Y-131650000D01*
X231502560Y-133350000D01*
X231546838Y-133585317D01*
X231685910Y-133801441D01*
X231898110Y-133946431D01*
X232150000Y-133997440D01*
X233850000Y-133997440D01*
X234085317Y-133953162D01*
X234301441Y-133814090D01*
X234315000Y-133794246D01*
X234315000Y-134315000D01*
X215685000Y-134315000D01*
X215685000Y-76846232D01*
X215732321Y-76893636D01*
X216553481Y-77234611D01*
X217442619Y-77235387D01*
X218264372Y-76895845D01*
X218893636Y-76267679D01*
X219234611Y-75446519D01*
X219235387Y-74557381D01*
X218895845Y-73735628D01*
X218267679Y-73106364D01*
X217446519Y-72765389D01*
X216557381Y-72764613D01*
X215735628Y-73104155D01*
X215685000Y-73154695D01*
X215685000Y-57185167D01*
X217064838Y-57185167D01*
X217206883Y-57528943D01*
X217469673Y-57792192D01*
X217813201Y-57934838D01*
X218185167Y-57935162D01*
X218528943Y-57793117D01*
X218562118Y-57760000D01*
X224437537Y-57760000D01*
X224469673Y-57792192D01*
X224813201Y-57934838D01*
X225185167Y-57935162D01*
X225528943Y-57793117D01*
X225792192Y-57530327D01*
X225934838Y-57186799D01*
X225935162Y-56814833D01*
X225793117Y-56471057D01*
X225530327Y-56207808D01*
X225186799Y-56065162D01*
X224814833Y-56064838D01*
X224471057Y-56206883D01*
X224437882Y-56240000D01*
X218562463Y-56240000D01*
X218530327Y-56207808D01*
X218186799Y-56065162D01*
X217814833Y-56064838D01*
X217471057Y-56206883D01*
X217207808Y-56469673D01*
X217065162Y-56813201D01*
X217064838Y-57185167D01*
X215685000Y-57185167D01*
X215685000Y-55185167D01*
X217064838Y-55185167D01*
X217206883Y-55528943D01*
X217469673Y-55792192D01*
X217813201Y-55934838D01*
X218185167Y-55935162D01*
X218528943Y-55793117D01*
X218792192Y-55530327D01*
X218934838Y-55186799D01*
X218934879Y-55139923D01*
X221139680Y-52935122D01*
X221185167Y-52935162D01*
X221528943Y-52793117D01*
X221792192Y-52530327D01*
X221934838Y-52186799D01*
X221935162Y-51814833D01*
X221793117Y-51471057D01*
X221530327Y-51207808D01*
X221186799Y-51065162D01*
X220814833Y-51064838D01*
X220471057Y-51206883D01*
X220207808Y-51469673D01*
X220065162Y-51813201D01*
X220065121Y-51860077D01*
X217860320Y-54064878D01*
X217814833Y-54064838D01*
X217471057Y-54206883D01*
X217207808Y-54469673D01*
X217065162Y-54813201D01*
X217064838Y-55185167D01*
X215685000Y-55185167D01*
X215685000Y-18752532D01*
X224027073Y-18752532D01*
X224125736Y-19019387D01*
X224735461Y-19245908D01*
X225385460Y-19221856D01*
X225874264Y-19019387D01*
X225972927Y-18752532D01*
X225000000Y-17779605D01*
X224027073Y-18752532D01*
X215685000Y-18752532D01*
X215685000Y-17335461D01*
X223354092Y-17335461D01*
X223378144Y-17985460D01*
X223580613Y-18474264D01*
X223847468Y-18572927D01*
X224820395Y-17600000D01*
X225179605Y-17600000D01*
X226152532Y-18572927D01*
X226419387Y-18474264D01*
X226645908Y-17864539D01*
X226621856Y-17214540D01*
X226419387Y-16725736D01*
X226152532Y-16627073D01*
X225179605Y-17600000D01*
X224820395Y-17600000D01*
X223847468Y-16627073D01*
X223580613Y-16725736D01*
X223354092Y-17335461D01*
X215685000Y-17335461D01*
X215685000Y-16447468D01*
X224027073Y-16447468D01*
X225000000Y-17420395D01*
X225972927Y-16447468D01*
X225874264Y-16180613D01*
X225264539Y-15954092D01*
X224614540Y-15978144D01*
X224125736Y-16180613D01*
X224027073Y-16447468D01*
X215685000Y-16447468D01*
X215685000Y-15685000D01*
X234315000Y-15685000D01*
X234315000Y-51096974D01*
X234315000Y-51096974D01*
G37*
X234315000Y-51096974D02*
X234209698Y-50991673D01*
X233976309Y-50895000D01*
X233285750Y-50895000D01*
X233127000Y-51053750D01*
X233127000Y-52253000D01*
X233147000Y-52253000D01*
X233147000Y-52507000D01*
X233127000Y-52507000D01*
X233127000Y-52527000D01*
X232873000Y-52527000D01*
X232873000Y-52507000D01*
X231673750Y-52507000D01*
X231515000Y-52665750D01*
X231515000Y-53356310D01*
X231611673Y-53589699D01*
X231790302Y-53768327D01*
X231964777Y-53840597D01*
X231920853Y-53869946D01*
X231598946Y-54351715D01*
X231485907Y-54920000D01*
X231598946Y-55488285D01*
X231920853Y-55970054D01*
X232250026Y-56190000D01*
X231920853Y-56409946D01*
X231598946Y-56891715D01*
X231485907Y-57460000D01*
X231598946Y-58028285D01*
X231920853Y-58510054D01*
X232250026Y-58730000D01*
X231920853Y-58949946D01*
X231598946Y-59431715D01*
X231485907Y-60000000D01*
X231558790Y-60366408D01*
X228959989Y-62965209D01*
X228959989Y-51403690D01*
X231515000Y-51403690D01*
X231515000Y-52094250D01*
X231673750Y-52253000D01*
X232873000Y-52253000D01*
X232873000Y-51053750D01*
X232714250Y-50895000D01*
X232023691Y-50895000D01*
X231790302Y-50991673D01*
X231611673Y-51170301D01*
X231515000Y-51403690D01*
X228959989Y-51403690D01*
X228959989Y-34214813D01*
X230839680Y-32335122D01*
X230885167Y-32335162D01*
X231228943Y-32193117D01*
X231492192Y-31930327D01*
X231634838Y-31586799D01*
X231635162Y-31214833D01*
X231493117Y-30871057D01*
X231230327Y-30607808D01*
X230886799Y-30465162D01*
X230514833Y-30464838D01*
X230171057Y-30606883D01*
X229907808Y-30869673D01*
X229765162Y-31213201D01*
X229765121Y-31260077D01*
X227662588Y-33362610D01*
X227497841Y-33609172D01*
X227439989Y-33900011D01*
X227439989Y-62717924D01*
X227180327Y-62457808D01*
X226836799Y-62315162D01*
X226635075Y-62314986D01*
X226635284Y-62076205D01*
X226386894Y-61475057D01*
X225927363Y-61014722D01*
X225326648Y-60765284D01*
X224676205Y-60764716D01*
X224075057Y-61013106D01*
X223614722Y-61472637D01*
X223365284Y-62073352D01*
X223364716Y-62723795D01*
X223613106Y-63324943D01*
X223748504Y-63460577D01*
X223722403Y-63486678D01*
X223476366Y-63854898D01*
X223389969Y-64289244D01*
X223389969Y-81830952D01*
X223385564Y-81826539D01*
X222876702Y-81615241D01*
X222325715Y-81614760D01*
X221816485Y-81825169D01*
X221426539Y-82214436D01*
X221215241Y-82723298D01*
X221214760Y-83274285D01*
X221425169Y-83783515D01*
X221814436Y-84173461D01*
X222323298Y-84384759D01*
X222874285Y-84385240D01*
X223383515Y-84174831D01*
X223389969Y-84168388D01*
X223389969Y-85310756D01*
X223476366Y-85745102D01*
X223722403Y-86113322D01*
X223865000Y-86255919D01*
X223865000Y-86359086D01*
X223816371Y-86407630D01*
X223603243Y-86920900D01*
X223602758Y-87476661D01*
X223814990Y-87990303D01*
X224207630Y-88383629D01*
X224720900Y-88596757D01*
X225276661Y-88597242D01*
X225639999Y-88447114D01*
X225639999Y-89883948D01*
X225606799Y-89870162D01*
X225234833Y-89869838D01*
X225113431Y-89920000D01*
X223515005Y-89920000D01*
X223515000Y-89919999D01*
X223176326Y-89987366D01*
X223081054Y-90051025D01*
X222889210Y-90179210D01*
X222889208Y-90179213D01*
X222254210Y-90814210D01*
X222062367Y-91101325D01*
X222062367Y-91101326D01*
X221994999Y-91440000D01*
X221995000Y-91440005D01*
X221995000Y-102409417D01*
X221111210Y-103293206D01*
X221111208Y-103293209D01*
X217374210Y-107030206D01*
X217182367Y-107317321D01*
X217182367Y-107317322D01*
X217114999Y-107655996D01*
X217115000Y-107656001D01*
X217115000Y-125740221D01*
X216920853Y-125869946D01*
X216598946Y-126351715D01*
X216485907Y-126920000D01*
X216598946Y-127488285D01*
X216920853Y-127970054D01*
X217115000Y-128099779D01*
X217115000Y-128280221D01*
X216920853Y-128409946D01*
X216598946Y-128891715D01*
X216485907Y-129460000D01*
X216598946Y-130028285D01*
X216920853Y-130510054D01*
X216962452Y-130537850D01*
X216914683Y-130546838D01*
X216698559Y-130685910D01*
X216553569Y-130898110D01*
X216502560Y-131150000D01*
X216502560Y-132850000D01*
X216546838Y-133085317D01*
X216685910Y-133301441D01*
X216898110Y-133446431D01*
X217150000Y-133497440D01*
X218850000Y-133497440D01*
X219085317Y-133453162D01*
X219301441Y-133314090D01*
X219423808Y-133135000D01*
X224159086Y-133135000D01*
X224207630Y-133183629D01*
X224720900Y-133396757D01*
X225276661Y-133397242D01*
X225790303Y-133185010D01*
X226183629Y-132792370D01*
X226396757Y-132279100D01*
X226397242Y-131723339D01*
X226366940Y-131650000D01*
X228502560Y-131650000D01*
X228502560Y-133350000D01*
X228546838Y-133585317D01*
X228685910Y-133801441D01*
X228898110Y-133946431D01*
X229150000Y-133997440D01*
X230850000Y-133997440D01*
X231085317Y-133953162D01*
X231301441Y-133814090D01*
X231446431Y-133601890D01*
X231497440Y-133350000D01*
X231497440Y-131650000D01*
X231453162Y-131414683D01*
X231314090Y-131198559D01*
X231101890Y-131053569D01*
X230993893Y-131031699D01*
X231271645Y-130726924D01*
X231441476Y-130316890D01*
X231320155Y-130087000D01*
X230127000Y-130087000D01*
X230127000Y-130107000D01*
X229873000Y-130107000D01*
X229873000Y-130087000D01*
X228679845Y-130087000D01*
X228558524Y-130316890D01*
X228728355Y-130726924D01*
X229004501Y-131029937D01*
X228914683Y-131046838D01*
X228698559Y-131185910D01*
X228553569Y-131398110D01*
X228502560Y-131650000D01*
X226366940Y-131650000D01*
X226185010Y-131209697D01*
X225792370Y-130816371D01*
X225279100Y-130603243D01*
X224723339Y-130602758D01*
X224209697Y-130814990D01*
X224159600Y-130865000D01*
X219421192Y-130865000D01*
X219314090Y-130698559D01*
X219101890Y-130553569D01*
X219034459Y-130539914D01*
X219079147Y-130510054D01*
X219401054Y-130028285D01*
X219514093Y-129460000D01*
X219401054Y-128891715D01*
X219079147Y-128409946D01*
X218885000Y-128280221D01*
X218885000Y-128099779D01*
X218952016Y-128055000D01*
X221944000Y-128055000D01*
X222378346Y-127968603D01*
X222746566Y-127722566D01*
X223682566Y-126786566D01*
X223928603Y-126418345D01*
X224015000Y-125984000D01*
X223928603Y-125549655D01*
X223682566Y-125181434D01*
X223314345Y-124935397D01*
X222880000Y-124849000D01*
X222445655Y-124935397D01*
X222077434Y-125181434D01*
X221473868Y-125785000D01*
X218952016Y-125785000D01*
X218885000Y-125740221D01*
X218885000Y-117473000D01*
X229175537Y-117473000D01*
X229207673Y-117505192D01*
X229551201Y-117647838D01*
X229923167Y-117648162D01*
X230266943Y-117506117D01*
X230530192Y-117243327D01*
X230672838Y-116899799D01*
X230673162Y-116527833D01*
X230531117Y-116184057D01*
X230268327Y-115920808D01*
X229924799Y-115778162D01*
X229552833Y-115777838D01*
X229209057Y-115919883D01*
X229175882Y-115953000D01*
X218885000Y-115953000D01*
X218885000Y-109297768D01*
X218964286Y-109377192D01*
X219307814Y-109519838D01*
X219679780Y-109520162D01*
X220023556Y-109378117D01*
X220056731Y-109345000D01*
X227207980Y-109345000D01*
X227498819Y-109287148D01*
X227745381Y-109122401D01*
X229740000Y-107127782D01*
X229740000Y-109500000D01*
X229797852Y-109790839D01*
X229962599Y-110037401D01*
X230462599Y-110537401D01*
X230709161Y-110702148D01*
X230740000Y-110708282D01*
X230740000Y-120937537D01*
X230707808Y-120969673D01*
X230565162Y-121313201D01*
X230564838Y-121685167D01*
X230706883Y-122028943D01*
X230969673Y-122292192D01*
X231313201Y-122434838D01*
X231685167Y-122435162D01*
X232028943Y-122293117D01*
X232292192Y-122030327D01*
X232434838Y-121686799D01*
X232435162Y-121314833D01*
X232293117Y-120971057D01*
X232260000Y-120937882D01*
X232260000Y-110250000D01*
X232217711Y-110037401D01*
X232202148Y-109959160D01*
X232037401Y-109712599D01*
X232026242Y-109701440D01*
X232440040Y-109701440D01*
X232439828Y-109945168D01*
X232581873Y-110288944D01*
X232614990Y-110322119D01*
X232614990Y-122987794D01*
X232478385Y-123124161D01*
X232335739Y-123467689D01*
X232335415Y-123839655D01*
X232477460Y-124183431D01*
X232740250Y-124446680D01*
X233083778Y-124589326D01*
X233455744Y-124589650D01*
X233799520Y-124447605D01*
X234062769Y-124184815D01*
X234205415Y-123841287D01*
X234205739Y-123469321D01*
X234134990Y-123298095D01*
X234134990Y-110322464D01*
X234167182Y-110290328D01*
X234309828Y-109946800D01*
X234310152Y-109574834D01*
X234168107Y-109231058D01*
X234023018Y-109085715D01*
X234029440Y-109054000D01*
X234029440Y-107354000D01*
X233985162Y-107118683D01*
X233846090Y-106902559D01*
X233633890Y-106757569D01*
X233566459Y-106743914D01*
X233611147Y-106714054D01*
X233933054Y-106232285D01*
X234046093Y-105664000D01*
X233933054Y-105095715D01*
X233611147Y-104613946D01*
X233281974Y-104394000D01*
X233611147Y-104174054D01*
X233933054Y-103692285D01*
X234046093Y-103124000D01*
X233933054Y-102555715D01*
X233611147Y-102073946D01*
X233281974Y-101854000D01*
X233611147Y-101634054D01*
X233933054Y-101152285D01*
X234046093Y-100584000D01*
X233933054Y-100015715D01*
X233611147Y-99533946D01*
X233270447Y-99306298D01*
X233413358Y-99239183D01*
X233803645Y-98810924D01*
X233973476Y-98400890D01*
X233852155Y-98171000D01*
X232659000Y-98171000D01*
X232659000Y-98191000D01*
X232405000Y-98191000D01*
X232405000Y-98171000D01*
X232385000Y-98171000D01*
X232385000Y-97917000D01*
X232405000Y-97917000D01*
X232405000Y-96723181D01*
X232659000Y-96723181D01*
X232659000Y-97917000D01*
X233852155Y-97917000D01*
X233973476Y-97687110D01*
X233803645Y-97277076D01*
X233413358Y-96848817D01*
X232888892Y-96602514D01*
X232659000Y-96723181D01*
X232405000Y-96723181D01*
X232175108Y-96602514D01*
X231650642Y-96848817D01*
X231491979Y-97022917D01*
X231491979Y-96537169D01*
X231558337Y-96537227D01*
X231902113Y-96395182D01*
X232165362Y-96132392D01*
X232308008Y-95788864D01*
X232308091Y-95693516D01*
X232375317Y-95592905D01*
X232433169Y-95302066D01*
X232433169Y-93148165D01*
X232402491Y-92993938D01*
X232375317Y-92857325D01*
X232210570Y-92610764D01*
X232109999Y-92510193D01*
X232109999Y-85584879D01*
X232435167Y-85585162D01*
X232778943Y-85443117D01*
X233042192Y-85180327D01*
X233184838Y-84836799D01*
X233185162Y-84464833D01*
X233043117Y-84121057D01*
X233010000Y-84087882D01*
X233010000Y-77950000D01*
X232952148Y-77659161D01*
X232787401Y-77412599D01*
X232609462Y-77234660D01*
X233442619Y-77235387D01*
X234264372Y-76895845D01*
X234315000Y-76845305D01*
X234315000Y-126722926D01*
X234079147Y-126369946D01*
X233597378Y-126048039D01*
X233029093Y-125935000D01*
X232970907Y-125935000D01*
X232402622Y-126048039D01*
X231920853Y-126369946D01*
X231598946Y-126851715D01*
X231500000Y-127349150D01*
X231401054Y-126851715D01*
X231079147Y-126369946D01*
X230597378Y-126048039D01*
X230029093Y-125935000D01*
X229970907Y-125935000D01*
X229402622Y-126048039D01*
X228920853Y-126369946D01*
X228598946Y-126851715D01*
X228485907Y-127420000D01*
X228598946Y-127988285D01*
X228920853Y-128470054D01*
X229261553Y-128697702D01*
X229118642Y-128764817D01*
X228728355Y-129193076D01*
X228558524Y-129603110D01*
X228679845Y-129833000D01*
X229873000Y-129833000D01*
X229873000Y-129813000D01*
X230127000Y-129813000D01*
X230127000Y-129833000D01*
X231320155Y-129833000D01*
X231441476Y-129603110D01*
X231271645Y-129193076D01*
X230881358Y-128764817D01*
X230738447Y-128697702D01*
X231079147Y-128470054D01*
X231401054Y-127988285D01*
X231500000Y-127490850D01*
X231598946Y-127988285D01*
X231920853Y-128470054D01*
X232261553Y-128697702D01*
X232118642Y-128764817D01*
X231728355Y-129193076D01*
X231558524Y-129603110D01*
X231679845Y-129833000D01*
X232873000Y-129833000D01*
X232873000Y-129813000D01*
X233127000Y-129813000D01*
X233127000Y-129833000D01*
X233147000Y-129833000D01*
X233147000Y-130087000D01*
X233127000Y-130087000D01*
X233127000Y-130107000D01*
X232873000Y-130107000D01*
X232873000Y-130087000D01*
X231679845Y-130087000D01*
X231558524Y-130316890D01*
X231728355Y-130726924D01*
X232004501Y-131029937D01*
X231914683Y-131046838D01*
X231698559Y-131185910D01*
X231553569Y-131398110D01*
X231502560Y-131650000D01*
X231502560Y-133350000D01*
X231546838Y-133585317D01*
X231685910Y-133801441D01*
X231898110Y-133946431D01*
X232150000Y-133997440D01*
X233850000Y-133997440D01*
X234085317Y-133953162D01*
X234301441Y-133814090D01*
X234315000Y-133794246D01*
X234315000Y-134315000D01*
X215685000Y-134315000D01*
X215685000Y-76846232D01*
X215732321Y-76893636D01*
X216553481Y-77234611D01*
X217442619Y-77235387D01*
X218264372Y-76895845D01*
X218893636Y-76267679D01*
X219234611Y-75446519D01*
X219235387Y-74557381D01*
X218895845Y-73735628D01*
X218267679Y-73106364D01*
X217446519Y-72765389D01*
X216557381Y-72764613D01*
X215735628Y-73104155D01*
X215685000Y-73154695D01*
X215685000Y-57185167D01*
X217064838Y-57185167D01*
X217206883Y-57528943D01*
X217469673Y-57792192D01*
X217813201Y-57934838D01*
X218185167Y-57935162D01*
X218528943Y-57793117D01*
X218562118Y-57760000D01*
X224437537Y-57760000D01*
X224469673Y-57792192D01*
X224813201Y-57934838D01*
X225185167Y-57935162D01*
X225528943Y-57793117D01*
X225792192Y-57530327D01*
X225934838Y-57186799D01*
X225935162Y-56814833D01*
X225793117Y-56471057D01*
X225530327Y-56207808D01*
X225186799Y-56065162D01*
X224814833Y-56064838D01*
X224471057Y-56206883D01*
X224437882Y-56240000D01*
X218562463Y-56240000D01*
X218530327Y-56207808D01*
X218186799Y-56065162D01*
X217814833Y-56064838D01*
X217471057Y-56206883D01*
X217207808Y-56469673D01*
X217065162Y-56813201D01*
X217064838Y-57185167D01*
X215685000Y-57185167D01*
X215685000Y-55185167D01*
X217064838Y-55185167D01*
X217206883Y-55528943D01*
X217469673Y-55792192D01*
X217813201Y-55934838D01*
X218185167Y-55935162D01*
X218528943Y-55793117D01*
X218792192Y-55530327D01*
X218934838Y-55186799D01*
X218934879Y-55139923D01*
X221139680Y-52935122D01*
X221185167Y-52935162D01*
X221528943Y-52793117D01*
X221792192Y-52530327D01*
X221934838Y-52186799D01*
X221935162Y-51814833D01*
X221793117Y-51471057D01*
X221530327Y-51207808D01*
X221186799Y-51065162D01*
X220814833Y-51064838D01*
X220471057Y-51206883D01*
X220207808Y-51469673D01*
X220065162Y-51813201D01*
X220065121Y-51860077D01*
X217860320Y-54064878D01*
X217814833Y-54064838D01*
X217471057Y-54206883D01*
X217207808Y-54469673D01*
X217065162Y-54813201D01*
X217064838Y-55185167D01*
X215685000Y-55185167D01*
X215685000Y-18752532D01*
X224027073Y-18752532D01*
X224125736Y-19019387D01*
X224735461Y-19245908D01*
X225385460Y-19221856D01*
X225874264Y-19019387D01*
X225972927Y-18752532D01*
X225000000Y-17779605D01*
X224027073Y-18752532D01*
X215685000Y-18752532D01*
X215685000Y-17335461D01*
X223354092Y-17335461D01*
X223378144Y-17985460D01*
X223580613Y-18474264D01*
X223847468Y-18572927D01*
X224820395Y-17600000D01*
X225179605Y-17600000D01*
X226152532Y-18572927D01*
X226419387Y-18474264D01*
X226645908Y-17864539D01*
X226621856Y-17214540D01*
X226419387Y-16725736D01*
X226152532Y-16627073D01*
X225179605Y-17600000D01*
X224820395Y-17600000D01*
X223847468Y-16627073D01*
X223580613Y-16725736D01*
X223354092Y-17335461D01*
X215685000Y-17335461D01*
X215685000Y-16447468D01*
X224027073Y-16447468D01*
X225000000Y-17420395D01*
X225972927Y-16447468D01*
X225874264Y-16180613D01*
X225264539Y-15954092D01*
X224614540Y-15978144D01*
X224125736Y-16180613D01*
X224027073Y-16447468D01*
X215685000Y-16447468D01*
X215685000Y-15685000D01*
X234315000Y-15685000D01*
X234315000Y-51096974D01*
G36*
X227439989Y-77036399D02*
X227497841Y-77327238D01*
X227662588Y-77573800D01*
X227783331Y-77694543D01*
X227557808Y-77919673D01*
X227415162Y-78263201D01*
X227414838Y-78635167D01*
X227556883Y-78978943D01*
X227819673Y-79242192D01*
X228163201Y-79384838D01*
X228210077Y-79384879D01*
X229039991Y-80214793D01*
X229039991Y-92323793D01*
X228996440Y-92367344D01*
X228831693Y-92613906D01*
X228773841Y-92904745D01*
X228773841Y-94223624D01*
X228831693Y-94514463D01*
X228996440Y-94761025D01*
X229971979Y-95736564D01*
X229971979Y-98345568D01*
X230027763Y-98626011D01*
X229878015Y-98687885D01*
X229614766Y-98950675D01*
X229472120Y-99294203D01*
X229472037Y-99389551D01*
X229404811Y-99490162D01*
X229346959Y-99781001D01*
X229346959Y-100694777D01*
X229404811Y-100985616D01*
X229569558Y-101232178D01*
X229740000Y-101402620D01*
X229740000Y-104982882D01*
X229689813Y-104982838D01*
X229346037Y-105124883D01*
X229082788Y-105387673D01*
X228940142Y-105731201D01*
X228940101Y-105778077D01*
X228778114Y-105940064D01*
X228778320Y-105703822D01*
X228636275Y-105360046D01*
X228603158Y-105326871D01*
X228603158Y-84934160D01*
X228545306Y-84643321D01*
X228380559Y-84396759D01*
X228195145Y-84211345D01*
X228283515Y-84174831D01*
X228673461Y-83785564D01*
X228884759Y-83276702D01*
X228885240Y-82725715D01*
X228674831Y-82216485D01*
X228285564Y-81826539D01*
X227776702Y-81615241D01*
X227225715Y-81614760D01*
X227184999Y-81631583D01*
X227184999Y-73187462D01*
X227217191Y-73155326D01*
X227359837Y-72811798D01*
X227360161Y-72439832D01*
X227218116Y-72096056D01*
X226955326Y-71832807D01*
X226611798Y-71690161D01*
X226559991Y-71690116D01*
X226559991Y-69064811D01*
X226789680Y-68835122D01*
X226835167Y-68835162D01*
X227178943Y-68693117D01*
X227439989Y-68432526D01*
X227439989Y-77036399D01*
X227439989Y-77036399D01*
G37*
X227439989Y-77036399D02*
X227497841Y-77327238D01*
X227662588Y-77573800D01*
X227783331Y-77694543D01*
X227557808Y-77919673D01*
X227415162Y-78263201D01*
X227414838Y-78635167D01*
X227556883Y-78978943D01*
X227819673Y-79242192D01*
X228163201Y-79384838D01*
X228210077Y-79384879D01*
X229039991Y-80214793D01*
X229039991Y-92323793D01*
X228996440Y-92367344D01*
X228831693Y-92613906D01*
X228773841Y-92904745D01*
X228773841Y-94223624D01*
X228831693Y-94514463D01*
X228996440Y-94761025D01*
X229971979Y-95736564D01*
X229971979Y-98345568D01*
X230027763Y-98626011D01*
X229878015Y-98687885D01*
X229614766Y-98950675D01*
X229472120Y-99294203D01*
X229472037Y-99389551D01*
X229404811Y-99490162D01*
X229346959Y-99781001D01*
X229346959Y-100694777D01*
X229404811Y-100985616D01*
X229569558Y-101232178D01*
X229740000Y-101402620D01*
X229740000Y-104982882D01*
X229689813Y-104982838D01*
X229346037Y-105124883D01*
X229082788Y-105387673D01*
X228940142Y-105731201D01*
X228940101Y-105778077D01*
X228778114Y-105940064D01*
X228778320Y-105703822D01*
X228636275Y-105360046D01*
X228603158Y-105326871D01*
X228603158Y-84934160D01*
X228545306Y-84643321D01*
X228380559Y-84396759D01*
X228195145Y-84211345D01*
X228283515Y-84174831D01*
X228673461Y-83785564D01*
X228884759Y-83276702D01*
X228885240Y-82725715D01*
X228674831Y-82216485D01*
X228285564Y-81826539D01*
X227776702Y-81615241D01*
X227225715Y-81614760D01*
X227184999Y-81631583D01*
X227184999Y-73187462D01*
X227217191Y-73155326D01*
X227359837Y-72811798D01*
X227360161Y-72439832D01*
X227218116Y-72096056D01*
X226955326Y-71832807D01*
X226611798Y-71690161D01*
X226559991Y-71690116D01*
X226559991Y-69064811D01*
X226789680Y-68835122D01*
X226835167Y-68835162D01*
X227178943Y-68693117D01*
X227439989Y-68432526D01*
X227439989Y-77036399D01*
M02*
