M48
;DRILL file {KiCad 4.0.2-stable} date 2017/04/01 13:55:01
;FORMAT={-:-/ absolute / metric / decimal}
FMAT,2
METRIC,TZ
T1C0.400
T2C0.762
T3C0.800
T4C1.000
T5C1.200
T6C3.000
%
G90
G05
M71
T1
X178.Y-55.
X178.Y-57.
X179.495Y-108.585
X181.Y-52.
X181.Y-93.
X181.17Y-106.621
X182.88Y-106.621
X183.105Y-103.721
X183.75Y-92.807
X185.Y-57.
X185.42Y-90.805
X185.975Y-104.7
X186.425Y-72.625
X186.65Y-63.25
X186.65Y-67.9
X186.775Y-104.701
X187.843Y-105.889
X188.35Y-78.45
X189.05Y-90.9
X189.05Y-104.
X189.05Y-123.55
X189.738Y-116.713
X189.875Y-105.918
X190.09Y-114.59
X190.159Y-93.924
X190.407Y-99.481
X190.7Y-31.4
X190.732Y-100.25
X190.826Y-93.483
X191.373Y-95.602
X191.5Y-121.5
X192.25Y-84.65
X192.9Y-70.9
X193.271Y-123.654
X193.375Y-109.76
X194.Y-81.
X198.Y-55.
X198.Y-57.
X199.495Y-108.585
X201.Y-52.
X201.Y-93.
X201.17Y-106.621
X202.88Y-106.621
X203.105Y-103.721
X203.75Y-92.807
X205.Y-57.
X205.42Y-90.805
X205.975Y-104.7
X206.425Y-72.625
X206.65Y-63.25
X206.65Y-67.9
X206.775Y-104.701
X207.843Y-105.889
X208.35Y-78.45
X209.05Y-90.9
X209.05Y-104.
X209.05Y-123.55
X209.738Y-116.713
X209.875Y-105.918
X210.09Y-114.59
X210.159Y-93.924
X210.407Y-99.481
X210.7Y-31.4
X210.732Y-100.25
X210.826Y-93.483
X211.373Y-95.602
X211.5Y-121.5
X212.25Y-84.65
X212.9Y-70.9
X213.271Y-123.654
X213.375Y-109.76
X214.Y-81.
X218.Y-55.
X218.Y-57.
X219.495Y-108.585
X221.Y-52.
X221.Y-93.
X221.17Y-106.621
X222.88Y-106.621
X223.105Y-103.721
X223.75Y-92.807
X225.Y-57.
X225.42Y-90.805
X225.975Y-104.7
X226.425Y-72.625
X226.65Y-63.25
X226.65Y-67.9
X226.775Y-104.701
X227.843Y-105.889
X228.35Y-78.45
X229.05Y-90.9
X229.05Y-104.
X229.05Y-123.55
X229.738Y-116.713
X229.875Y-105.918
X230.09Y-114.59
X230.159Y-93.924
X230.407Y-99.481
X230.7Y-31.4
X230.732Y-100.25
X230.826Y-93.483
X231.373Y-95.602
X231.5Y-121.5
X232.25Y-84.65
X232.9Y-70.9
X233.271Y-123.654
X233.375Y-109.76
X234.Y-81.
T2
X185.Y-87.2
X185.Y-132.
X205.Y-87.2
X205.Y-132.
X225.Y-87.2
X225.Y-132.
T3
X182.6Y-83.
X187.5Y-83.
X202.6Y-83.
X207.5Y-83.
X222.6Y-83.
X227.5Y-83.
T4
X178.Y-126.92
X178.Y-129.46
X178.Y-132.
X190.Y-127.42
X190.Y-129.96
X190.Y-132.5
X192.532Y-98.044
X192.532Y-100.584
X192.532Y-103.124
X192.532Y-105.664
X192.532Y-108.204
X193.Y-52.38
X193.Y-54.92
X193.Y-57.46
X193.Y-60.
X193.Y-62.54
X193.Y-65.08
X193.Y-127.42
X193.Y-129.96
X193.Y-132.5
X198.Y-126.92
X198.Y-129.46
X198.Y-132.
X210.Y-127.42
X210.Y-129.96
X210.Y-132.5
X212.532Y-98.044
X212.532Y-100.584
X212.532Y-103.124
X212.532Y-105.664
X212.532Y-108.204
X213.Y-52.38
X213.Y-54.92
X213.Y-57.46
X213.Y-60.
X213.Y-62.54
X213.Y-65.08
X213.Y-127.42
X213.Y-129.96
X213.Y-132.5
X218.Y-126.92
X218.Y-129.46
X218.Y-132.
X230.Y-127.42
X230.Y-129.96
X230.Y-132.5
X232.532Y-98.044
X232.532Y-100.584
X232.532Y-103.124
X232.532Y-105.664
X232.532Y-108.204
X233.Y-52.38
X233.Y-54.92
X233.Y-57.46
X233.Y-60.
X233.Y-62.54
X233.Y-65.08
X233.Y-127.42
X233.Y-129.96
X233.Y-132.5
T5
X185.Y-17.6
X185.Y-62.4
X205.Y-17.6
X205.Y-62.4
X225.Y-17.6
X225.Y-62.4
T6
X177.Y-75.
X193.Y-75.
X197.Y-75.
X213.Y-75.
X217.Y-75.
X233.Y-75.
T0
M30
