G04 #@! TF.FileFunction,Legend,Top*
%FSLAX46Y46*%
G04 Gerber Fmt 4.6, Leading zero omitted, Abs format (unit mm)*
G04 Created by KiCad (PCBNEW 4.0.0-rc2-stable) date 2017/04/01 15:23:39*
%MOMM*%
G01*
G04 APERTURE LIST*
%ADD10C,0.100000*%
%ADD11C,0.150000*%
%ADD12C,0.120000*%
%ADD13C,0.180000*%
G04 APERTURE END LIST*
D10*
D11*
X228625000Y-94625000D02*
X228400000Y-94625000D01*
X228625000Y-101875000D02*
X228300000Y-101875000D01*
X221375000Y-101875000D02*
X221700000Y-101875000D01*
X221375000Y-94625000D02*
X221700000Y-94625000D01*
X228625000Y-94625000D02*
X228625000Y-94950000D01*
X221375000Y-94625000D02*
X221375000Y-94950000D01*
X221375000Y-101875000D02*
X221375000Y-101550000D01*
X228625000Y-101875000D02*
X228625000Y-101550000D01*
X228400000Y-94625000D02*
X228400000Y-93200000D01*
D12*
X224100000Y-92675000D02*
X223400000Y-92675000D01*
X223400000Y-91475000D02*
X224100000Y-91475000D01*
X228175000Y-80475000D02*
G75*
G02X228175000Y-85525000I0J-2525000D01*
G01*
X221925000Y-80475000D02*
G75*
G03X221925000Y-85525000I0J-2525000D01*
G01*
X228175000Y-85525000D02*
X221925000Y-85525000D01*
X228175000Y-80475000D02*
X221925000Y-80475000D01*
X220900000Y-91400000D02*
X221600000Y-91400000D01*
X221600000Y-92600000D02*
X220900000Y-92600000D01*
X225900000Y-91400000D02*
X226600000Y-91400000D01*
X226600000Y-92600000D02*
X225900000Y-92600000D01*
D13*
X217131000Y-113390000D02*
X217131000Y-119890000D01*
X216981000Y-113390000D02*
X217131000Y-113390000D01*
X216781000Y-113190000D02*
X216981000Y-113390000D01*
X216781000Y-113190000D02*
X216781000Y-111440000D01*
X217131000Y-119890000D02*
X216781000Y-120390000D01*
X216781000Y-120390000D02*
X216781000Y-122590000D01*
X229331000Y-110390000D02*
X232931000Y-110390000D01*
X222931000Y-110390000D02*
X227731000Y-110390000D01*
X219781000Y-110390000D02*
X221731000Y-110390000D01*
X232931000Y-110390000D02*
X232931000Y-110890000D01*
X232931000Y-124240000D02*
X232931000Y-122340000D01*
X218881000Y-124240000D02*
X232931000Y-124240000D01*
X216981000Y-122790000D02*
X216981000Y-123140000D01*
X216981000Y-111240000D02*
X216781000Y-111440000D01*
X216981000Y-122790000D02*
X216781000Y-122590000D01*
D12*
X231390000Y-131230000D02*
X231390000Y-126030000D01*
X231390000Y-126030000D02*
X228610000Y-126030000D01*
X228610000Y-126030000D02*
X228610000Y-131230000D01*
X228610000Y-131230000D02*
X231390000Y-131230000D01*
X231390000Y-132500000D02*
X231390000Y-133890000D01*
X231390000Y-133890000D02*
X230000000Y-133890000D01*
X219390000Y-130730000D02*
X219390000Y-125530000D01*
X219390000Y-125530000D02*
X216610000Y-125530000D01*
X216610000Y-125530000D02*
X216610000Y-130730000D01*
X216610000Y-130730000D02*
X219390000Y-130730000D01*
X219390000Y-132000000D02*
X219390000Y-133390000D01*
X219390000Y-133390000D02*
X218000000Y-133390000D01*
X227120000Y-76600000D02*
X227120000Y-75400000D01*
X228880000Y-75400000D02*
X228880000Y-76600000D01*
X227120000Y-71600000D02*
X227120000Y-70400000D01*
X228880000Y-70400000D02*
X228880000Y-71600000D01*
X227120000Y-66600000D02*
X227120000Y-65400000D01*
X228880000Y-65400000D02*
X228880000Y-66600000D01*
X232400000Y-69100000D02*
X232400000Y-68400000D01*
X233600000Y-68400000D02*
X233600000Y-69100000D01*
X223200000Y-74300000D02*
X223200000Y-75700000D01*
X223200000Y-75700000D02*
X226000000Y-75700000D01*
X223200000Y-74300000D02*
X226000000Y-74300000D01*
X223200000Y-69300000D02*
X223200000Y-70700000D01*
X223200000Y-70700000D02*
X226000000Y-70700000D01*
X223200000Y-69300000D02*
X226000000Y-69300000D01*
X233862000Y-106934000D02*
X233862000Y-96714000D01*
X233862000Y-96714000D02*
X231202000Y-96714000D01*
X231202000Y-96714000D02*
X231202000Y-106934000D01*
X231202000Y-106934000D02*
X233862000Y-106934000D01*
X233862000Y-108204000D02*
X233862000Y-109534000D01*
X233862000Y-109534000D02*
X232532000Y-109534000D01*
X232350000Y-93120000D02*
X233550000Y-93120000D01*
X233550000Y-94880000D02*
X232350000Y-94880000D01*
X232950000Y-91200000D02*
X233050000Y-91200000D01*
X231450000Y-86800000D02*
X231450000Y-91200000D01*
X234550000Y-91200000D02*
X234550000Y-86800000D01*
X232950000Y-86800000D02*
X233050000Y-86800000D01*
X223200000Y-49300000D02*
X223200000Y-50700000D01*
X223200000Y-50700000D02*
X226000000Y-50700000D01*
X223200000Y-49300000D02*
X226000000Y-49300000D01*
X227120000Y-51600000D02*
X227120000Y-50400000D01*
X228880000Y-50400000D02*
X228880000Y-51600000D01*
X223200000Y-54300000D02*
X223200000Y-55700000D01*
X223200000Y-55700000D02*
X226000000Y-55700000D01*
X223200000Y-54300000D02*
X226000000Y-54300000D01*
X227120000Y-56600000D02*
X227120000Y-55400000D01*
X228880000Y-55400000D02*
X228880000Y-56600000D01*
X231670000Y-53650000D02*
X231670000Y-66410000D01*
X231670000Y-66410000D02*
X234330000Y-66410000D01*
X234330000Y-66410000D02*
X234330000Y-53650000D01*
X234330000Y-53650000D02*
X231670000Y-53650000D01*
X231670000Y-52380000D02*
X231670000Y-51050000D01*
X231670000Y-51050000D02*
X233000000Y-51050000D01*
X223200000Y-64300000D02*
X223200000Y-65700000D01*
X223200000Y-65700000D02*
X226000000Y-65700000D01*
X223200000Y-64300000D02*
X226000000Y-64300000D01*
X223200000Y-59300000D02*
X223200000Y-60700000D01*
X223200000Y-60700000D02*
X226000000Y-60700000D01*
X223200000Y-59300000D02*
X226000000Y-59300000D01*
X227120000Y-61600000D02*
X227120000Y-60400000D01*
X228880000Y-60400000D02*
X228880000Y-61600000D01*
X223200000Y-34300000D02*
X223200000Y-35700000D01*
X223200000Y-35700000D02*
X226000000Y-35700000D01*
X223200000Y-34300000D02*
X226000000Y-34300000D01*
X223200000Y-29300000D02*
X223200000Y-30700000D01*
X223200000Y-30700000D02*
X226000000Y-30700000D01*
X223200000Y-29300000D02*
X226000000Y-29300000D01*
X229350000Y-35880000D02*
X228150000Y-35880000D01*
X228150000Y-34120000D02*
X229350000Y-34120000D01*
X229400000Y-30880000D02*
X228200000Y-30880000D01*
X228200000Y-29120000D02*
X229400000Y-29120000D01*
X229400000Y-45880000D02*
X228200000Y-45880000D01*
X228200000Y-44120000D02*
X229400000Y-44120000D01*
X223200000Y-44300000D02*
X223200000Y-45700000D01*
X223200000Y-45700000D02*
X226000000Y-45700000D01*
X223200000Y-44300000D02*
X226000000Y-44300000D01*
X223200000Y-39300000D02*
X223200000Y-40700000D01*
X223200000Y-40700000D02*
X226000000Y-40700000D01*
X223200000Y-39300000D02*
X226000000Y-39300000D01*
X229400000Y-40880000D02*
X228200000Y-40880000D01*
X228200000Y-39120000D02*
X229400000Y-39120000D01*
X229350000Y-20880000D02*
X228150000Y-20880000D01*
X228150000Y-19120000D02*
X229350000Y-19120000D01*
X223200000Y-24300000D02*
X223200000Y-25700000D01*
X223200000Y-25700000D02*
X226000000Y-25700000D01*
X223200000Y-24300000D02*
X226000000Y-24300000D01*
X223200000Y-19300000D02*
X223200000Y-20700000D01*
X223200000Y-20700000D02*
X226000000Y-20700000D01*
X223200000Y-19300000D02*
X226000000Y-19300000D01*
X229350000Y-25880000D02*
X228150000Y-25880000D01*
X228150000Y-24120000D02*
X229350000Y-24120000D01*
X203200000Y-69300000D02*
X203200000Y-70700000D01*
X203200000Y-70700000D02*
X206000000Y-70700000D01*
X203200000Y-69300000D02*
X206000000Y-69300000D01*
X207120000Y-71600000D02*
X207120000Y-70400000D01*
X208880000Y-70400000D02*
X208880000Y-71600000D01*
X203200000Y-74300000D02*
X203200000Y-75700000D01*
X203200000Y-75700000D02*
X206000000Y-75700000D01*
X203200000Y-74300000D02*
X206000000Y-74300000D01*
X212400000Y-69100000D02*
X212400000Y-68400000D01*
X213600000Y-68400000D02*
X213600000Y-69100000D01*
X203200000Y-64300000D02*
X203200000Y-65700000D01*
X203200000Y-65700000D02*
X206000000Y-65700000D01*
X203200000Y-64300000D02*
X206000000Y-64300000D01*
X207120000Y-66600000D02*
X207120000Y-65400000D01*
X208880000Y-65400000D02*
X208880000Y-66600000D01*
X207120000Y-76600000D02*
X207120000Y-75400000D01*
X208880000Y-75400000D02*
X208880000Y-76600000D01*
X209400000Y-40880000D02*
X208200000Y-40880000D01*
X208200000Y-39120000D02*
X209400000Y-39120000D01*
X203200000Y-49300000D02*
X203200000Y-50700000D01*
X203200000Y-50700000D02*
X206000000Y-50700000D01*
X203200000Y-49300000D02*
X206000000Y-49300000D01*
X203200000Y-39300000D02*
X203200000Y-40700000D01*
X203200000Y-40700000D02*
X206000000Y-40700000D01*
X203200000Y-39300000D02*
X206000000Y-39300000D01*
X203200000Y-44300000D02*
X203200000Y-45700000D01*
X203200000Y-45700000D02*
X206000000Y-45700000D01*
X203200000Y-44300000D02*
X206000000Y-44300000D01*
X209400000Y-45880000D02*
X208200000Y-45880000D01*
X208200000Y-44120000D02*
X209400000Y-44120000D01*
X207120000Y-61600000D02*
X207120000Y-60400000D01*
X208880000Y-60400000D02*
X208880000Y-61600000D01*
X211670000Y-53650000D02*
X211670000Y-66410000D01*
X211670000Y-66410000D02*
X214330000Y-66410000D01*
X214330000Y-66410000D02*
X214330000Y-53650000D01*
X214330000Y-53650000D02*
X211670000Y-53650000D01*
X211670000Y-52380000D02*
X211670000Y-51050000D01*
X211670000Y-51050000D02*
X213000000Y-51050000D01*
X207120000Y-56600000D02*
X207120000Y-55400000D01*
X208880000Y-55400000D02*
X208880000Y-56600000D01*
X203200000Y-59300000D02*
X203200000Y-60700000D01*
X203200000Y-60700000D02*
X206000000Y-60700000D01*
X203200000Y-59300000D02*
X206000000Y-59300000D01*
X207120000Y-51600000D02*
X207120000Y-50400000D01*
X208880000Y-50400000D02*
X208880000Y-51600000D01*
X203200000Y-54300000D02*
X203200000Y-55700000D01*
X203200000Y-55700000D02*
X206000000Y-55700000D01*
X203200000Y-54300000D02*
X206000000Y-54300000D01*
X209350000Y-25880000D02*
X208150000Y-25880000D01*
X208150000Y-24120000D02*
X209350000Y-24120000D01*
X209400000Y-30880000D02*
X208200000Y-30880000D01*
X208200000Y-29120000D02*
X209400000Y-29120000D01*
X209350000Y-35880000D02*
X208150000Y-35880000D01*
X208150000Y-34120000D02*
X209350000Y-34120000D01*
X203200000Y-29300000D02*
X203200000Y-30700000D01*
X203200000Y-30700000D02*
X206000000Y-30700000D01*
X203200000Y-29300000D02*
X206000000Y-29300000D01*
X203200000Y-34300000D02*
X203200000Y-35700000D01*
X203200000Y-35700000D02*
X206000000Y-35700000D01*
X203200000Y-34300000D02*
X206000000Y-34300000D01*
X203200000Y-19300000D02*
X203200000Y-20700000D01*
X203200000Y-20700000D02*
X206000000Y-20700000D01*
X203200000Y-19300000D02*
X206000000Y-19300000D01*
X209350000Y-20880000D02*
X208150000Y-20880000D01*
X208150000Y-19120000D02*
X209350000Y-19120000D01*
X203200000Y-24300000D02*
X203200000Y-25700000D01*
X203200000Y-25700000D02*
X206000000Y-25700000D01*
X203200000Y-24300000D02*
X206000000Y-24300000D01*
X212950000Y-91200000D02*
X213050000Y-91200000D01*
X211450000Y-86800000D02*
X211450000Y-91200000D01*
X214550000Y-91200000D02*
X214550000Y-86800000D01*
X212950000Y-86800000D02*
X213050000Y-86800000D01*
X208175000Y-80475000D02*
G75*
G02X208175000Y-85525000I0J-2525000D01*
G01*
X201925000Y-80475000D02*
G75*
G03X201925000Y-85525000I0J-2525000D01*
G01*
X208175000Y-85525000D02*
X201925000Y-85525000D01*
X208175000Y-80475000D02*
X201925000Y-80475000D01*
X200900000Y-91400000D02*
X201600000Y-91400000D01*
X201600000Y-92600000D02*
X200900000Y-92600000D01*
X204100000Y-92675000D02*
X203400000Y-92675000D01*
X203400000Y-91475000D02*
X204100000Y-91475000D01*
X205900000Y-91400000D02*
X206600000Y-91400000D01*
X206600000Y-92600000D02*
X205900000Y-92600000D01*
X199390000Y-130730000D02*
X199390000Y-125530000D01*
X199390000Y-125530000D02*
X196610000Y-125530000D01*
X196610000Y-125530000D02*
X196610000Y-130730000D01*
X196610000Y-130730000D02*
X199390000Y-130730000D01*
X199390000Y-132000000D02*
X199390000Y-133390000D01*
X199390000Y-133390000D02*
X198000000Y-133390000D01*
X213862000Y-106934000D02*
X213862000Y-96714000D01*
X213862000Y-96714000D02*
X211202000Y-96714000D01*
X211202000Y-96714000D02*
X211202000Y-106934000D01*
X211202000Y-106934000D02*
X213862000Y-106934000D01*
X213862000Y-108204000D02*
X213862000Y-109534000D01*
X213862000Y-109534000D02*
X212532000Y-109534000D01*
D13*
X197131000Y-113390000D02*
X197131000Y-119890000D01*
X196981000Y-113390000D02*
X197131000Y-113390000D01*
X196781000Y-113190000D02*
X196981000Y-113390000D01*
X196781000Y-113190000D02*
X196781000Y-111440000D01*
X197131000Y-119890000D02*
X196781000Y-120390000D01*
X196781000Y-120390000D02*
X196781000Y-122590000D01*
X209331000Y-110390000D02*
X212931000Y-110390000D01*
X202931000Y-110390000D02*
X207731000Y-110390000D01*
X199781000Y-110390000D02*
X201731000Y-110390000D01*
X212931000Y-110390000D02*
X212931000Y-110890000D01*
X212931000Y-124240000D02*
X212931000Y-122340000D01*
X198881000Y-124240000D02*
X212931000Y-124240000D01*
X196981000Y-122790000D02*
X196981000Y-123140000D01*
X196981000Y-111240000D02*
X196781000Y-111440000D01*
X196981000Y-122790000D02*
X196781000Y-122590000D01*
D12*
X212350000Y-93120000D02*
X213550000Y-93120000D01*
X213550000Y-94880000D02*
X212350000Y-94880000D01*
D11*
X208625000Y-94625000D02*
X208400000Y-94625000D01*
X208625000Y-101875000D02*
X208300000Y-101875000D01*
X201375000Y-101875000D02*
X201700000Y-101875000D01*
X201375000Y-94625000D02*
X201700000Y-94625000D01*
X208625000Y-94625000D02*
X208625000Y-94950000D01*
X201375000Y-94625000D02*
X201375000Y-94950000D01*
X201375000Y-101875000D02*
X201375000Y-101550000D01*
X208625000Y-101875000D02*
X208625000Y-101550000D01*
X208400000Y-94625000D02*
X208400000Y-93200000D01*
D12*
X211390000Y-131230000D02*
X211390000Y-126030000D01*
X211390000Y-126030000D02*
X208610000Y-126030000D01*
X208610000Y-126030000D02*
X208610000Y-131230000D01*
X208610000Y-131230000D02*
X211390000Y-131230000D01*
X211390000Y-132500000D02*
X211390000Y-133890000D01*
X211390000Y-133890000D02*
X210000000Y-133890000D01*
X193862000Y-106934000D02*
X193862000Y-96714000D01*
X193862000Y-96714000D02*
X191202000Y-96714000D01*
X191202000Y-96714000D02*
X191202000Y-106934000D01*
X191202000Y-106934000D02*
X193862000Y-106934000D01*
X193862000Y-108204000D02*
X193862000Y-109534000D01*
X193862000Y-109534000D02*
X192532000Y-109534000D01*
D13*
X177131000Y-113390000D02*
X177131000Y-119890000D01*
X176981000Y-113390000D02*
X177131000Y-113390000D01*
X176781000Y-113190000D02*
X176981000Y-113390000D01*
X176781000Y-113190000D02*
X176781000Y-111440000D01*
X177131000Y-119890000D02*
X176781000Y-120390000D01*
X176781000Y-120390000D02*
X176781000Y-122590000D01*
X189331000Y-110390000D02*
X192931000Y-110390000D01*
X182931000Y-110390000D02*
X187731000Y-110390000D01*
X179781000Y-110390000D02*
X181731000Y-110390000D01*
X192931000Y-110390000D02*
X192931000Y-110890000D01*
X192931000Y-124240000D02*
X192931000Y-122340000D01*
X178881000Y-124240000D02*
X192931000Y-124240000D01*
X176981000Y-122790000D02*
X176981000Y-123140000D01*
X176981000Y-111240000D02*
X176781000Y-111440000D01*
X176981000Y-122790000D02*
X176781000Y-122590000D01*
D12*
X185900000Y-91400000D02*
X186600000Y-91400000D01*
X186600000Y-92600000D02*
X185900000Y-92600000D01*
X184100000Y-92675000D02*
X183400000Y-92675000D01*
X183400000Y-91475000D02*
X184100000Y-91475000D01*
X180900000Y-91400000D02*
X181600000Y-91400000D01*
X181600000Y-92600000D02*
X180900000Y-92600000D01*
X183200000Y-19300000D02*
X183200000Y-20700000D01*
X183200000Y-20700000D02*
X186000000Y-20700000D01*
X183200000Y-19300000D02*
X186000000Y-19300000D01*
X183200000Y-24300000D02*
X183200000Y-25700000D01*
X183200000Y-25700000D02*
X186000000Y-25700000D01*
X183200000Y-24300000D02*
X186000000Y-24300000D01*
X183200000Y-29300000D02*
X183200000Y-30700000D01*
X183200000Y-30700000D02*
X186000000Y-30700000D01*
X183200000Y-29300000D02*
X186000000Y-29300000D01*
X183200000Y-34300000D02*
X183200000Y-35700000D01*
X183200000Y-35700000D02*
X186000000Y-35700000D01*
X183200000Y-34300000D02*
X186000000Y-34300000D01*
X183200000Y-39300000D02*
X183200000Y-40700000D01*
X183200000Y-40700000D02*
X186000000Y-40700000D01*
X183200000Y-39300000D02*
X186000000Y-39300000D01*
X183200000Y-44300000D02*
X183200000Y-45700000D01*
X183200000Y-45700000D02*
X186000000Y-45700000D01*
X183200000Y-44300000D02*
X186000000Y-44300000D01*
X183200000Y-49300000D02*
X183200000Y-50700000D01*
X183200000Y-50700000D02*
X186000000Y-50700000D01*
X183200000Y-49300000D02*
X186000000Y-49300000D01*
X183200000Y-54300000D02*
X183200000Y-55700000D01*
X183200000Y-55700000D02*
X186000000Y-55700000D01*
X183200000Y-54300000D02*
X186000000Y-54300000D01*
X183200000Y-59300000D02*
X183200000Y-60700000D01*
X183200000Y-60700000D02*
X186000000Y-60700000D01*
X183200000Y-59300000D02*
X186000000Y-59300000D01*
X183200000Y-64300000D02*
X183200000Y-65700000D01*
X183200000Y-65700000D02*
X186000000Y-65700000D01*
X183200000Y-64300000D02*
X186000000Y-64300000D01*
X183200000Y-69300000D02*
X183200000Y-70700000D01*
X183200000Y-70700000D02*
X186000000Y-70700000D01*
X183200000Y-69300000D02*
X186000000Y-69300000D01*
X183200000Y-74300000D02*
X183200000Y-75700000D01*
X183200000Y-75700000D02*
X186000000Y-75700000D01*
X183200000Y-74300000D02*
X186000000Y-74300000D01*
D11*
X188625000Y-94625000D02*
X188400000Y-94625000D01*
X188625000Y-101875000D02*
X188300000Y-101875000D01*
X181375000Y-101875000D02*
X181700000Y-101875000D01*
X181375000Y-94625000D02*
X181700000Y-94625000D01*
X188625000Y-94625000D02*
X188625000Y-94950000D01*
X181375000Y-94625000D02*
X181375000Y-94950000D01*
X181375000Y-101875000D02*
X181375000Y-101550000D01*
X188625000Y-101875000D02*
X188625000Y-101550000D01*
X188400000Y-94625000D02*
X188400000Y-93200000D01*
D12*
X191390000Y-131230000D02*
X191390000Y-126030000D01*
X191390000Y-126030000D02*
X188610000Y-126030000D01*
X188610000Y-126030000D02*
X188610000Y-131230000D01*
X188610000Y-131230000D02*
X191390000Y-131230000D01*
X191390000Y-132500000D02*
X191390000Y-133890000D01*
X191390000Y-133890000D02*
X190000000Y-133890000D01*
X179390000Y-130730000D02*
X179390000Y-125530000D01*
X179390000Y-125530000D02*
X176610000Y-125530000D01*
X176610000Y-125530000D02*
X176610000Y-130730000D01*
X176610000Y-130730000D02*
X179390000Y-130730000D01*
X179390000Y-132000000D02*
X179390000Y-133390000D01*
X179390000Y-133390000D02*
X178000000Y-133390000D01*
X189350000Y-20880000D02*
X188150000Y-20880000D01*
X188150000Y-19120000D02*
X189350000Y-19120000D01*
X189350000Y-25880000D02*
X188150000Y-25880000D01*
X188150000Y-24120000D02*
X189350000Y-24120000D01*
X189400000Y-30880000D02*
X188200000Y-30880000D01*
X188200000Y-29120000D02*
X189400000Y-29120000D01*
X189350000Y-35880000D02*
X188150000Y-35880000D01*
X188150000Y-34120000D02*
X189350000Y-34120000D01*
X189400000Y-40880000D02*
X188200000Y-40880000D01*
X188200000Y-39120000D02*
X189400000Y-39120000D01*
X189400000Y-45880000D02*
X188200000Y-45880000D01*
X188200000Y-44120000D02*
X189400000Y-44120000D01*
X187120000Y-51600000D02*
X187120000Y-50400000D01*
X188880000Y-50400000D02*
X188880000Y-51600000D01*
X187120000Y-56600000D02*
X187120000Y-55400000D01*
X188880000Y-55400000D02*
X188880000Y-56600000D01*
X187120000Y-61600000D02*
X187120000Y-60400000D01*
X188880000Y-60400000D02*
X188880000Y-61600000D01*
X187120000Y-66600000D02*
X187120000Y-65400000D01*
X188880000Y-65400000D02*
X188880000Y-66600000D01*
X187120000Y-71600000D02*
X187120000Y-70400000D01*
X188880000Y-70400000D02*
X188880000Y-71600000D01*
X187120000Y-76600000D02*
X187120000Y-75400000D01*
X188880000Y-75400000D02*
X188880000Y-76600000D01*
X192350000Y-93120000D02*
X193550000Y-93120000D01*
X193550000Y-94880000D02*
X192350000Y-94880000D01*
X192950000Y-91200000D02*
X193050000Y-91200000D01*
X191450000Y-86800000D02*
X191450000Y-91200000D01*
X194550000Y-91200000D02*
X194550000Y-86800000D01*
X192950000Y-86800000D02*
X193050000Y-86800000D01*
X188175000Y-80475000D02*
G75*
G02X188175000Y-85525000I0J-2525000D01*
G01*
X181925000Y-80475000D02*
G75*
G03X181925000Y-85525000I0J-2525000D01*
G01*
X188175000Y-85525000D02*
X181925000Y-85525000D01*
X188175000Y-80475000D02*
X181925000Y-80475000D01*
X192400000Y-69100000D02*
X192400000Y-68400000D01*
X193600000Y-68400000D02*
X193600000Y-69100000D01*
X191670000Y-53650000D02*
X191670000Y-66410000D01*
X191670000Y-66410000D02*
X194330000Y-66410000D01*
X194330000Y-66410000D02*
X194330000Y-53650000D01*
X194330000Y-53650000D02*
X191670000Y-53650000D01*
X191670000Y-52380000D02*
X191670000Y-51050000D01*
X191670000Y-51050000D02*
X193000000Y-51050000D01*
D11*
X221476190Y-105166667D02*
X221952381Y-105166667D01*
X221380952Y-105452381D02*
X221714285Y-104452381D01*
X222047619Y-105452381D01*
X222238095Y-104452381D02*
X222809524Y-104452381D01*
X222523809Y-105452381D02*
X222523809Y-104452381D01*
X223142857Y-105452381D02*
X223142857Y-104452381D01*
X223476191Y-105166667D01*
X223809524Y-104452381D01*
X223809524Y-105452381D01*
X224285714Y-104928571D02*
X224619048Y-104928571D01*
X224761905Y-105452381D02*
X224285714Y-105452381D01*
X224285714Y-104452381D01*
X224761905Y-104452381D01*
X225714286Y-104500000D02*
X225619048Y-104452381D01*
X225476191Y-104452381D01*
X225333333Y-104500000D01*
X225238095Y-104595238D01*
X225190476Y-104690476D01*
X225142857Y-104880952D01*
X225142857Y-105023810D01*
X225190476Y-105214286D01*
X225238095Y-105309524D01*
X225333333Y-105404762D01*
X225476191Y-105452381D01*
X225571429Y-105452381D01*
X225714286Y-105404762D01*
X225761905Y-105357143D01*
X225761905Y-105023810D01*
X225571429Y-105023810D01*
X226142857Y-105166667D02*
X226619048Y-105166667D01*
X226047619Y-105452381D02*
X226380952Y-104452381D01*
X226714286Y-105452381D01*
X226952381Y-104452381D02*
X227571429Y-104452381D01*
X227238095Y-104833333D01*
X227380953Y-104833333D01*
X227476191Y-104880952D01*
X227523810Y-104928571D01*
X227571429Y-105023810D01*
X227571429Y-105261905D01*
X227523810Y-105357143D01*
X227476191Y-105404762D01*
X227380953Y-105452381D01*
X227095238Y-105452381D01*
X227000000Y-105404762D01*
X226952381Y-105357143D01*
X228142857Y-104880952D02*
X228047619Y-104833333D01*
X228000000Y-104785714D01*
X227952381Y-104690476D01*
X227952381Y-104642857D01*
X228000000Y-104547619D01*
X228047619Y-104500000D01*
X228142857Y-104452381D01*
X228333334Y-104452381D01*
X228428572Y-104500000D01*
X228476191Y-104547619D01*
X228523810Y-104642857D01*
X228523810Y-104690476D01*
X228476191Y-104785714D01*
X228428572Y-104833333D01*
X228333334Y-104880952D01*
X228142857Y-104880952D01*
X228047619Y-104928571D01*
X228000000Y-104976190D01*
X227952381Y-105071429D01*
X227952381Y-105261905D01*
X228000000Y-105357143D01*
X228047619Y-105404762D01*
X228142857Y-105452381D01*
X228333334Y-105452381D01*
X228428572Y-105404762D01*
X228476191Y-105357143D01*
X228523810Y-105261905D01*
X228523810Y-105071429D01*
X228476191Y-104976190D01*
X228428572Y-104928571D01*
X228333334Y-104880952D01*
X223583334Y-90857143D02*
X223535715Y-90904762D01*
X223392858Y-90952381D01*
X223297620Y-90952381D01*
X223154762Y-90904762D01*
X223059524Y-90809524D01*
X223011905Y-90714286D01*
X222964286Y-90523810D01*
X222964286Y-90380952D01*
X223011905Y-90190476D01*
X223059524Y-90095238D01*
X223154762Y-90000000D01*
X223297620Y-89952381D01*
X223392858Y-89952381D01*
X223535715Y-90000000D01*
X223583334Y-90047619D01*
X223964286Y-90047619D02*
X224011905Y-90000000D01*
X224107143Y-89952381D01*
X224345239Y-89952381D01*
X224440477Y-90000000D01*
X224488096Y-90047619D01*
X224535715Y-90142857D01*
X224535715Y-90238095D01*
X224488096Y-90380952D01*
X223916667Y-90952381D01*
X224535715Y-90952381D01*
X224573809Y-86501190D02*
X224573809Y-86977381D01*
X224240476Y-85977381D02*
X224573809Y-86501190D01*
X224907143Y-85977381D01*
X225764286Y-86977381D02*
X225192857Y-86977381D01*
X225478571Y-86977381D02*
X225478571Y-85977381D01*
X225383333Y-86120238D01*
X225288095Y-86215476D01*
X225192857Y-86263095D01*
X221083334Y-90857143D02*
X221035715Y-90904762D01*
X220892858Y-90952381D01*
X220797620Y-90952381D01*
X220654762Y-90904762D01*
X220559524Y-90809524D01*
X220511905Y-90714286D01*
X220464286Y-90523810D01*
X220464286Y-90380952D01*
X220511905Y-90190476D01*
X220559524Y-90095238D01*
X220654762Y-90000000D01*
X220797620Y-89952381D01*
X220892858Y-89952381D01*
X221035715Y-90000000D01*
X221083334Y-90047619D01*
X221416667Y-89952381D02*
X222035715Y-89952381D01*
X221702381Y-90333333D01*
X221845239Y-90333333D01*
X221940477Y-90380952D01*
X221988096Y-90428571D01*
X222035715Y-90523810D01*
X222035715Y-90761905D01*
X221988096Y-90857143D01*
X221940477Y-90904762D01*
X221845239Y-90952381D01*
X221559524Y-90952381D01*
X221464286Y-90904762D01*
X221416667Y-90857143D01*
X226083334Y-90857143D02*
X226035715Y-90904762D01*
X225892858Y-90952381D01*
X225797620Y-90952381D01*
X225654762Y-90904762D01*
X225559524Y-90809524D01*
X225511905Y-90714286D01*
X225464286Y-90523810D01*
X225464286Y-90380952D01*
X225511905Y-90190476D01*
X225559524Y-90095238D01*
X225654762Y-90000000D01*
X225797620Y-89952381D01*
X225892858Y-89952381D01*
X226035715Y-90000000D01*
X226083334Y-90047619D01*
X227035715Y-90952381D02*
X226464286Y-90952381D01*
X226750000Y-90952381D02*
X226750000Y-89952381D01*
X226654762Y-90095238D01*
X226559524Y-90190476D01*
X226464286Y-90238095D01*
D13*
X221285714Y-125952381D02*
X221285714Y-124952381D01*
X221619048Y-125666667D01*
X221952381Y-124952381D01*
X221952381Y-125952381D01*
X222428571Y-125952381D02*
X222428571Y-125285714D01*
X222428571Y-124952381D02*
X222380952Y-125000000D01*
X222428571Y-125047619D01*
X222476190Y-125000000D01*
X222428571Y-124952381D01*
X222428571Y-125047619D01*
X223333333Y-125904762D02*
X223238095Y-125952381D01*
X223047618Y-125952381D01*
X222952380Y-125904762D01*
X222904761Y-125857143D01*
X222857142Y-125761905D01*
X222857142Y-125476190D01*
X222904761Y-125380952D01*
X222952380Y-125333333D01*
X223047618Y-125285714D01*
X223238095Y-125285714D01*
X223333333Y-125333333D01*
X223761904Y-125952381D02*
X223761904Y-125285714D01*
X223761904Y-125476190D02*
X223809523Y-125380952D01*
X223857142Y-125333333D01*
X223952380Y-125285714D01*
X224047619Y-125285714D01*
X224523809Y-125952381D02*
X224428571Y-125904762D01*
X224380952Y-125857143D01*
X224333333Y-125761905D01*
X224333333Y-125476190D01*
X224380952Y-125380952D01*
X224428571Y-125333333D01*
X224523809Y-125285714D01*
X224666667Y-125285714D01*
X224761905Y-125333333D01*
X224809524Y-125380952D01*
X224857143Y-125476190D01*
X224857143Y-125761905D01*
X224809524Y-125857143D01*
X224761905Y-125904762D01*
X224666667Y-125952381D01*
X224523809Y-125952381D01*
X225238095Y-125904762D02*
X225380952Y-125952381D01*
X225619048Y-125952381D01*
X225714286Y-125904762D01*
X225761905Y-125857143D01*
X225809524Y-125761905D01*
X225809524Y-125666667D01*
X225761905Y-125571429D01*
X225714286Y-125523810D01*
X225619048Y-125476190D01*
X225428571Y-125428571D01*
X225333333Y-125380952D01*
X225285714Y-125333333D01*
X225238095Y-125238095D01*
X225238095Y-125142857D01*
X225285714Y-125047619D01*
X225333333Y-125000000D01*
X225428571Y-124952381D01*
X225666667Y-124952381D01*
X225809524Y-125000000D01*
X226238095Y-125952381D02*
X226238095Y-124952381D01*
X226476190Y-124952381D01*
X226619048Y-125000000D01*
X226714286Y-125095238D01*
X226761905Y-125190476D01*
X226809524Y-125380952D01*
X226809524Y-125523810D01*
X226761905Y-125714286D01*
X226714286Y-125809524D01*
X226619048Y-125904762D01*
X226476190Y-125952381D01*
X226238095Y-125952381D01*
D11*
X233452381Y-132666667D02*
X232452381Y-132666667D01*
X232928571Y-132666667D02*
X232928571Y-132095238D01*
X233452381Y-132095238D02*
X232452381Y-132095238D01*
X232452381Y-131428572D02*
X232452381Y-131238095D01*
X232500000Y-131142857D01*
X232595238Y-131047619D01*
X232785714Y-131000000D01*
X233119048Y-131000000D01*
X233309524Y-131047619D01*
X233404762Y-131142857D01*
X233452381Y-131238095D01*
X233452381Y-131428572D01*
X233404762Y-131523810D01*
X233309524Y-131619048D01*
X233119048Y-131666667D01*
X232785714Y-131666667D01*
X232595238Y-131619048D01*
X232500000Y-131523810D01*
X232452381Y-131428572D01*
X233452381Y-130095238D02*
X233452381Y-130571429D01*
X232452381Y-130571429D01*
X232928571Y-129761905D02*
X232928571Y-129428571D01*
X233452381Y-129285714D02*
X233452381Y-129761905D01*
X232452381Y-129761905D01*
X232452381Y-129285714D01*
X220452381Y-132619048D02*
X220452381Y-132428571D01*
X220500000Y-132333333D01*
X220595238Y-132238095D01*
X220785714Y-132190476D01*
X221119048Y-132190476D01*
X221309524Y-132238095D01*
X221404762Y-132333333D01*
X221452381Y-132428571D01*
X221452381Y-132619048D01*
X221404762Y-132714286D01*
X221309524Y-132809524D01*
X221119048Y-132857143D01*
X220785714Y-132857143D01*
X220595238Y-132809524D01*
X220500000Y-132714286D01*
X220452381Y-132619048D01*
X221452381Y-131761905D02*
X220452381Y-131761905D01*
X221452381Y-131190476D01*
X220452381Y-131190476D01*
X221071429Y-130714286D02*
X221071429Y-129952381D01*
X220452381Y-129285715D02*
X220452381Y-129095238D01*
X220500000Y-129000000D01*
X220595238Y-128904762D01*
X220785714Y-128857143D01*
X221119048Y-128857143D01*
X221309524Y-128904762D01*
X221404762Y-129000000D01*
X221452381Y-129095238D01*
X221452381Y-129285715D01*
X221404762Y-129380953D01*
X221309524Y-129476191D01*
X221119048Y-129523810D01*
X220785714Y-129523810D01*
X220595238Y-129476191D01*
X220500000Y-129380953D01*
X220452381Y-129285715D01*
X220928571Y-128095238D02*
X220928571Y-128428572D01*
X221452381Y-128428572D02*
X220452381Y-128428572D01*
X220452381Y-127952381D01*
X220928571Y-127238095D02*
X220928571Y-127571429D01*
X221452381Y-127571429D02*
X220452381Y-127571429D01*
X220452381Y-127095238D01*
X230102381Y-76642857D02*
X229626190Y-76976191D01*
X230102381Y-77214286D02*
X229102381Y-77214286D01*
X229102381Y-76833333D01*
X229150000Y-76738095D01*
X229197619Y-76690476D01*
X229292857Y-76642857D01*
X229435714Y-76642857D01*
X229530952Y-76690476D01*
X229578571Y-76738095D01*
X229626190Y-76833333D01*
X229626190Y-77214286D01*
X230102381Y-75690476D02*
X230102381Y-76261905D01*
X230102381Y-75976191D02*
X229102381Y-75976191D01*
X229245238Y-76071429D01*
X229340476Y-76166667D01*
X229388095Y-76261905D01*
X229197619Y-75309524D02*
X229150000Y-75261905D01*
X229102381Y-75166667D01*
X229102381Y-74928571D01*
X229150000Y-74833333D01*
X229197619Y-74785714D01*
X229292857Y-74738095D01*
X229388095Y-74738095D01*
X229530952Y-74785714D01*
X230102381Y-75357143D01*
X230102381Y-74738095D01*
X230102381Y-71642857D02*
X229626190Y-71976191D01*
X230102381Y-72214286D02*
X229102381Y-72214286D01*
X229102381Y-71833333D01*
X229150000Y-71738095D01*
X229197619Y-71690476D01*
X229292857Y-71642857D01*
X229435714Y-71642857D01*
X229530952Y-71690476D01*
X229578571Y-71738095D01*
X229626190Y-71833333D01*
X229626190Y-72214286D01*
X230102381Y-70690476D02*
X230102381Y-71261905D01*
X230102381Y-70976191D02*
X229102381Y-70976191D01*
X229245238Y-71071429D01*
X229340476Y-71166667D01*
X229388095Y-71261905D01*
X230102381Y-69738095D02*
X230102381Y-70309524D01*
X230102381Y-70023810D02*
X229102381Y-70023810D01*
X229245238Y-70119048D01*
X229340476Y-70214286D01*
X229388095Y-70309524D01*
X230102381Y-66642857D02*
X229626190Y-66976191D01*
X230102381Y-67214286D02*
X229102381Y-67214286D01*
X229102381Y-66833333D01*
X229150000Y-66738095D01*
X229197619Y-66690476D01*
X229292857Y-66642857D01*
X229435714Y-66642857D01*
X229530952Y-66690476D01*
X229578571Y-66738095D01*
X229626190Y-66833333D01*
X229626190Y-67214286D01*
X230102381Y-65690476D02*
X230102381Y-66261905D01*
X230102381Y-65976191D02*
X229102381Y-65976191D01*
X229245238Y-66071429D01*
X229340476Y-66166667D01*
X229388095Y-66261905D01*
X229102381Y-65071429D02*
X229102381Y-64976190D01*
X229150000Y-64880952D01*
X229197619Y-64833333D01*
X229292857Y-64785714D01*
X229483333Y-64738095D01*
X229721429Y-64738095D01*
X229911905Y-64785714D01*
X230007143Y-64833333D01*
X230054762Y-64880952D01*
X230102381Y-64976190D01*
X230102381Y-65071429D01*
X230054762Y-65166667D01*
X230007143Y-65214286D01*
X229911905Y-65261905D01*
X229721429Y-65309524D01*
X229483333Y-65309524D01*
X229292857Y-65261905D01*
X229197619Y-65214286D01*
X229150000Y-65166667D01*
X229102381Y-65071429D01*
X231857143Y-68916666D02*
X231904762Y-68964285D01*
X231952381Y-69107142D01*
X231952381Y-69202380D01*
X231904762Y-69345238D01*
X231809524Y-69440476D01*
X231714286Y-69488095D01*
X231523810Y-69535714D01*
X231380952Y-69535714D01*
X231190476Y-69488095D01*
X231095238Y-69440476D01*
X231000000Y-69345238D01*
X230952381Y-69202380D01*
X230952381Y-69107142D01*
X231000000Y-68964285D01*
X231047619Y-68916666D01*
X231285714Y-68059523D02*
X231952381Y-68059523D01*
X230904762Y-68297619D02*
X231619048Y-68535714D01*
X231619048Y-67916666D01*
X220235714Y-75617381D02*
X220235714Y-74617381D01*
X220473809Y-74617381D01*
X220616667Y-74665000D01*
X220711905Y-74760238D01*
X220759524Y-74855476D01*
X220807143Y-75045952D01*
X220807143Y-75188810D01*
X220759524Y-75379286D01*
X220711905Y-75474524D01*
X220616667Y-75569762D01*
X220473809Y-75617381D01*
X220235714Y-75617381D01*
X221759524Y-75617381D02*
X221188095Y-75617381D01*
X221473809Y-75617381D02*
X221473809Y-74617381D01*
X221378571Y-74760238D01*
X221283333Y-74855476D01*
X221188095Y-74903095D01*
X222140476Y-74712619D02*
X222188095Y-74665000D01*
X222283333Y-74617381D01*
X222521429Y-74617381D01*
X222616667Y-74665000D01*
X222664286Y-74712619D01*
X222711905Y-74807857D01*
X222711905Y-74903095D01*
X222664286Y-75045952D01*
X222092857Y-75617381D01*
X222711905Y-75617381D01*
X220362714Y-70458381D02*
X220362714Y-69458381D01*
X220600809Y-69458381D01*
X220743667Y-69506000D01*
X220838905Y-69601238D01*
X220886524Y-69696476D01*
X220934143Y-69886952D01*
X220934143Y-70029810D01*
X220886524Y-70220286D01*
X220838905Y-70315524D01*
X220743667Y-70410762D01*
X220600809Y-70458381D01*
X220362714Y-70458381D01*
X221886524Y-70458381D02*
X221315095Y-70458381D01*
X221600809Y-70458381D02*
X221600809Y-69458381D01*
X221505571Y-69601238D01*
X221410333Y-69696476D01*
X221315095Y-69744095D01*
X222838905Y-70458381D02*
X222267476Y-70458381D01*
X222553190Y-70458381D02*
X222553190Y-69458381D01*
X222457952Y-69601238D01*
X222362714Y-69696476D01*
X222267476Y-69744095D01*
X225000000Y-108166667D02*
X225476191Y-108166667D01*
X224904762Y-108452381D02*
X225238095Y-107452381D01*
X225571429Y-108452381D01*
X225761905Y-107452381D02*
X226095238Y-108452381D01*
X226428572Y-107452381D01*
X227333334Y-108452381D02*
X227000000Y-107976190D01*
X226761905Y-108452381D02*
X226761905Y-107452381D01*
X227142858Y-107452381D01*
X227238096Y-107500000D01*
X227285715Y-107547619D01*
X227333334Y-107642857D01*
X227333334Y-107785714D01*
X227285715Y-107880952D01*
X227238096Y-107928571D01*
X227142858Y-107976190D01*
X226761905Y-107976190D01*
X227761905Y-108071429D02*
X228523810Y-108071429D01*
X229000000Y-108452381D02*
X229000000Y-107452381D01*
X229428571Y-108404762D02*
X229571428Y-108452381D01*
X229809524Y-108452381D01*
X229904762Y-108404762D01*
X229952381Y-108357143D01*
X230000000Y-108261905D01*
X230000000Y-108166667D01*
X229952381Y-108071429D01*
X229904762Y-108023810D01*
X229809524Y-107976190D01*
X229619047Y-107928571D01*
X229523809Y-107880952D01*
X229476190Y-107833333D01*
X229428571Y-107738095D01*
X229428571Y-107642857D01*
X229476190Y-107547619D01*
X229523809Y-107500000D01*
X229619047Y-107452381D01*
X229857143Y-107452381D01*
X230000000Y-107500000D01*
X230428571Y-108452381D02*
X230428571Y-107452381D01*
X230809524Y-107452381D01*
X230904762Y-107500000D01*
X230952381Y-107547619D01*
X231000000Y-107642857D01*
X231000000Y-107785714D01*
X230952381Y-107880952D01*
X230904762Y-107928571D01*
X230809524Y-107976190D01*
X230428571Y-107976190D01*
X232307143Y-96102381D02*
X231973809Y-95626190D01*
X231735714Y-96102381D02*
X231735714Y-95102381D01*
X232116667Y-95102381D01*
X232211905Y-95150000D01*
X232259524Y-95197619D01*
X232307143Y-95292857D01*
X232307143Y-95435714D01*
X232259524Y-95530952D01*
X232211905Y-95578571D01*
X232116667Y-95626190D01*
X231735714Y-95626190D01*
X233259524Y-96102381D02*
X232688095Y-96102381D01*
X232973809Y-96102381D02*
X232973809Y-95102381D01*
X232878571Y-95245238D01*
X232783333Y-95340476D01*
X232688095Y-95388095D01*
X233592857Y-95102381D02*
X234211905Y-95102381D01*
X233878571Y-95483333D01*
X234021429Y-95483333D01*
X234116667Y-95530952D01*
X234164286Y-95578571D01*
X234211905Y-95673810D01*
X234211905Y-95911905D01*
X234164286Y-96007143D01*
X234116667Y-96054762D01*
X234021429Y-96102381D01*
X233735714Y-96102381D01*
X233640476Y-96054762D01*
X233592857Y-96007143D01*
X234452381Y-85452381D02*
X233976190Y-85785715D01*
X234452381Y-86023810D02*
X233452381Y-86023810D01*
X233452381Y-85642857D01*
X233500000Y-85547619D01*
X233547619Y-85500000D01*
X233642857Y-85452381D01*
X233785714Y-85452381D01*
X233880952Y-85500000D01*
X233928571Y-85547619D01*
X233976190Y-85642857D01*
X233976190Y-86023810D01*
X233928571Y-85023810D02*
X233928571Y-84690476D01*
X234452381Y-84547619D02*
X234452381Y-85023810D01*
X233452381Y-85023810D01*
X233452381Y-84547619D01*
X234404762Y-84166667D02*
X234452381Y-84023810D01*
X234452381Y-83785714D01*
X234404762Y-83690476D01*
X234357143Y-83642857D01*
X234261905Y-83595238D01*
X234166667Y-83595238D01*
X234071429Y-83642857D01*
X234023810Y-83690476D01*
X233976190Y-83785714D01*
X233928571Y-83976191D01*
X233880952Y-84071429D01*
X233833333Y-84119048D01*
X233738095Y-84166667D01*
X233642857Y-84166667D01*
X233547619Y-84119048D01*
X233500000Y-84071429D01*
X233452381Y-83976191D01*
X233452381Y-83738095D01*
X233500000Y-83595238D01*
X233928571Y-83166667D02*
X233928571Y-82833333D01*
X234452381Y-82690476D02*
X234452381Y-83166667D01*
X233452381Y-83166667D01*
X233452381Y-82690476D01*
X233452381Y-82404762D02*
X233452381Y-81833333D01*
X234452381Y-82119048D02*
X233452381Y-82119048D01*
X221261905Y-50452381D02*
X221261905Y-49452381D01*
X221500000Y-49452381D01*
X221642858Y-49500000D01*
X221738096Y-49595238D01*
X221785715Y-49690476D01*
X221833334Y-49880952D01*
X221833334Y-50023810D01*
X221785715Y-50214286D01*
X221738096Y-50309524D01*
X221642858Y-50404762D01*
X221500000Y-50452381D01*
X221261905Y-50452381D01*
X222166667Y-49452381D02*
X222833334Y-49452381D01*
X222404762Y-50452381D01*
X230102381Y-51166666D02*
X229626190Y-51500000D01*
X230102381Y-51738095D02*
X229102381Y-51738095D01*
X229102381Y-51357142D01*
X229150000Y-51261904D01*
X229197619Y-51214285D01*
X229292857Y-51166666D01*
X229435714Y-51166666D01*
X229530952Y-51214285D01*
X229578571Y-51261904D01*
X229626190Y-51357142D01*
X229626190Y-51738095D01*
X229102381Y-50833333D02*
X229102381Y-50166666D01*
X230102381Y-50595238D01*
X221261905Y-55452381D02*
X221261905Y-54452381D01*
X221500000Y-54452381D01*
X221642858Y-54500000D01*
X221738096Y-54595238D01*
X221785715Y-54690476D01*
X221833334Y-54880952D01*
X221833334Y-55023810D01*
X221785715Y-55214286D01*
X221738096Y-55309524D01*
X221642858Y-55404762D01*
X221500000Y-55452381D01*
X221261905Y-55452381D01*
X222404762Y-54880952D02*
X222309524Y-54833333D01*
X222261905Y-54785714D01*
X222214286Y-54690476D01*
X222214286Y-54642857D01*
X222261905Y-54547619D01*
X222309524Y-54500000D01*
X222404762Y-54452381D01*
X222595239Y-54452381D01*
X222690477Y-54500000D01*
X222738096Y-54547619D01*
X222785715Y-54642857D01*
X222785715Y-54690476D01*
X222738096Y-54785714D01*
X222690477Y-54833333D01*
X222595239Y-54880952D01*
X222404762Y-54880952D01*
X222309524Y-54928571D01*
X222261905Y-54976190D01*
X222214286Y-55071429D01*
X222214286Y-55261905D01*
X222261905Y-55357143D01*
X222309524Y-55404762D01*
X222404762Y-55452381D01*
X222595239Y-55452381D01*
X222690477Y-55404762D01*
X222738096Y-55357143D01*
X222785715Y-55261905D01*
X222785715Y-55071429D01*
X222738096Y-54976190D01*
X222690477Y-54928571D01*
X222595239Y-54880952D01*
X230102381Y-56166666D02*
X229626190Y-56500000D01*
X230102381Y-56738095D02*
X229102381Y-56738095D01*
X229102381Y-56357142D01*
X229150000Y-56261904D01*
X229197619Y-56214285D01*
X229292857Y-56166666D01*
X229435714Y-56166666D01*
X229530952Y-56214285D01*
X229578571Y-56261904D01*
X229626190Y-56357142D01*
X229626190Y-56738095D01*
X229530952Y-55595238D02*
X229483333Y-55690476D01*
X229435714Y-55738095D01*
X229340476Y-55785714D01*
X229292857Y-55785714D01*
X229197619Y-55738095D01*
X229150000Y-55690476D01*
X229102381Y-55595238D01*
X229102381Y-55404761D01*
X229150000Y-55309523D01*
X229197619Y-55261904D01*
X229292857Y-55214285D01*
X229340476Y-55214285D01*
X229435714Y-55261904D01*
X229483333Y-55309523D01*
X229530952Y-55404761D01*
X229530952Y-55595238D01*
X229578571Y-55690476D01*
X229626190Y-55738095D01*
X229721429Y-55785714D01*
X229911905Y-55785714D01*
X230007143Y-55738095D01*
X230054762Y-55690476D01*
X230102381Y-55595238D01*
X230102381Y-55404761D01*
X230054762Y-55309523D01*
X230007143Y-55261904D01*
X229911905Y-55214285D01*
X229721429Y-55214285D01*
X229626190Y-55261904D01*
X229578571Y-55309523D01*
X229530952Y-55404761D01*
X233404762Y-50226191D02*
X233452381Y-50083334D01*
X233452381Y-49845238D01*
X233404762Y-49750000D01*
X233357143Y-49702381D01*
X233261905Y-49654762D01*
X233166667Y-49654762D01*
X233071429Y-49702381D01*
X233023810Y-49750000D01*
X232976190Y-49845238D01*
X232928571Y-50035715D01*
X232880952Y-50130953D01*
X232833333Y-50178572D01*
X232738095Y-50226191D01*
X232642857Y-50226191D01*
X232547619Y-50178572D01*
X232500000Y-50130953D01*
X232452381Y-50035715D01*
X232452381Y-49797619D01*
X232500000Y-49654762D01*
X233404762Y-48845238D02*
X233452381Y-48940476D01*
X233452381Y-49130953D01*
X233404762Y-49226191D01*
X233309524Y-49273810D01*
X232928571Y-49273810D01*
X232833333Y-49226191D01*
X232785714Y-49130953D01*
X232785714Y-48940476D01*
X232833333Y-48845238D01*
X232928571Y-48797619D01*
X233023810Y-48797619D01*
X233119048Y-49273810D01*
X233452381Y-48369048D02*
X232785714Y-48369048D01*
X232976190Y-48369048D02*
X232880952Y-48321429D01*
X232833333Y-48273810D01*
X232785714Y-48178572D01*
X232785714Y-48083333D01*
X233452381Y-47750000D02*
X232785714Y-47750000D01*
X232452381Y-47750000D02*
X232500000Y-47797619D01*
X232547619Y-47750000D01*
X232500000Y-47702381D01*
X232452381Y-47750000D01*
X232547619Y-47750000D01*
X233452381Y-46845238D02*
X232928571Y-46845238D01*
X232833333Y-46892857D01*
X232785714Y-46988095D01*
X232785714Y-47178572D01*
X232833333Y-47273810D01*
X233404762Y-46845238D02*
X233452381Y-46940476D01*
X233452381Y-47178572D01*
X233404762Y-47273810D01*
X233309524Y-47321429D01*
X233214286Y-47321429D01*
X233119048Y-47273810D01*
X233071429Y-47178572D01*
X233071429Y-46940476D01*
X233023810Y-46845238D01*
X233452381Y-46226191D02*
X233404762Y-46321429D01*
X233309524Y-46369048D01*
X232452381Y-46369048D01*
X220362714Y-65426381D02*
X220362714Y-64426381D01*
X220600809Y-64426381D01*
X220743667Y-64474000D01*
X220838905Y-64569238D01*
X220886524Y-64664476D01*
X220934143Y-64854952D01*
X220934143Y-64997810D01*
X220886524Y-65188286D01*
X220838905Y-65283524D01*
X220743667Y-65378762D01*
X220600809Y-65426381D01*
X220362714Y-65426381D01*
X221886524Y-65426381D02*
X221315095Y-65426381D01*
X221600809Y-65426381D02*
X221600809Y-64426381D01*
X221505571Y-64569238D01*
X221410333Y-64664476D01*
X221315095Y-64712095D01*
X222505571Y-64426381D02*
X222600810Y-64426381D01*
X222696048Y-64474000D01*
X222743667Y-64521619D01*
X222791286Y-64616857D01*
X222838905Y-64807333D01*
X222838905Y-65045429D01*
X222791286Y-65235905D01*
X222743667Y-65331143D01*
X222696048Y-65378762D01*
X222600810Y-65426381D01*
X222505571Y-65426381D01*
X222410333Y-65378762D01*
X222362714Y-65331143D01*
X222315095Y-65235905D01*
X222267476Y-65045429D01*
X222267476Y-64807333D01*
X222315095Y-64616857D01*
X222362714Y-64521619D01*
X222410333Y-64474000D01*
X222505571Y-64426381D01*
X221261905Y-60452381D02*
X221261905Y-59452381D01*
X221500000Y-59452381D01*
X221642858Y-59500000D01*
X221738096Y-59595238D01*
X221785715Y-59690476D01*
X221833334Y-59880952D01*
X221833334Y-60023810D01*
X221785715Y-60214286D01*
X221738096Y-60309524D01*
X221642858Y-60404762D01*
X221500000Y-60452381D01*
X221261905Y-60452381D01*
X222309524Y-60452381D02*
X222500000Y-60452381D01*
X222595239Y-60404762D01*
X222642858Y-60357143D01*
X222738096Y-60214286D01*
X222785715Y-60023810D01*
X222785715Y-59642857D01*
X222738096Y-59547619D01*
X222690477Y-59500000D01*
X222595239Y-59452381D01*
X222404762Y-59452381D01*
X222309524Y-59500000D01*
X222261905Y-59547619D01*
X222214286Y-59642857D01*
X222214286Y-59880952D01*
X222261905Y-59976190D01*
X222309524Y-60023810D01*
X222404762Y-60071429D01*
X222595239Y-60071429D01*
X222690477Y-60023810D01*
X222738096Y-59976190D01*
X222785715Y-59880952D01*
X230102381Y-61166666D02*
X229626190Y-61500000D01*
X230102381Y-61738095D02*
X229102381Y-61738095D01*
X229102381Y-61357142D01*
X229150000Y-61261904D01*
X229197619Y-61214285D01*
X229292857Y-61166666D01*
X229435714Y-61166666D01*
X229530952Y-61214285D01*
X229578571Y-61261904D01*
X229626190Y-61357142D01*
X229626190Y-61738095D01*
X230102381Y-60690476D02*
X230102381Y-60500000D01*
X230054762Y-60404761D01*
X230007143Y-60357142D01*
X229864286Y-60261904D01*
X229673810Y-60214285D01*
X229292857Y-60214285D01*
X229197619Y-60261904D01*
X229150000Y-60309523D01*
X229102381Y-60404761D01*
X229102381Y-60595238D01*
X229150000Y-60690476D01*
X229197619Y-60738095D01*
X229292857Y-60785714D01*
X229530952Y-60785714D01*
X229626190Y-60738095D01*
X229673810Y-60690476D01*
X229721429Y-60595238D01*
X229721429Y-60404761D01*
X229673810Y-60309523D01*
X229626190Y-60261904D01*
X229530952Y-60214285D01*
X221261905Y-35452381D02*
X221261905Y-34452381D01*
X221500000Y-34452381D01*
X221642858Y-34500000D01*
X221738096Y-34595238D01*
X221785715Y-34690476D01*
X221833334Y-34880952D01*
X221833334Y-35023810D01*
X221785715Y-35214286D01*
X221738096Y-35309524D01*
X221642858Y-35404762D01*
X221500000Y-35452381D01*
X221261905Y-35452381D01*
X222690477Y-34785714D02*
X222690477Y-35452381D01*
X222452381Y-34404762D02*
X222214286Y-35119048D01*
X222833334Y-35119048D01*
X221261905Y-30452381D02*
X221261905Y-29452381D01*
X221500000Y-29452381D01*
X221642858Y-29500000D01*
X221738096Y-29595238D01*
X221785715Y-29690476D01*
X221833334Y-29880952D01*
X221833334Y-30023810D01*
X221785715Y-30214286D01*
X221738096Y-30309524D01*
X221642858Y-30404762D01*
X221500000Y-30452381D01*
X221261905Y-30452381D01*
X222166667Y-29452381D02*
X222785715Y-29452381D01*
X222452381Y-29833333D01*
X222595239Y-29833333D01*
X222690477Y-29880952D01*
X222738096Y-29928571D01*
X222785715Y-30023810D01*
X222785715Y-30261905D01*
X222738096Y-30357143D01*
X222690477Y-30404762D01*
X222595239Y-30452381D01*
X222309524Y-30452381D01*
X222214286Y-30404762D01*
X222166667Y-30357143D01*
X228583334Y-33802381D02*
X228250000Y-33326190D01*
X228011905Y-33802381D02*
X228011905Y-32802381D01*
X228392858Y-32802381D01*
X228488096Y-32850000D01*
X228535715Y-32897619D01*
X228583334Y-32992857D01*
X228583334Y-33135714D01*
X228535715Y-33230952D01*
X228488096Y-33278571D01*
X228392858Y-33326190D01*
X228011905Y-33326190D01*
X229440477Y-33135714D02*
X229440477Y-33802381D01*
X229202381Y-32754762D02*
X228964286Y-33469048D01*
X229583334Y-33469048D01*
X228633334Y-28802381D02*
X228300000Y-28326190D01*
X228061905Y-28802381D02*
X228061905Y-27802381D01*
X228442858Y-27802381D01*
X228538096Y-27850000D01*
X228585715Y-27897619D01*
X228633334Y-27992857D01*
X228633334Y-28135714D01*
X228585715Y-28230952D01*
X228538096Y-28278571D01*
X228442858Y-28326190D01*
X228061905Y-28326190D01*
X228966667Y-27802381D02*
X229585715Y-27802381D01*
X229252381Y-28183333D01*
X229395239Y-28183333D01*
X229490477Y-28230952D01*
X229538096Y-28278571D01*
X229585715Y-28373810D01*
X229585715Y-28611905D01*
X229538096Y-28707143D01*
X229490477Y-28754762D01*
X229395239Y-28802381D01*
X229109524Y-28802381D01*
X229014286Y-28754762D01*
X228966667Y-28707143D01*
X228633334Y-43802381D02*
X228300000Y-43326190D01*
X228061905Y-43802381D02*
X228061905Y-42802381D01*
X228442858Y-42802381D01*
X228538096Y-42850000D01*
X228585715Y-42897619D01*
X228633334Y-42992857D01*
X228633334Y-43135714D01*
X228585715Y-43230952D01*
X228538096Y-43278571D01*
X228442858Y-43326190D01*
X228061905Y-43326190D01*
X229490477Y-42802381D02*
X229300000Y-42802381D01*
X229204762Y-42850000D01*
X229157143Y-42897619D01*
X229061905Y-43040476D01*
X229014286Y-43230952D01*
X229014286Y-43611905D01*
X229061905Y-43707143D01*
X229109524Y-43754762D01*
X229204762Y-43802381D01*
X229395239Y-43802381D01*
X229490477Y-43754762D01*
X229538096Y-43707143D01*
X229585715Y-43611905D01*
X229585715Y-43373810D01*
X229538096Y-43278571D01*
X229490477Y-43230952D01*
X229395239Y-43183333D01*
X229204762Y-43183333D01*
X229109524Y-43230952D01*
X229061905Y-43278571D01*
X229014286Y-43373810D01*
X221261905Y-45452381D02*
X221261905Y-44452381D01*
X221500000Y-44452381D01*
X221642858Y-44500000D01*
X221738096Y-44595238D01*
X221785715Y-44690476D01*
X221833334Y-44880952D01*
X221833334Y-45023810D01*
X221785715Y-45214286D01*
X221738096Y-45309524D01*
X221642858Y-45404762D01*
X221500000Y-45452381D01*
X221261905Y-45452381D01*
X222690477Y-44452381D02*
X222500000Y-44452381D01*
X222404762Y-44500000D01*
X222357143Y-44547619D01*
X222261905Y-44690476D01*
X222214286Y-44880952D01*
X222214286Y-45261905D01*
X222261905Y-45357143D01*
X222309524Y-45404762D01*
X222404762Y-45452381D01*
X222595239Y-45452381D01*
X222690477Y-45404762D01*
X222738096Y-45357143D01*
X222785715Y-45261905D01*
X222785715Y-45023810D01*
X222738096Y-44928571D01*
X222690477Y-44880952D01*
X222595239Y-44833333D01*
X222404762Y-44833333D01*
X222309524Y-44880952D01*
X222261905Y-44928571D01*
X222214286Y-45023810D01*
X221261905Y-40452381D02*
X221261905Y-39452381D01*
X221500000Y-39452381D01*
X221642858Y-39500000D01*
X221738096Y-39595238D01*
X221785715Y-39690476D01*
X221833334Y-39880952D01*
X221833334Y-40023810D01*
X221785715Y-40214286D01*
X221738096Y-40309524D01*
X221642858Y-40404762D01*
X221500000Y-40452381D01*
X221261905Y-40452381D01*
X222738096Y-39452381D02*
X222261905Y-39452381D01*
X222214286Y-39928571D01*
X222261905Y-39880952D01*
X222357143Y-39833333D01*
X222595239Y-39833333D01*
X222690477Y-39880952D01*
X222738096Y-39928571D01*
X222785715Y-40023810D01*
X222785715Y-40261905D01*
X222738096Y-40357143D01*
X222690477Y-40404762D01*
X222595239Y-40452381D01*
X222357143Y-40452381D01*
X222261905Y-40404762D01*
X222214286Y-40357143D01*
X228633334Y-38802381D02*
X228300000Y-38326190D01*
X228061905Y-38802381D02*
X228061905Y-37802381D01*
X228442858Y-37802381D01*
X228538096Y-37850000D01*
X228585715Y-37897619D01*
X228633334Y-37992857D01*
X228633334Y-38135714D01*
X228585715Y-38230952D01*
X228538096Y-38278571D01*
X228442858Y-38326190D01*
X228061905Y-38326190D01*
X229538096Y-37802381D02*
X229061905Y-37802381D01*
X229014286Y-38278571D01*
X229061905Y-38230952D01*
X229157143Y-38183333D01*
X229395239Y-38183333D01*
X229490477Y-38230952D01*
X229538096Y-38278571D01*
X229585715Y-38373810D01*
X229585715Y-38611905D01*
X229538096Y-38707143D01*
X229490477Y-38754762D01*
X229395239Y-38802381D01*
X229157143Y-38802381D01*
X229061905Y-38754762D01*
X229014286Y-38707143D01*
X228583334Y-18802381D02*
X228250000Y-18326190D01*
X228011905Y-18802381D02*
X228011905Y-17802381D01*
X228392858Y-17802381D01*
X228488096Y-17850000D01*
X228535715Y-17897619D01*
X228583334Y-17992857D01*
X228583334Y-18135714D01*
X228535715Y-18230952D01*
X228488096Y-18278571D01*
X228392858Y-18326190D01*
X228011905Y-18326190D01*
X229535715Y-18802381D02*
X228964286Y-18802381D01*
X229250000Y-18802381D02*
X229250000Y-17802381D01*
X229154762Y-17945238D01*
X229059524Y-18040476D01*
X228964286Y-18088095D01*
X221261905Y-25452381D02*
X221261905Y-24452381D01*
X221500000Y-24452381D01*
X221642858Y-24500000D01*
X221738096Y-24595238D01*
X221785715Y-24690476D01*
X221833334Y-24880952D01*
X221833334Y-25023810D01*
X221785715Y-25214286D01*
X221738096Y-25309524D01*
X221642858Y-25404762D01*
X221500000Y-25452381D01*
X221261905Y-25452381D01*
X222214286Y-24547619D02*
X222261905Y-24500000D01*
X222357143Y-24452381D01*
X222595239Y-24452381D01*
X222690477Y-24500000D01*
X222738096Y-24547619D01*
X222785715Y-24642857D01*
X222785715Y-24738095D01*
X222738096Y-24880952D01*
X222166667Y-25452381D01*
X222785715Y-25452381D01*
X221261905Y-20452381D02*
X221261905Y-19452381D01*
X221500000Y-19452381D01*
X221642858Y-19500000D01*
X221738096Y-19595238D01*
X221785715Y-19690476D01*
X221833334Y-19880952D01*
X221833334Y-20023810D01*
X221785715Y-20214286D01*
X221738096Y-20309524D01*
X221642858Y-20404762D01*
X221500000Y-20452381D01*
X221261905Y-20452381D01*
X222785715Y-20452381D02*
X222214286Y-20452381D01*
X222500000Y-20452381D02*
X222500000Y-19452381D01*
X222404762Y-19595238D01*
X222309524Y-19690476D01*
X222214286Y-19738095D01*
X228583334Y-23802381D02*
X228250000Y-23326190D01*
X228011905Y-23802381D02*
X228011905Y-22802381D01*
X228392858Y-22802381D01*
X228488096Y-22850000D01*
X228535715Y-22897619D01*
X228583334Y-22992857D01*
X228583334Y-23135714D01*
X228535715Y-23230952D01*
X228488096Y-23278571D01*
X228392858Y-23326190D01*
X228011905Y-23326190D01*
X228964286Y-22897619D02*
X229011905Y-22850000D01*
X229107143Y-22802381D01*
X229345239Y-22802381D01*
X229440477Y-22850000D01*
X229488096Y-22897619D01*
X229535715Y-22992857D01*
X229535715Y-23088095D01*
X229488096Y-23230952D01*
X228916667Y-23802381D01*
X229535715Y-23802381D01*
X200362714Y-70458381D02*
X200362714Y-69458381D01*
X200600809Y-69458381D01*
X200743667Y-69506000D01*
X200838905Y-69601238D01*
X200886524Y-69696476D01*
X200934143Y-69886952D01*
X200934143Y-70029810D01*
X200886524Y-70220286D01*
X200838905Y-70315524D01*
X200743667Y-70410762D01*
X200600809Y-70458381D01*
X200362714Y-70458381D01*
X201886524Y-70458381D02*
X201315095Y-70458381D01*
X201600809Y-70458381D02*
X201600809Y-69458381D01*
X201505571Y-69601238D01*
X201410333Y-69696476D01*
X201315095Y-69744095D01*
X202838905Y-70458381D02*
X202267476Y-70458381D01*
X202553190Y-70458381D02*
X202553190Y-69458381D01*
X202457952Y-69601238D01*
X202362714Y-69696476D01*
X202267476Y-69744095D01*
X210102381Y-71642857D02*
X209626190Y-71976191D01*
X210102381Y-72214286D02*
X209102381Y-72214286D01*
X209102381Y-71833333D01*
X209150000Y-71738095D01*
X209197619Y-71690476D01*
X209292857Y-71642857D01*
X209435714Y-71642857D01*
X209530952Y-71690476D01*
X209578571Y-71738095D01*
X209626190Y-71833333D01*
X209626190Y-72214286D01*
X210102381Y-70690476D02*
X210102381Y-71261905D01*
X210102381Y-70976191D02*
X209102381Y-70976191D01*
X209245238Y-71071429D01*
X209340476Y-71166667D01*
X209388095Y-71261905D01*
X210102381Y-69738095D02*
X210102381Y-70309524D01*
X210102381Y-70023810D02*
X209102381Y-70023810D01*
X209245238Y-70119048D01*
X209340476Y-70214286D01*
X209388095Y-70309524D01*
X200235714Y-75617381D02*
X200235714Y-74617381D01*
X200473809Y-74617381D01*
X200616667Y-74665000D01*
X200711905Y-74760238D01*
X200759524Y-74855476D01*
X200807143Y-75045952D01*
X200807143Y-75188810D01*
X200759524Y-75379286D01*
X200711905Y-75474524D01*
X200616667Y-75569762D01*
X200473809Y-75617381D01*
X200235714Y-75617381D01*
X201759524Y-75617381D02*
X201188095Y-75617381D01*
X201473809Y-75617381D02*
X201473809Y-74617381D01*
X201378571Y-74760238D01*
X201283333Y-74855476D01*
X201188095Y-74903095D01*
X202140476Y-74712619D02*
X202188095Y-74665000D01*
X202283333Y-74617381D01*
X202521429Y-74617381D01*
X202616667Y-74665000D01*
X202664286Y-74712619D01*
X202711905Y-74807857D01*
X202711905Y-74903095D01*
X202664286Y-75045952D01*
X202092857Y-75617381D01*
X202711905Y-75617381D01*
X211857143Y-68916666D02*
X211904762Y-68964285D01*
X211952381Y-69107142D01*
X211952381Y-69202380D01*
X211904762Y-69345238D01*
X211809524Y-69440476D01*
X211714286Y-69488095D01*
X211523810Y-69535714D01*
X211380952Y-69535714D01*
X211190476Y-69488095D01*
X211095238Y-69440476D01*
X211000000Y-69345238D01*
X210952381Y-69202380D01*
X210952381Y-69107142D01*
X211000000Y-68964285D01*
X211047619Y-68916666D01*
X211285714Y-68059523D02*
X211952381Y-68059523D01*
X210904762Y-68297619D02*
X211619048Y-68535714D01*
X211619048Y-67916666D01*
X200362714Y-65426381D02*
X200362714Y-64426381D01*
X200600809Y-64426381D01*
X200743667Y-64474000D01*
X200838905Y-64569238D01*
X200886524Y-64664476D01*
X200934143Y-64854952D01*
X200934143Y-64997810D01*
X200886524Y-65188286D01*
X200838905Y-65283524D01*
X200743667Y-65378762D01*
X200600809Y-65426381D01*
X200362714Y-65426381D01*
X201886524Y-65426381D02*
X201315095Y-65426381D01*
X201600809Y-65426381D02*
X201600809Y-64426381D01*
X201505571Y-64569238D01*
X201410333Y-64664476D01*
X201315095Y-64712095D01*
X202505571Y-64426381D02*
X202600810Y-64426381D01*
X202696048Y-64474000D01*
X202743667Y-64521619D01*
X202791286Y-64616857D01*
X202838905Y-64807333D01*
X202838905Y-65045429D01*
X202791286Y-65235905D01*
X202743667Y-65331143D01*
X202696048Y-65378762D01*
X202600810Y-65426381D01*
X202505571Y-65426381D01*
X202410333Y-65378762D01*
X202362714Y-65331143D01*
X202315095Y-65235905D01*
X202267476Y-65045429D01*
X202267476Y-64807333D01*
X202315095Y-64616857D01*
X202362714Y-64521619D01*
X202410333Y-64474000D01*
X202505571Y-64426381D01*
X210102381Y-66642857D02*
X209626190Y-66976191D01*
X210102381Y-67214286D02*
X209102381Y-67214286D01*
X209102381Y-66833333D01*
X209150000Y-66738095D01*
X209197619Y-66690476D01*
X209292857Y-66642857D01*
X209435714Y-66642857D01*
X209530952Y-66690476D01*
X209578571Y-66738095D01*
X209626190Y-66833333D01*
X209626190Y-67214286D01*
X210102381Y-65690476D02*
X210102381Y-66261905D01*
X210102381Y-65976191D02*
X209102381Y-65976191D01*
X209245238Y-66071429D01*
X209340476Y-66166667D01*
X209388095Y-66261905D01*
X209102381Y-65071429D02*
X209102381Y-64976190D01*
X209150000Y-64880952D01*
X209197619Y-64833333D01*
X209292857Y-64785714D01*
X209483333Y-64738095D01*
X209721429Y-64738095D01*
X209911905Y-64785714D01*
X210007143Y-64833333D01*
X210054762Y-64880952D01*
X210102381Y-64976190D01*
X210102381Y-65071429D01*
X210054762Y-65166667D01*
X210007143Y-65214286D01*
X209911905Y-65261905D01*
X209721429Y-65309524D01*
X209483333Y-65309524D01*
X209292857Y-65261905D01*
X209197619Y-65214286D01*
X209150000Y-65166667D01*
X209102381Y-65071429D01*
X210102381Y-76642857D02*
X209626190Y-76976191D01*
X210102381Y-77214286D02*
X209102381Y-77214286D01*
X209102381Y-76833333D01*
X209150000Y-76738095D01*
X209197619Y-76690476D01*
X209292857Y-76642857D01*
X209435714Y-76642857D01*
X209530952Y-76690476D01*
X209578571Y-76738095D01*
X209626190Y-76833333D01*
X209626190Y-77214286D01*
X210102381Y-75690476D02*
X210102381Y-76261905D01*
X210102381Y-75976191D02*
X209102381Y-75976191D01*
X209245238Y-76071429D01*
X209340476Y-76166667D01*
X209388095Y-76261905D01*
X209197619Y-75309524D02*
X209150000Y-75261905D01*
X209102381Y-75166667D01*
X209102381Y-74928571D01*
X209150000Y-74833333D01*
X209197619Y-74785714D01*
X209292857Y-74738095D01*
X209388095Y-74738095D01*
X209530952Y-74785714D01*
X210102381Y-75357143D01*
X210102381Y-74738095D01*
X208633334Y-38802381D02*
X208300000Y-38326190D01*
X208061905Y-38802381D02*
X208061905Y-37802381D01*
X208442858Y-37802381D01*
X208538096Y-37850000D01*
X208585715Y-37897619D01*
X208633334Y-37992857D01*
X208633334Y-38135714D01*
X208585715Y-38230952D01*
X208538096Y-38278571D01*
X208442858Y-38326190D01*
X208061905Y-38326190D01*
X209538096Y-37802381D02*
X209061905Y-37802381D01*
X209014286Y-38278571D01*
X209061905Y-38230952D01*
X209157143Y-38183333D01*
X209395239Y-38183333D01*
X209490477Y-38230952D01*
X209538096Y-38278571D01*
X209585715Y-38373810D01*
X209585715Y-38611905D01*
X209538096Y-38707143D01*
X209490477Y-38754762D01*
X209395239Y-38802381D01*
X209157143Y-38802381D01*
X209061905Y-38754762D01*
X209014286Y-38707143D01*
X201261905Y-50452381D02*
X201261905Y-49452381D01*
X201500000Y-49452381D01*
X201642858Y-49500000D01*
X201738096Y-49595238D01*
X201785715Y-49690476D01*
X201833334Y-49880952D01*
X201833334Y-50023810D01*
X201785715Y-50214286D01*
X201738096Y-50309524D01*
X201642858Y-50404762D01*
X201500000Y-50452381D01*
X201261905Y-50452381D01*
X202166667Y-49452381D02*
X202833334Y-49452381D01*
X202404762Y-50452381D01*
X201261905Y-40452381D02*
X201261905Y-39452381D01*
X201500000Y-39452381D01*
X201642858Y-39500000D01*
X201738096Y-39595238D01*
X201785715Y-39690476D01*
X201833334Y-39880952D01*
X201833334Y-40023810D01*
X201785715Y-40214286D01*
X201738096Y-40309524D01*
X201642858Y-40404762D01*
X201500000Y-40452381D01*
X201261905Y-40452381D01*
X202738096Y-39452381D02*
X202261905Y-39452381D01*
X202214286Y-39928571D01*
X202261905Y-39880952D01*
X202357143Y-39833333D01*
X202595239Y-39833333D01*
X202690477Y-39880952D01*
X202738096Y-39928571D01*
X202785715Y-40023810D01*
X202785715Y-40261905D01*
X202738096Y-40357143D01*
X202690477Y-40404762D01*
X202595239Y-40452381D01*
X202357143Y-40452381D01*
X202261905Y-40404762D01*
X202214286Y-40357143D01*
X201261905Y-45452381D02*
X201261905Y-44452381D01*
X201500000Y-44452381D01*
X201642858Y-44500000D01*
X201738096Y-44595238D01*
X201785715Y-44690476D01*
X201833334Y-44880952D01*
X201833334Y-45023810D01*
X201785715Y-45214286D01*
X201738096Y-45309524D01*
X201642858Y-45404762D01*
X201500000Y-45452381D01*
X201261905Y-45452381D01*
X202690477Y-44452381D02*
X202500000Y-44452381D01*
X202404762Y-44500000D01*
X202357143Y-44547619D01*
X202261905Y-44690476D01*
X202214286Y-44880952D01*
X202214286Y-45261905D01*
X202261905Y-45357143D01*
X202309524Y-45404762D01*
X202404762Y-45452381D01*
X202595239Y-45452381D01*
X202690477Y-45404762D01*
X202738096Y-45357143D01*
X202785715Y-45261905D01*
X202785715Y-45023810D01*
X202738096Y-44928571D01*
X202690477Y-44880952D01*
X202595239Y-44833333D01*
X202404762Y-44833333D01*
X202309524Y-44880952D01*
X202261905Y-44928571D01*
X202214286Y-45023810D01*
X208633334Y-43802381D02*
X208300000Y-43326190D01*
X208061905Y-43802381D02*
X208061905Y-42802381D01*
X208442858Y-42802381D01*
X208538096Y-42850000D01*
X208585715Y-42897619D01*
X208633334Y-42992857D01*
X208633334Y-43135714D01*
X208585715Y-43230952D01*
X208538096Y-43278571D01*
X208442858Y-43326190D01*
X208061905Y-43326190D01*
X209490477Y-42802381D02*
X209300000Y-42802381D01*
X209204762Y-42850000D01*
X209157143Y-42897619D01*
X209061905Y-43040476D01*
X209014286Y-43230952D01*
X209014286Y-43611905D01*
X209061905Y-43707143D01*
X209109524Y-43754762D01*
X209204762Y-43802381D01*
X209395239Y-43802381D01*
X209490477Y-43754762D01*
X209538096Y-43707143D01*
X209585715Y-43611905D01*
X209585715Y-43373810D01*
X209538096Y-43278571D01*
X209490477Y-43230952D01*
X209395239Y-43183333D01*
X209204762Y-43183333D01*
X209109524Y-43230952D01*
X209061905Y-43278571D01*
X209014286Y-43373810D01*
X210102381Y-61166666D02*
X209626190Y-61500000D01*
X210102381Y-61738095D02*
X209102381Y-61738095D01*
X209102381Y-61357142D01*
X209150000Y-61261904D01*
X209197619Y-61214285D01*
X209292857Y-61166666D01*
X209435714Y-61166666D01*
X209530952Y-61214285D01*
X209578571Y-61261904D01*
X209626190Y-61357142D01*
X209626190Y-61738095D01*
X210102381Y-60690476D02*
X210102381Y-60500000D01*
X210054762Y-60404761D01*
X210007143Y-60357142D01*
X209864286Y-60261904D01*
X209673810Y-60214285D01*
X209292857Y-60214285D01*
X209197619Y-60261904D01*
X209150000Y-60309523D01*
X209102381Y-60404761D01*
X209102381Y-60595238D01*
X209150000Y-60690476D01*
X209197619Y-60738095D01*
X209292857Y-60785714D01*
X209530952Y-60785714D01*
X209626190Y-60738095D01*
X209673810Y-60690476D01*
X209721429Y-60595238D01*
X209721429Y-60404761D01*
X209673810Y-60309523D01*
X209626190Y-60261904D01*
X209530952Y-60214285D01*
X213404762Y-50226191D02*
X213452381Y-50083334D01*
X213452381Y-49845238D01*
X213404762Y-49750000D01*
X213357143Y-49702381D01*
X213261905Y-49654762D01*
X213166667Y-49654762D01*
X213071429Y-49702381D01*
X213023810Y-49750000D01*
X212976190Y-49845238D01*
X212928571Y-50035715D01*
X212880952Y-50130953D01*
X212833333Y-50178572D01*
X212738095Y-50226191D01*
X212642857Y-50226191D01*
X212547619Y-50178572D01*
X212500000Y-50130953D01*
X212452381Y-50035715D01*
X212452381Y-49797619D01*
X212500000Y-49654762D01*
X213404762Y-48845238D02*
X213452381Y-48940476D01*
X213452381Y-49130953D01*
X213404762Y-49226191D01*
X213309524Y-49273810D01*
X212928571Y-49273810D01*
X212833333Y-49226191D01*
X212785714Y-49130953D01*
X212785714Y-48940476D01*
X212833333Y-48845238D01*
X212928571Y-48797619D01*
X213023810Y-48797619D01*
X213119048Y-49273810D01*
X213452381Y-48369048D02*
X212785714Y-48369048D01*
X212976190Y-48369048D02*
X212880952Y-48321429D01*
X212833333Y-48273810D01*
X212785714Y-48178572D01*
X212785714Y-48083333D01*
X213452381Y-47750000D02*
X212785714Y-47750000D01*
X212452381Y-47750000D02*
X212500000Y-47797619D01*
X212547619Y-47750000D01*
X212500000Y-47702381D01*
X212452381Y-47750000D01*
X212547619Y-47750000D01*
X213452381Y-46845238D02*
X212928571Y-46845238D01*
X212833333Y-46892857D01*
X212785714Y-46988095D01*
X212785714Y-47178572D01*
X212833333Y-47273810D01*
X213404762Y-46845238D02*
X213452381Y-46940476D01*
X213452381Y-47178572D01*
X213404762Y-47273810D01*
X213309524Y-47321429D01*
X213214286Y-47321429D01*
X213119048Y-47273810D01*
X213071429Y-47178572D01*
X213071429Y-46940476D01*
X213023810Y-46845238D01*
X213452381Y-46226191D02*
X213404762Y-46321429D01*
X213309524Y-46369048D01*
X212452381Y-46369048D01*
X210102381Y-56166666D02*
X209626190Y-56500000D01*
X210102381Y-56738095D02*
X209102381Y-56738095D01*
X209102381Y-56357142D01*
X209150000Y-56261904D01*
X209197619Y-56214285D01*
X209292857Y-56166666D01*
X209435714Y-56166666D01*
X209530952Y-56214285D01*
X209578571Y-56261904D01*
X209626190Y-56357142D01*
X209626190Y-56738095D01*
X209530952Y-55595238D02*
X209483333Y-55690476D01*
X209435714Y-55738095D01*
X209340476Y-55785714D01*
X209292857Y-55785714D01*
X209197619Y-55738095D01*
X209150000Y-55690476D01*
X209102381Y-55595238D01*
X209102381Y-55404761D01*
X209150000Y-55309523D01*
X209197619Y-55261904D01*
X209292857Y-55214285D01*
X209340476Y-55214285D01*
X209435714Y-55261904D01*
X209483333Y-55309523D01*
X209530952Y-55404761D01*
X209530952Y-55595238D01*
X209578571Y-55690476D01*
X209626190Y-55738095D01*
X209721429Y-55785714D01*
X209911905Y-55785714D01*
X210007143Y-55738095D01*
X210054762Y-55690476D01*
X210102381Y-55595238D01*
X210102381Y-55404761D01*
X210054762Y-55309523D01*
X210007143Y-55261904D01*
X209911905Y-55214285D01*
X209721429Y-55214285D01*
X209626190Y-55261904D01*
X209578571Y-55309523D01*
X209530952Y-55404761D01*
X201261905Y-60452381D02*
X201261905Y-59452381D01*
X201500000Y-59452381D01*
X201642858Y-59500000D01*
X201738096Y-59595238D01*
X201785715Y-59690476D01*
X201833334Y-59880952D01*
X201833334Y-60023810D01*
X201785715Y-60214286D01*
X201738096Y-60309524D01*
X201642858Y-60404762D01*
X201500000Y-60452381D01*
X201261905Y-60452381D01*
X202309524Y-60452381D02*
X202500000Y-60452381D01*
X202595239Y-60404762D01*
X202642858Y-60357143D01*
X202738096Y-60214286D01*
X202785715Y-60023810D01*
X202785715Y-59642857D01*
X202738096Y-59547619D01*
X202690477Y-59500000D01*
X202595239Y-59452381D01*
X202404762Y-59452381D01*
X202309524Y-59500000D01*
X202261905Y-59547619D01*
X202214286Y-59642857D01*
X202214286Y-59880952D01*
X202261905Y-59976190D01*
X202309524Y-60023810D01*
X202404762Y-60071429D01*
X202595239Y-60071429D01*
X202690477Y-60023810D01*
X202738096Y-59976190D01*
X202785715Y-59880952D01*
X210102381Y-51166666D02*
X209626190Y-51500000D01*
X210102381Y-51738095D02*
X209102381Y-51738095D01*
X209102381Y-51357142D01*
X209150000Y-51261904D01*
X209197619Y-51214285D01*
X209292857Y-51166666D01*
X209435714Y-51166666D01*
X209530952Y-51214285D01*
X209578571Y-51261904D01*
X209626190Y-51357142D01*
X209626190Y-51738095D01*
X209102381Y-50833333D02*
X209102381Y-50166666D01*
X210102381Y-50595238D01*
X201261905Y-55452381D02*
X201261905Y-54452381D01*
X201500000Y-54452381D01*
X201642858Y-54500000D01*
X201738096Y-54595238D01*
X201785715Y-54690476D01*
X201833334Y-54880952D01*
X201833334Y-55023810D01*
X201785715Y-55214286D01*
X201738096Y-55309524D01*
X201642858Y-55404762D01*
X201500000Y-55452381D01*
X201261905Y-55452381D01*
X202404762Y-54880952D02*
X202309524Y-54833333D01*
X202261905Y-54785714D01*
X202214286Y-54690476D01*
X202214286Y-54642857D01*
X202261905Y-54547619D01*
X202309524Y-54500000D01*
X202404762Y-54452381D01*
X202595239Y-54452381D01*
X202690477Y-54500000D01*
X202738096Y-54547619D01*
X202785715Y-54642857D01*
X202785715Y-54690476D01*
X202738096Y-54785714D01*
X202690477Y-54833333D01*
X202595239Y-54880952D01*
X202404762Y-54880952D01*
X202309524Y-54928571D01*
X202261905Y-54976190D01*
X202214286Y-55071429D01*
X202214286Y-55261905D01*
X202261905Y-55357143D01*
X202309524Y-55404762D01*
X202404762Y-55452381D01*
X202595239Y-55452381D01*
X202690477Y-55404762D01*
X202738096Y-55357143D01*
X202785715Y-55261905D01*
X202785715Y-55071429D01*
X202738096Y-54976190D01*
X202690477Y-54928571D01*
X202595239Y-54880952D01*
X208583334Y-23802381D02*
X208250000Y-23326190D01*
X208011905Y-23802381D02*
X208011905Y-22802381D01*
X208392858Y-22802381D01*
X208488096Y-22850000D01*
X208535715Y-22897619D01*
X208583334Y-22992857D01*
X208583334Y-23135714D01*
X208535715Y-23230952D01*
X208488096Y-23278571D01*
X208392858Y-23326190D01*
X208011905Y-23326190D01*
X208964286Y-22897619D02*
X209011905Y-22850000D01*
X209107143Y-22802381D01*
X209345239Y-22802381D01*
X209440477Y-22850000D01*
X209488096Y-22897619D01*
X209535715Y-22992857D01*
X209535715Y-23088095D01*
X209488096Y-23230952D01*
X208916667Y-23802381D01*
X209535715Y-23802381D01*
X208633334Y-28802381D02*
X208300000Y-28326190D01*
X208061905Y-28802381D02*
X208061905Y-27802381D01*
X208442858Y-27802381D01*
X208538096Y-27850000D01*
X208585715Y-27897619D01*
X208633334Y-27992857D01*
X208633334Y-28135714D01*
X208585715Y-28230952D01*
X208538096Y-28278571D01*
X208442858Y-28326190D01*
X208061905Y-28326190D01*
X208966667Y-27802381D02*
X209585715Y-27802381D01*
X209252381Y-28183333D01*
X209395239Y-28183333D01*
X209490477Y-28230952D01*
X209538096Y-28278571D01*
X209585715Y-28373810D01*
X209585715Y-28611905D01*
X209538096Y-28707143D01*
X209490477Y-28754762D01*
X209395239Y-28802381D01*
X209109524Y-28802381D01*
X209014286Y-28754762D01*
X208966667Y-28707143D01*
X208583334Y-33802381D02*
X208250000Y-33326190D01*
X208011905Y-33802381D02*
X208011905Y-32802381D01*
X208392858Y-32802381D01*
X208488096Y-32850000D01*
X208535715Y-32897619D01*
X208583334Y-32992857D01*
X208583334Y-33135714D01*
X208535715Y-33230952D01*
X208488096Y-33278571D01*
X208392858Y-33326190D01*
X208011905Y-33326190D01*
X209440477Y-33135714D02*
X209440477Y-33802381D01*
X209202381Y-32754762D02*
X208964286Y-33469048D01*
X209583334Y-33469048D01*
X201261905Y-30452381D02*
X201261905Y-29452381D01*
X201500000Y-29452381D01*
X201642858Y-29500000D01*
X201738096Y-29595238D01*
X201785715Y-29690476D01*
X201833334Y-29880952D01*
X201833334Y-30023810D01*
X201785715Y-30214286D01*
X201738096Y-30309524D01*
X201642858Y-30404762D01*
X201500000Y-30452381D01*
X201261905Y-30452381D01*
X202166667Y-29452381D02*
X202785715Y-29452381D01*
X202452381Y-29833333D01*
X202595239Y-29833333D01*
X202690477Y-29880952D01*
X202738096Y-29928571D01*
X202785715Y-30023810D01*
X202785715Y-30261905D01*
X202738096Y-30357143D01*
X202690477Y-30404762D01*
X202595239Y-30452381D01*
X202309524Y-30452381D01*
X202214286Y-30404762D01*
X202166667Y-30357143D01*
X201261905Y-35452381D02*
X201261905Y-34452381D01*
X201500000Y-34452381D01*
X201642858Y-34500000D01*
X201738096Y-34595238D01*
X201785715Y-34690476D01*
X201833334Y-34880952D01*
X201833334Y-35023810D01*
X201785715Y-35214286D01*
X201738096Y-35309524D01*
X201642858Y-35404762D01*
X201500000Y-35452381D01*
X201261905Y-35452381D01*
X202690477Y-34785714D02*
X202690477Y-35452381D01*
X202452381Y-34404762D02*
X202214286Y-35119048D01*
X202833334Y-35119048D01*
X201261905Y-20452381D02*
X201261905Y-19452381D01*
X201500000Y-19452381D01*
X201642858Y-19500000D01*
X201738096Y-19595238D01*
X201785715Y-19690476D01*
X201833334Y-19880952D01*
X201833334Y-20023810D01*
X201785715Y-20214286D01*
X201738096Y-20309524D01*
X201642858Y-20404762D01*
X201500000Y-20452381D01*
X201261905Y-20452381D01*
X202785715Y-20452381D02*
X202214286Y-20452381D01*
X202500000Y-20452381D02*
X202500000Y-19452381D01*
X202404762Y-19595238D01*
X202309524Y-19690476D01*
X202214286Y-19738095D01*
X208583334Y-18802381D02*
X208250000Y-18326190D01*
X208011905Y-18802381D02*
X208011905Y-17802381D01*
X208392858Y-17802381D01*
X208488096Y-17850000D01*
X208535715Y-17897619D01*
X208583334Y-17992857D01*
X208583334Y-18135714D01*
X208535715Y-18230952D01*
X208488096Y-18278571D01*
X208392858Y-18326190D01*
X208011905Y-18326190D01*
X209535715Y-18802381D02*
X208964286Y-18802381D01*
X209250000Y-18802381D02*
X209250000Y-17802381D01*
X209154762Y-17945238D01*
X209059524Y-18040476D01*
X208964286Y-18088095D01*
X201261905Y-25452381D02*
X201261905Y-24452381D01*
X201500000Y-24452381D01*
X201642858Y-24500000D01*
X201738096Y-24595238D01*
X201785715Y-24690476D01*
X201833334Y-24880952D01*
X201833334Y-25023810D01*
X201785715Y-25214286D01*
X201738096Y-25309524D01*
X201642858Y-25404762D01*
X201500000Y-25452381D01*
X201261905Y-25452381D01*
X202214286Y-24547619D02*
X202261905Y-24500000D01*
X202357143Y-24452381D01*
X202595239Y-24452381D01*
X202690477Y-24500000D01*
X202738096Y-24547619D01*
X202785715Y-24642857D01*
X202785715Y-24738095D01*
X202738096Y-24880952D01*
X202166667Y-25452381D01*
X202785715Y-25452381D01*
X214452381Y-85452381D02*
X213976190Y-85785715D01*
X214452381Y-86023810D02*
X213452381Y-86023810D01*
X213452381Y-85642857D01*
X213500000Y-85547619D01*
X213547619Y-85500000D01*
X213642857Y-85452381D01*
X213785714Y-85452381D01*
X213880952Y-85500000D01*
X213928571Y-85547619D01*
X213976190Y-85642857D01*
X213976190Y-86023810D01*
X213928571Y-85023810D02*
X213928571Y-84690476D01*
X214452381Y-84547619D02*
X214452381Y-85023810D01*
X213452381Y-85023810D01*
X213452381Y-84547619D01*
X214404762Y-84166667D02*
X214452381Y-84023810D01*
X214452381Y-83785714D01*
X214404762Y-83690476D01*
X214357143Y-83642857D01*
X214261905Y-83595238D01*
X214166667Y-83595238D01*
X214071429Y-83642857D01*
X214023810Y-83690476D01*
X213976190Y-83785714D01*
X213928571Y-83976191D01*
X213880952Y-84071429D01*
X213833333Y-84119048D01*
X213738095Y-84166667D01*
X213642857Y-84166667D01*
X213547619Y-84119048D01*
X213500000Y-84071429D01*
X213452381Y-83976191D01*
X213452381Y-83738095D01*
X213500000Y-83595238D01*
X213928571Y-83166667D02*
X213928571Y-82833333D01*
X214452381Y-82690476D02*
X214452381Y-83166667D01*
X213452381Y-83166667D01*
X213452381Y-82690476D01*
X213452381Y-82404762D02*
X213452381Y-81833333D01*
X214452381Y-82119048D02*
X213452381Y-82119048D01*
X204573809Y-86501190D02*
X204573809Y-86977381D01*
X204240476Y-85977381D02*
X204573809Y-86501190D01*
X204907143Y-85977381D01*
X205764286Y-86977381D02*
X205192857Y-86977381D01*
X205478571Y-86977381D02*
X205478571Y-85977381D01*
X205383333Y-86120238D01*
X205288095Y-86215476D01*
X205192857Y-86263095D01*
X201083334Y-90857143D02*
X201035715Y-90904762D01*
X200892858Y-90952381D01*
X200797620Y-90952381D01*
X200654762Y-90904762D01*
X200559524Y-90809524D01*
X200511905Y-90714286D01*
X200464286Y-90523810D01*
X200464286Y-90380952D01*
X200511905Y-90190476D01*
X200559524Y-90095238D01*
X200654762Y-90000000D01*
X200797620Y-89952381D01*
X200892858Y-89952381D01*
X201035715Y-90000000D01*
X201083334Y-90047619D01*
X201416667Y-89952381D02*
X202035715Y-89952381D01*
X201702381Y-90333333D01*
X201845239Y-90333333D01*
X201940477Y-90380952D01*
X201988096Y-90428571D01*
X202035715Y-90523810D01*
X202035715Y-90761905D01*
X201988096Y-90857143D01*
X201940477Y-90904762D01*
X201845239Y-90952381D01*
X201559524Y-90952381D01*
X201464286Y-90904762D01*
X201416667Y-90857143D01*
X203583334Y-90857143D02*
X203535715Y-90904762D01*
X203392858Y-90952381D01*
X203297620Y-90952381D01*
X203154762Y-90904762D01*
X203059524Y-90809524D01*
X203011905Y-90714286D01*
X202964286Y-90523810D01*
X202964286Y-90380952D01*
X203011905Y-90190476D01*
X203059524Y-90095238D01*
X203154762Y-90000000D01*
X203297620Y-89952381D01*
X203392858Y-89952381D01*
X203535715Y-90000000D01*
X203583334Y-90047619D01*
X203964286Y-90047619D02*
X204011905Y-90000000D01*
X204107143Y-89952381D01*
X204345239Y-89952381D01*
X204440477Y-90000000D01*
X204488096Y-90047619D01*
X204535715Y-90142857D01*
X204535715Y-90238095D01*
X204488096Y-90380952D01*
X203916667Y-90952381D01*
X204535715Y-90952381D01*
X206083334Y-90857143D02*
X206035715Y-90904762D01*
X205892858Y-90952381D01*
X205797620Y-90952381D01*
X205654762Y-90904762D01*
X205559524Y-90809524D01*
X205511905Y-90714286D01*
X205464286Y-90523810D01*
X205464286Y-90380952D01*
X205511905Y-90190476D01*
X205559524Y-90095238D01*
X205654762Y-90000000D01*
X205797620Y-89952381D01*
X205892858Y-89952381D01*
X206035715Y-90000000D01*
X206083334Y-90047619D01*
X207035715Y-90952381D02*
X206464286Y-90952381D01*
X206750000Y-90952381D02*
X206750000Y-89952381D01*
X206654762Y-90095238D01*
X206559524Y-90190476D01*
X206464286Y-90238095D01*
X200452381Y-132619048D02*
X200452381Y-132428571D01*
X200500000Y-132333333D01*
X200595238Y-132238095D01*
X200785714Y-132190476D01*
X201119048Y-132190476D01*
X201309524Y-132238095D01*
X201404762Y-132333333D01*
X201452381Y-132428571D01*
X201452381Y-132619048D01*
X201404762Y-132714286D01*
X201309524Y-132809524D01*
X201119048Y-132857143D01*
X200785714Y-132857143D01*
X200595238Y-132809524D01*
X200500000Y-132714286D01*
X200452381Y-132619048D01*
X201452381Y-131761905D02*
X200452381Y-131761905D01*
X201452381Y-131190476D01*
X200452381Y-131190476D01*
X201071429Y-130714286D02*
X201071429Y-129952381D01*
X200452381Y-129285715D02*
X200452381Y-129095238D01*
X200500000Y-129000000D01*
X200595238Y-128904762D01*
X200785714Y-128857143D01*
X201119048Y-128857143D01*
X201309524Y-128904762D01*
X201404762Y-129000000D01*
X201452381Y-129095238D01*
X201452381Y-129285715D01*
X201404762Y-129380953D01*
X201309524Y-129476191D01*
X201119048Y-129523810D01*
X200785714Y-129523810D01*
X200595238Y-129476191D01*
X200500000Y-129380953D01*
X200452381Y-129285715D01*
X200928571Y-128095238D02*
X200928571Y-128428572D01*
X201452381Y-128428572D02*
X200452381Y-128428572D01*
X200452381Y-127952381D01*
X200928571Y-127238095D02*
X200928571Y-127571429D01*
X201452381Y-127571429D02*
X200452381Y-127571429D01*
X200452381Y-127095238D01*
X205000000Y-108166667D02*
X205476191Y-108166667D01*
X204904762Y-108452381D02*
X205238095Y-107452381D01*
X205571429Y-108452381D01*
X205761905Y-107452381D02*
X206095238Y-108452381D01*
X206428572Y-107452381D01*
X207333334Y-108452381D02*
X207000000Y-107976190D01*
X206761905Y-108452381D02*
X206761905Y-107452381D01*
X207142858Y-107452381D01*
X207238096Y-107500000D01*
X207285715Y-107547619D01*
X207333334Y-107642857D01*
X207333334Y-107785714D01*
X207285715Y-107880952D01*
X207238096Y-107928571D01*
X207142858Y-107976190D01*
X206761905Y-107976190D01*
X207761905Y-108071429D02*
X208523810Y-108071429D01*
X209000000Y-108452381D02*
X209000000Y-107452381D01*
X209428571Y-108404762D02*
X209571428Y-108452381D01*
X209809524Y-108452381D01*
X209904762Y-108404762D01*
X209952381Y-108357143D01*
X210000000Y-108261905D01*
X210000000Y-108166667D01*
X209952381Y-108071429D01*
X209904762Y-108023810D01*
X209809524Y-107976190D01*
X209619047Y-107928571D01*
X209523809Y-107880952D01*
X209476190Y-107833333D01*
X209428571Y-107738095D01*
X209428571Y-107642857D01*
X209476190Y-107547619D01*
X209523809Y-107500000D01*
X209619047Y-107452381D01*
X209857143Y-107452381D01*
X210000000Y-107500000D01*
X210428571Y-108452381D02*
X210428571Y-107452381D01*
X210809524Y-107452381D01*
X210904762Y-107500000D01*
X210952381Y-107547619D01*
X211000000Y-107642857D01*
X211000000Y-107785714D01*
X210952381Y-107880952D01*
X210904762Y-107928571D01*
X210809524Y-107976190D01*
X210428571Y-107976190D01*
D13*
X201285714Y-125952381D02*
X201285714Y-124952381D01*
X201619048Y-125666667D01*
X201952381Y-124952381D01*
X201952381Y-125952381D01*
X202428571Y-125952381D02*
X202428571Y-125285714D01*
X202428571Y-124952381D02*
X202380952Y-125000000D01*
X202428571Y-125047619D01*
X202476190Y-125000000D01*
X202428571Y-124952381D01*
X202428571Y-125047619D01*
X203333333Y-125904762D02*
X203238095Y-125952381D01*
X203047618Y-125952381D01*
X202952380Y-125904762D01*
X202904761Y-125857143D01*
X202857142Y-125761905D01*
X202857142Y-125476190D01*
X202904761Y-125380952D01*
X202952380Y-125333333D01*
X203047618Y-125285714D01*
X203238095Y-125285714D01*
X203333333Y-125333333D01*
X203761904Y-125952381D02*
X203761904Y-125285714D01*
X203761904Y-125476190D02*
X203809523Y-125380952D01*
X203857142Y-125333333D01*
X203952380Y-125285714D01*
X204047619Y-125285714D01*
X204523809Y-125952381D02*
X204428571Y-125904762D01*
X204380952Y-125857143D01*
X204333333Y-125761905D01*
X204333333Y-125476190D01*
X204380952Y-125380952D01*
X204428571Y-125333333D01*
X204523809Y-125285714D01*
X204666667Y-125285714D01*
X204761905Y-125333333D01*
X204809524Y-125380952D01*
X204857143Y-125476190D01*
X204857143Y-125761905D01*
X204809524Y-125857143D01*
X204761905Y-125904762D01*
X204666667Y-125952381D01*
X204523809Y-125952381D01*
X205238095Y-125904762D02*
X205380952Y-125952381D01*
X205619048Y-125952381D01*
X205714286Y-125904762D01*
X205761905Y-125857143D01*
X205809524Y-125761905D01*
X205809524Y-125666667D01*
X205761905Y-125571429D01*
X205714286Y-125523810D01*
X205619048Y-125476190D01*
X205428571Y-125428571D01*
X205333333Y-125380952D01*
X205285714Y-125333333D01*
X205238095Y-125238095D01*
X205238095Y-125142857D01*
X205285714Y-125047619D01*
X205333333Y-125000000D01*
X205428571Y-124952381D01*
X205666667Y-124952381D01*
X205809524Y-125000000D01*
X206238095Y-125952381D02*
X206238095Y-124952381D01*
X206476190Y-124952381D01*
X206619048Y-125000000D01*
X206714286Y-125095238D01*
X206761905Y-125190476D01*
X206809524Y-125380952D01*
X206809524Y-125523810D01*
X206761905Y-125714286D01*
X206714286Y-125809524D01*
X206619048Y-125904762D01*
X206476190Y-125952381D01*
X206238095Y-125952381D01*
D11*
X212307143Y-96102381D02*
X211973809Y-95626190D01*
X211735714Y-96102381D02*
X211735714Y-95102381D01*
X212116667Y-95102381D01*
X212211905Y-95150000D01*
X212259524Y-95197619D01*
X212307143Y-95292857D01*
X212307143Y-95435714D01*
X212259524Y-95530952D01*
X212211905Y-95578571D01*
X212116667Y-95626190D01*
X211735714Y-95626190D01*
X213259524Y-96102381D02*
X212688095Y-96102381D01*
X212973809Y-96102381D02*
X212973809Y-95102381D01*
X212878571Y-95245238D01*
X212783333Y-95340476D01*
X212688095Y-95388095D01*
X213592857Y-95102381D02*
X214211905Y-95102381D01*
X213878571Y-95483333D01*
X214021429Y-95483333D01*
X214116667Y-95530952D01*
X214164286Y-95578571D01*
X214211905Y-95673810D01*
X214211905Y-95911905D01*
X214164286Y-96007143D01*
X214116667Y-96054762D01*
X214021429Y-96102381D01*
X213735714Y-96102381D01*
X213640476Y-96054762D01*
X213592857Y-96007143D01*
X201476190Y-105166667D02*
X201952381Y-105166667D01*
X201380952Y-105452381D02*
X201714285Y-104452381D01*
X202047619Y-105452381D01*
X202238095Y-104452381D02*
X202809524Y-104452381D01*
X202523809Y-105452381D02*
X202523809Y-104452381D01*
X203142857Y-105452381D02*
X203142857Y-104452381D01*
X203476191Y-105166667D01*
X203809524Y-104452381D01*
X203809524Y-105452381D01*
X204285714Y-104928571D02*
X204619048Y-104928571D01*
X204761905Y-105452381D02*
X204285714Y-105452381D01*
X204285714Y-104452381D01*
X204761905Y-104452381D01*
X205714286Y-104500000D02*
X205619048Y-104452381D01*
X205476191Y-104452381D01*
X205333333Y-104500000D01*
X205238095Y-104595238D01*
X205190476Y-104690476D01*
X205142857Y-104880952D01*
X205142857Y-105023810D01*
X205190476Y-105214286D01*
X205238095Y-105309524D01*
X205333333Y-105404762D01*
X205476191Y-105452381D01*
X205571429Y-105452381D01*
X205714286Y-105404762D01*
X205761905Y-105357143D01*
X205761905Y-105023810D01*
X205571429Y-105023810D01*
X206142857Y-105166667D02*
X206619048Y-105166667D01*
X206047619Y-105452381D02*
X206380952Y-104452381D01*
X206714286Y-105452381D01*
X206952381Y-104452381D02*
X207571429Y-104452381D01*
X207238095Y-104833333D01*
X207380953Y-104833333D01*
X207476191Y-104880952D01*
X207523810Y-104928571D01*
X207571429Y-105023810D01*
X207571429Y-105261905D01*
X207523810Y-105357143D01*
X207476191Y-105404762D01*
X207380953Y-105452381D01*
X207095238Y-105452381D01*
X207000000Y-105404762D01*
X206952381Y-105357143D01*
X208142857Y-104880952D02*
X208047619Y-104833333D01*
X208000000Y-104785714D01*
X207952381Y-104690476D01*
X207952381Y-104642857D01*
X208000000Y-104547619D01*
X208047619Y-104500000D01*
X208142857Y-104452381D01*
X208333334Y-104452381D01*
X208428572Y-104500000D01*
X208476191Y-104547619D01*
X208523810Y-104642857D01*
X208523810Y-104690476D01*
X208476191Y-104785714D01*
X208428572Y-104833333D01*
X208333334Y-104880952D01*
X208142857Y-104880952D01*
X208047619Y-104928571D01*
X208000000Y-104976190D01*
X207952381Y-105071429D01*
X207952381Y-105261905D01*
X208000000Y-105357143D01*
X208047619Y-105404762D01*
X208142857Y-105452381D01*
X208333334Y-105452381D01*
X208428572Y-105404762D01*
X208476191Y-105357143D01*
X208523810Y-105261905D01*
X208523810Y-105071429D01*
X208476191Y-104976190D01*
X208428572Y-104928571D01*
X208333334Y-104880952D01*
X213452381Y-132666667D02*
X212452381Y-132666667D01*
X212928571Y-132666667D02*
X212928571Y-132095238D01*
X213452381Y-132095238D02*
X212452381Y-132095238D01*
X212452381Y-131428572D02*
X212452381Y-131238095D01*
X212500000Y-131142857D01*
X212595238Y-131047619D01*
X212785714Y-131000000D01*
X213119048Y-131000000D01*
X213309524Y-131047619D01*
X213404762Y-131142857D01*
X213452381Y-131238095D01*
X213452381Y-131428572D01*
X213404762Y-131523810D01*
X213309524Y-131619048D01*
X213119048Y-131666667D01*
X212785714Y-131666667D01*
X212595238Y-131619048D01*
X212500000Y-131523810D01*
X212452381Y-131428572D01*
X213452381Y-130095238D02*
X213452381Y-130571429D01*
X212452381Y-130571429D01*
X212928571Y-129761905D02*
X212928571Y-129428571D01*
X213452381Y-129285714D02*
X213452381Y-129761905D01*
X212452381Y-129761905D01*
X212452381Y-129285714D01*
X185000000Y-108166667D02*
X185476191Y-108166667D01*
X184904762Y-108452381D02*
X185238095Y-107452381D01*
X185571429Y-108452381D01*
X185761905Y-107452381D02*
X186095238Y-108452381D01*
X186428572Y-107452381D01*
X187333334Y-108452381D02*
X187000000Y-107976190D01*
X186761905Y-108452381D02*
X186761905Y-107452381D01*
X187142858Y-107452381D01*
X187238096Y-107500000D01*
X187285715Y-107547619D01*
X187333334Y-107642857D01*
X187333334Y-107785714D01*
X187285715Y-107880952D01*
X187238096Y-107928571D01*
X187142858Y-107976190D01*
X186761905Y-107976190D01*
X187761905Y-108071429D02*
X188523810Y-108071429D01*
X189000000Y-108452381D02*
X189000000Y-107452381D01*
X189428571Y-108404762D02*
X189571428Y-108452381D01*
X189809524Y-108452381D01*
X189904762Y-108404762D01*
X189952381Y-108357143D01*
X190000000Y-108261905D01*
X190000000Y-108166667D01*
X189952381Y-108071429D01*
X189904762Y-108023810D01*
X189809524Y-107976190D01*
X189619047Y-107928571D01*
X189523809Y-107880952D01*
X189476190Y-107833333D01*
X189428571Y-107738095D01*
X189428571Y-107642857D01*
X189476190Y-107547619D01*
X189523809Y-107500000D01*
X189619047Y-107452381D01*
X189857143Y-107452381D01*
X190000000Y-107500000D01*
X190428571Y-108452381D02*
X190428571Y-107452381D01*
X190809524Y-107452381D01*
X190904762Y-107500000D01*
X190952381Y-107547619D01*
X191000000Y-107642857D01*
X191000000Y-107785714D01*
X190952381Y-107880952D01*
X190904762Y-107928571D01*
X190809524Y-107976190D01*
X190428571Y-107976190D01*
D13*
X181285714Y-125952381D02*
X181285714Y-124952381D01*
X181619048Y-125666667D01*
X181952381Y-124952381D01*
X181952381Y-125952381D01*
X182428571Y-125952381D02*
X182428571Y-125285714D01*
X182428571Y-124952381D02*
X182380952Y-125000000D01*
X182428571Y-125047619D01*
X182476190Y-125000000D01*
X182428571Y-124952381D01*
X182428571Y-125047619D01*
X183333333Y-125904762D02*
X183238095Y-125952381D01*
X183047618Y-125952381D01*
X182952380Y-125904762D01*
X182904761Y-125857143D01*
X182857142Y-125761905D01*
X182857142Y-125476190D01*
X182904761Y-125380952D01*
X182952380Y-125333333D01*
X183047618Y-125285714D01*
X183238095Y-125285714D01*
X183333333Y-125333333D01*
X183761904Y-125952381D02*
X183761904Y-125285714D01*
X183761904Y-125476190D02*
X183809523Y-125380952D01*
X183857142Y-125333333D01*
X183952380Y-125285714D01*
X184047619Y-125285714D01*
X184523809Y-125952381D02*
X184428571Y-125904762D01*
X184380952Y-125857143D01*
X184333333Y-125761905D01*
X184333333Y-125476190D01*
X184380952Y-125380952D01*
X184428571Y-125333333D01*
X184523809Y-125285714D01*
X184666667Y-125285714D01*
X184761905Y-125333333D01*
X184809524Y-125380952D01*
X184857143Y-125476190D01*
X184857143Y-125761905D01*
X184809524Y-125857143D01*
X184761905Y-125904762D01*
X184666667Y-125952381D01*
X184523809Y-125952381D01*
X185238095Y-125904762D02*
X185380952Y-125952381D01*
X185619048Y-125952381D01*
X185714286Y-125904762D01*
X185761905Y-125857143D01*
X185809524Y-125761905D01*
X185809524Y-125666667D01*
X185761905Y-125571429D01*
X185714286Y-125523810D01*
X185619048Y-125476190D01*
X185428571Y-125428571D01*
X185333333Y-125380952D01*
X185285714Y-125333333D01*
X185238095Y-125238095D01*
X185238095Y-125142857D01*
X185285714Y-125047619D01*
X185333333Y-125000000D01*
X185428571Y-124952381D01*
X185666667Y-124952381D01*
X185809524Y-125000000D01*
X186238095Y-125952381D02*
X186238095Y-124952381D01*
X186476190Y-124952381D01*
X186619048Y-125000000D01*
X186714286Y-125095238D01*
X186761905Y-125190476D01*
X186809524Y-125380952D01*
X186809524Y-125523810D01*
X186761905Y-125714286D01*
X186714286Y-125809524D01*
X186619048Y-125904762D01*
X186476190Y-125952381D01*
X186238095Y-125952381D01*
D11*
X186083334Y-90857143D02*
X186035715Y-90904762D01*
X185892858Y-90952381D01*
X185797620Y-90952381D01*
X185654762Y-90904762D01*
X185559524Y-90809524D01*
X185511905Y-90714286D01*
X185464286Y-90523810D01*
X185464286Y-90380952D01*
X185511905Y-90190476D01*
X185559524Y-90095238D01*
X185654762Y-90000000D01*
X185797620Y-89952381D01*
X185892858Y-89952381D01*
X186035715Y-90000000D01*
X186083334Y-90047619D01*
X187035715Y-90952381D02*
X186464286Y-90952381D01*
X186750000Y-90952381D02*
X186750000Y-89952381D01*
X186654762Y-90095238D01*
X186559524Y-90190476D01*
X186464286Y-90238095D01*
X183583334Y-90857143D02*
X183535715Y-90904762D01*
X183392858Y-90952381D01*
X183297620Y-90952381D01*
X183154762Y-90904762D01*
X183059524Y-90809524D01*
X183011905Y-90714286D01*
X182964286Y-90523810D01*
X182964286Y-90380952D01*
X183011905Y-90190476D01*
X183059524Y-90095238D01*
X183154762Y-90000000D01*
X183297620Y-89952381D01*
X183392858Y-89952381D01*
X183535715Y-90000000D01*
X183583334Y-90047619D01*
X183964286Y-90047619D02*
X184011905Y-90000000D01*
X184107143Y-89952381D01*
X184345239Y-89952381D01*
X184440477Y-90000000D01*
X184488096Y-90047619D01*
X184535715Y-90142857D01*
X184535715Y-90238095D01*
X184488096Y-90380952D01*
X183916667Y-90952381D01*
X184535715Y-90952381D01*
X181083334Y-90857143D02*
X181035715Y-90904762D01*
X180892858Y-90952381D01*
X180797620Y-90952381D01*
X180654762Y-90904762D01*
X180559524Y-90809524D01*
X180511905Y-90714286D01*
X180464286Y-90523810D01*
X180464286Y-90380952D01*
X180511905Y-90190476D01*
X180559524Y-90095238D01*
X180654762Y-90000000D01*
X180797620Y-89952381D01*
X180892858Y-89952381D01*
X181035715Y-90000000D01*
X181083334Y-90047619D01*
X181416667Y-89952381D02*
X182035715Y-89952381D01*
X181702381Y-90333333D01*
X181845239Y-90333333D01*
X181940477Y-90380952D01*
X181988096Y-90428571D01*
X182035715Y-90523810D01*
X182035715Y-90761905D01*
X181988096Y-90857143D01*
X181940477Y-90904762D01*
X181845239Y-90952381D01*
X181559524Y-90952381D01*
X181464286Y-90904762D01*
X181416667Y-90857143D01*
X181261905Y-20452381D02*
X181261905Y-19452381D01*
X181500000Y-19452381D01*
X181642858Y-19500000D01*
X181738096Y-19595238D01*
X181785715Y-19690476D01*
X181833334Y-19880952D01*
X181833334Y-20023810D01*
X181785715Y-20214286D01*
X181738096Y-20309524D01*
X181642858Y-20404762D01*
X181500000Y-20452381D01*
X181261905Y-20452381D01*
X182785715Y-20452381D02*
X182214286Y-20452381D01*
X182500000Y-20452381D02*
X182500000Y-19452381D01*
X182404762Y-19595238D01*
X182309524Y-19690476D01*
X182214286Y-19738095D01*
X181261905Y-25452381D02*
X181261905Y-24452381D01*
X181500000Y-24452381D01*
X181642858Y-24500000D01*
X181738096Y-24595238D01*
X181785715Y-24690476D01*
X181833334Y-24880952D01*
X181833334Y-25023810D01*
X181785715Y-25214286D01*
X181738096Y-25309524D01*
X181642858Y-25404762D01*
X181500000Y-25452381D01*
X181261905Y-25452381D01*
X182214286Y-24547619D02*
X182261905Y-24500000D01*
X182357143Y-24452381D01*
X182595239Y-24452381D01*
X182690477Y-24500000D01*
X182738096Y-24547619D01*
X182785715Y-24642857D01*
X182785715Y-24738095D01*
X182738096Y-24880952D01*
X182166667Y-25452381D01*
X182785715Y-25452381D01*
X181261905Y-30452381D02*
X181261905Y-29452381D01*
X181500000Y-29452381D01*
X181642858Y-29500000D01*
X181738096Y-29595238D01*
X181785715Y-29690476D01*
X181833334Y-29880952D01*
X181833334Y-30023810D01*
X181785715Y-30214286D01*
X181738096Y-30309524D01*
X181642858Y-30404762D01*
X181500000Y-30452381D01*
X181261905Y-30452381D01*
X182166667Y-29452381D02*
X182785715Y-29452381D01*
X182452381Y-29833333D01*
X182595239Y-29833333D01*
X182690477Y-29880952D01*
X182738096Y-29928571D01*
X182785715Y-30023810D01*
X182785715Y-30261905D01*
X182738096Y-30357143D01*
X182690477Y-30404762D01*
X182595239Y-30452381D01*
X182309524Y-30452381D01*
X182214286Y-30404762D01*
X182166667Y-30357143D01*
X181261905Y-35452381D02*
X181261905Y-34452381D01*
X181500000Y-34452381D01*
X181642858Y-34500000D01*
X181738096Y-34595238D01*
X181785715Y-34690476D01*
X181833334Y-34880952D01*
X181833334Y-35023810D01*
X181785715Y-35214286D01*
X181738096Y-35309524D01*
X181642858Y-35404762D01*
X181500000Y-35452381D01*
X181261905Y-35452381D01*
X182690477Y-34785714D02*
X182690477Y-35452381D01*
X182452381Y-34404762D02*
X182214286Y-35119048D01*
X182833334Y-35119048D01*
X181261905Y-40452381D02*
X181261905Y-39452381D01*
X181500000Y-39452381D01*
X181642858Y-39500000D01*
X181738096Y-39595238D01*
X181785715Y-39690476D01*
X181833334Y-39880952D01*
X181833334Y-40023810D01*
X181785715Y-40214286D01*
X181738096Y-40309524D01*
X181642858Y-40404762D01*
X181500000Y-40452381D01*
X181261905Y-40452381D01*
X182738096Y-39452381D02*
X182261905Y-39452381D01*
X182214286Y-39928571D01*
X182261905Y-39880952D01*
X182357143Y-39833333D01*
X182595239Y-39833333D01*
X182690477Y-39880952D01*
X182738096Y-39928571D01*
X182785715Y-40023810D01*
X182785715Y-40261905D01*
X182738096Y-40357143D01*
X182690477Y-40404762D01*
X182595239Y-40452381D01*
X182357143Y-40452381D01*
X182261905Y-40404762D01*
X182214286Y-40357143D01*
X181261905Y-45452381D02*
X181261905Y-44452381D01*
X181500000Y-44452381D01*
X181642858Y-44500000D01*
X181738096Y-44595238D01*
X181785715Y-44690476D01*
X181833334Y-44880952D01*
X181833334Y-45023810D01*
X181785715Y-45214286D01*
X181738096Y-45309524D01*
X181642858Y-45404762D01*
X181500000Y-45452381D01*
X181261905Y-45452381D01*
X182690477Y-44452381D02*
X182500000Y-44452381D01*
X182404762Y-44500000D01*
X182357143Y-44547619D01*
X182261905Y-44690476D01*
X182214286Y-44880952D01*
X182214286Y-45261905D01*
X182261905Y-45357143D01*
X182309524Y-45404762D01*
X182404762Y-45452381D01*
X182595239Y-45452381D01*
X182690477Y-45404762D01*
X182738096Y-45357143D01*
X182785715Y-45261905D01*
X182785715Y-45023810D01*
X182738096Y-44928571D01*
X182690477Y-44880952D01*
X182595239Y-44833333D01*
X182404762Y-44833333D01*
X182309524Y-44880952D01*
X182261905Y-44928571D01*
X182214286Y-45023810D01*
X181261905Y-50452381D02*
X181261905Y-49452381D01*
X181500000Y-49452381D01*
X181642858Y-49500000D01*
X181738096Y-49595238D01*
X181785715Y-49690476D01*
X181833334Y-49880952D01*
X181833334Y-50023810D01*
X181785715Y-50214286D01*
X181738096Y-50309524D01*
X181642858Y-50404762D01*
X181500000Y-50452381D01*
X181261905Y-50452381D01*
X182166667Y-49452381D02*
X182833334Y-49452381D01*
X182404762Y-50452381D01*
X181261905Y-55452381D02*
X181261905Y-54452381D01*
X181500000Y-54452381D01*
X181642858Y-54500000D01*
X181738096Y-54595238D01*
X181785715Y-54690476D01*
X181833334Y-54880952D01*
X181833334Y-55023810D01*
X181785715Y-55214286D01*
X181738096Y-55309524D01*
X181642858Y-55404762D01*
X181500000Y-55452381D01*
X181261905Y-55452381D01*
X182404762Y-54880952D02*
X182309524Y-54833333D01*
X182261905Y-54785714D01*
X182214286Y-54690476D01*
X182214286Y-54642857D01*
X182261905Y-54547619D01*
X182309524Y-54500000D01*
X182404762Y-54452381D01*
X182595239Y-54452381D01*
X182690477Y-54500000D01*
X182738096Y-54547619D01*
X182785715Y-54642857D01*
X182785715Y-54690476D01*
X182738096Y-54785714D01*
X182690477Y-54833333D01*
X182595239Y-54880952D01*
X182404762Y-54880952D01*
X182309524Y-54928571D01*
X182261905Y-54976190D01*
X182214286Y-55071429D01*
X182214286Y-55261905D01*
X182261905Y-55357143D01*
X182309524Y-55404762D01*
X182404762Y-55452381D01*
X182595239Y-55452381D01*
X182690477Y-55404762D01*
X182738096Y-55357143D01*
X182785715Y-55261905D01*
X182785715Y-55071429D01*
X182738096Y-54976190D01*
X182690477Y-54928571D01*
X182595239Y-54880952D01*
X181261905Y-60452381D02*
X181261905Y-59452381D01*
X181500000Y-59452381D01*
X181642858Y-59500000D01*
X181738096Y-59595238D01*
X181785715Y-59690476D01*
X181833334Y-59880952D01*
X181833334Y-60023810D01*
X181785715Y-60214286D01*
X181738096Y-60309524D01*
X181642858Y-60404762D01*
X181500000Y-60452381D01*
X181261905Y-60452381D01*
X182309524Y-60452381D02*
X182500000Y-60452381D01*
X182595239Y-60404762D01*
X182642858Y-60357143D01*
X182738096Y-60214286D01*
X182785715Y-60023810D01*
X182785715Y-59642857D01*
X182738096Y-59547619D01*
X182690477Y-59500000D01*
X182595239Y-59452381D01*
X182404762Y-59452381D01*
X182309524Y-59500000D01*
X182261905Y-59547619D01*
X182214286Y-59642857D01*
X182214286Y-59880952D01*
X182261905Y-59976190D01*
X182309524Y-60023810D01*
X182404762Y-60071429D01*
X182595239Y-60071429D01*
X182690477Y-60023810D01*
X182738096Y-59976190D01*
X182785715Y-59880952D01*
X180362714Y-65426381D02*
X180362714Y-64426381D01*
X180600809Y-64426381D01*
X180743667Y-64474000D01*
X180838905Y-64569238D01*
X180886524Y-64664476D01*
X180934143Y-64854952D01*
X180934143Y-64997810D01*
X180886524Y-65188286D01*
X180838905Y-65283524D01*
X180743667Y-65378762D01*
X180600809Y-65426381D01*
X180362714Y-65426381D01*
X181886524Y-65426381D02*
X181315095Y-65426381D01*
X181600809Y-65426381D02*
X181600809Y-64426381D01*
X181505571Y-64569238D01*
X181410333Y-64664476D01*
X181315095Y-64712095D01*
X182505571Y-64426381D02*
X182600810Y-64426381D01*
X182696048Y-64474000D01*
X182743667Y-64521619D01*
X182791286Y-64616857D01*
X182838905Y-64807333D01*
X182838905Y-65045429D01*
X182791286Y-65235905D01*
X182743667Y-65331143D01*
X182696048Y-65378762D01*
X182600810Y-65426381D01*
X182505571Y-65426381D01*
X182410333Y-65378762D01*
X182362714Y-65331143D01*
X182315095Y-65235905D01*
X182267476Y-65045429D01*
X182267476Y-64807333D01*
X182315095Y-64616857D01*
X182362714Y-64521619D01*
X182410333Y-64474000D01*
X182505571Y-64426381D01*
X180362714Y-70458381D02*
X180362714Y-69458381D01*
X180600809Y-69458381D01*
X180743667Y-69506000D01*
X180838905Y-69601238D01*
X180886524Y-69696476D01*
X180934143Y-69886952D01*
X180934143Y-70029810D01*
X180886524Y-70220286D01*
X180838905Y-70315524D01*
X180743667Y-70410762D01*
X180600809Y-70458381D01*
X180362714Y-70458381D01*
X181886524Y-70458381D02*
X181315095Y-70458381D01*
X181600809Y-70458381D02*
X181600809Y-69458381D01*
X181505571Y-69601238D01*
X181410333Y-69696476D01*
X181315095Y-69744095D01*
X182838905Y-70458381D02*
X182267476Y-70458381D01*
X182553190Y-70458381D02*
X182553190Y-69458381D01*
X182457952Y-69601238D01*
X182362714Y-69696476D01*
X182267476Y-69744095D01*
X180235714Y-75617381D02*
X180235714Y-74617381D01*
X180473809Y-74617381D01*
X180616667Y-74665000D01*
X180711905Y-74760238D01*
X180759524Y-74855476D01*
X180807143Y-75045952D01*
X180807143Y-75188810D01*
X180759524Y-75379286D01*
X180711905Y-75474524D01*
X180616667Y-75569762D01*
X180473809Y-75617381D01*
X180235714Y-75617381D01*
X181759524Y-75617381D02*
X181188095Y-75617381D01*
X181473809Y-75617381D02*
X181473809Y-74617381D01*
X181378571Y-74760238D01*
X181283333Y-74855476D01*
X181188095Y-74903095D01*
X182140476Y-74712619D02*
X182188095Y-74665000D01*
X182283333Y-74617381D01*
X182521429Y-74617381D01*
X182616667Y-74665000D01*
X182664286Y-74712619D01*
X182711905Y-74807857D01*
X182711905Y-74903095D01*
X182664286Y-75045952D01*
X182092857Y-75617381D01*
X182711905Y-75617381D01*
X181476190Y-105166667D02*
X181952381Y-105166667D01*
X181380952Y-105452381D02*
X181714285Y-104452381D01*
X182047619Y-105452381D01*
X182238095Y-104452381D02*
X182809524Y-104452381D01*
X182523809Y-105452381D02*
X182523809Y-104452381D01*
X183142857Y-105452381D02*
X183142857Y-104452381D01*
X183476191Y-105166667D01*
X183809524Y-104452381D01*
X183809524Y-105452381D01*
X184285714Y-104928571D02*
X184619048Y-104928571D01*
X184761905Y-105452381D02*
X184285714Y-105452381D01*
X184285714Y-104452381D01*
X184761905Y-104452381D01*
X185714286Y-104500000D02*
X185619048Y-104452381D01*
X185476191Y-104452381D01*
X185333333Y-104500000D01*
X185238095Y-104595238D01*
X185190476Y-104690476D01*
X185142857Y-104880952D01*
X185142857Y-105023810D01*
X185190476Y-105214286D01*
X185238095Y-105309524D01*
X185333333Y-105404762D01*
X185476191Y-105452381D01*
X185571429Y-105452381D01*
X185714286Y-105404762D01*
X185761905Y-105357143D01*
X185761905Y-105023810D01*
X185571429Y-105023810D01*
X186142857Y-105166667D02*
X186619048Y-105166667D01*
X186047619Y-105452381D02*
X186380952Y-104452381D01*
X186714286Y-105452381D01*
X186952381Y-104452381D02*
X187571429Y-104452381D01*
X187238095Y-104833333D01*
X187380953Y-104833333D01*
X187476191Y-104880952D01*
X187523810Y-104928571D01*
X187571429Y-105023810D01*
X187571429Y-105261905D01*
X187523810Y-105357143D01*
X187476191Y-105404762D01*
X187380953Y-105452381D01*
X187095238Y-105452381D01*
X187000000Y-105404762D01*
X186952381Y-105357143D01*
X188142857Y-104880952D02*
X188047619Y-104833333D01*
X188000000Y-104785714D01*
X187952381Y-104690476D01*
X187952381Y-104642857D01*
X188000000Y-104547619D01*
X188047619Y-104500000D01*
X188142857Y-104452381D01*
X188333334Y-104452381D01*
X188428572Y-104500000D01*
X188476191Y-104547619D01*
X188523810Y-104642857D01*
X188523810Y-104690476D01*
X188476191Y-104785714D01*
X188428572Y-104833333D01*
X188333334Y-104880952D01*
X188142857Y-104880952D01*
X188047619Y-104928571D01*
X188000000Y-104976190D01*
X187952381Y-105071429D01*
X187952381Y-105261905D01*
X188000000Y-105357143D01*
X188047619Y-105404762D01*
X188142857Y-105452381D01*
X188333334Y-105452381D01*
X188428572Y-105404762D01*
X188476191Y-105357143D01*
X188523810Y-105261905D01*
X188523810Y-105071429D01*
X188476191Y-104976190D01*
X188428572Y-104928571D01*
X188333334Y-104880952D01*
X193452381Y-132666667D02*
X192452381Y-132666667D01*
X192928571Y-132666667D02*
X192928571Y-132095238D01*
X193452381Y-132095238D02*
X192452381Y-132095238D01*
X192452381Y-131428572D02*
X192452381Y-131238095D01*
X192500000Y-131142857D01*
X192595238Y-131047619D01*
X192785714Y-131000000D01*
X193119048Y-131000000D01*
X193309524Y-131047619D01*
X193404762Y-131142857D01*
X193452381Y-131238095D01*
X193452381Y-131428572D01*
X193404762Y-131523810D01*
X193309524Y-131619048D01*
X193119048Y-131666667D01*
X192785714Y-131666667D01*
X192595238Y-131619048D01*
X192500000Y-131523810D01*
X192452381Y-131428572D01*
X193452381Y-130095238D02*
X193452381Y-130571429D01*
X192452381Y-130571429D01*
X192928571Y-129761905D02*
X192928571Y-129428571D01*
X193452381Y-129285714D02*
X193452381Y-129761905D01*
X192452381Y-129761905D01*
X192452381Y-129285714D01*
X180452381Y-132619048D02*
X180452381Y-132428571D01*
X180500000Y-132333333D01*
X180595238Y-132238095D01*
X180785714Y-132190476D01*
X181119048Y-132190476D01*
X181309524Y-132238095D01*
X181404762Y-132333333D01*
X181452381Y-132428571D01*
X181452381Y-132619048D01*
X181404762Y-132714286D01*
X181309524Y-132809524D01*
X181119048Y-132857143D01*
X180785714Y-132857143D01*
X180595238Y-132809524D01*
X180500000Y-132714286D01*
X180452381Y-132619048D01*
X181452381Y-131761905D02*
X180452381Y-131761905D01*
X181452381Y-131190476D01*
X180452381Y-131190476D01*
X181071429Y-130714286D02*
X181071429Y-129952381D01*
X180452381Y-129285715D02*
X180452381Y-129095238D01*
X180500000Y-129000000D01*
X180595238Y-128904762D01*
X180785714Y-128857143D01*
X181119048Y-128857143D01*
X181309524Y-128904762D01*
X181404762Y-129000000D01*
X181452381Y-129095238D01*
X181452381Y-129285715D01*
X181404762Y-129380953D01*
X181309524Y-129476191D01*
X181119048Y-129523810D01*
X180785714Y-129523810D01*
X180595238Y-129476191D01*
X180500000Y-129380953D01*
X180452381Y-129285715D01*
X180928571Y-128095238D02*
X180928571Y-128428572D01*
X181452381Y-128428572D02*
X180452381Y-128428572D01*
X180452381Y-127952381D01*
X180928571Y-127238095D02*
X180928571Y-127571429D01*
X181452381Y-127571429D02*
X180452381Y-127571429D01*
X180452381Y-127095238D01*
X188583334Y-18802381D02*
X188250000Y-18326190D01*
X188011905Y-18802381D02*
X188011905Y-17802381D01*
X188392858Y-17802381D01*
X188488096Y-17850000D01*
X188535715Y-17897619D01*
X188583334Y-17992857D01*
X188583334Y-18135714D01*
X188535715Y-18230952D01*
X188488096Y-18278571D01*
X188392858Y-18326190D01*
X188011905Y-18326190D01*
X189535715Y-18802381D02*
X188964286Y-18802381D01*
X189250000Y-18802381D02*
X189250000Y-17802381D01*
X189154762Y-17945238D01*
X189059524Y-18040476D01*
X188964286Y-18088095D01*
X188583334Y-23802381D02*
X188250000Y-23326190D01*
X188011905Y-23802381D02*
X188011905Y-22802381D01*
X188392858Y-22802381D01*
X188488096Y-22850000D01*
X188535715Y-22897619D01*
X188583334Y-22992857D01*
X188583334Y-23135714D01*
X188535715Y-23230952D01*
X188488096Y-23278571D01*
X188392858Y-23326190D01*
X188011905Y-23326190D01*
X188964286Y-22897619D02*
X189011905Y-22850000D01*
X189107143Y-22802381D01*
X189345239Y-22802381D01*
X189440477Y-22850000D01*
X189488096Y-22897619D01*
X189535715Y-22992857D01*
X189535715Y-23088095D01*
X189488096Y-23230952D01*
X188916667Y-23802381D01*
X189535715Y-23802381D01*
X188633334Y-28802381D02*
X188300000Y-28326190D01*
X188061905Y-28802381D02*
X188061905Y-27802381D01*
X188442858Y-27802381D01*
X188538096Y-27850000D01*
X188585715Y-27897619D01*
X188633334Y-27992857D01*
X188633334Y-28135714D01*
X188585715Y-28230952D01*
X188538096Y-28278571D01*
X188442858Y-28326190D01*
X188061905Y-28326190D01*
X188966667Y-27802381D02*
X189585715Y-27802381D01*
X189252381Y-28183333D01*
X189395239Y-28183333D01*
X189490477Y-28230952D01*
X189538096Y-28278571D01*
X189585715Y-28373810D01*
X189585715Y-28611905D01*
X189538096Y-28707143D01*
X189490477Y-28754762D01*
X189395239Y-28802381D01*
X189109524Y-28802381D01*
X189014286Y-28754762D01*
X188966667Y-28707143D01*
X188583334Y-33802381D02*
X188250000Y-33326190D01*
X188011905Y-33802381D02*
X188011905Y-32802381D01*
X188392858Y-32802381D01*
X188488096Y-32850000D01*
X188535715Y-32897619D01*
X188583334Y-32992857D01*
X188583334Y-33135714D01*
X188535715Y-33230952D01*
X188488096Y-33278571D01*
X188392858Y-33326190D01*
X188011905Y-33326190D01*
X189440477Y-33135714D02*
X189440477Y-33802381D01*
X189202381Y-32754762D02*
X188964286Y-33469048D01*
X189583334Y-33469048D01*
X188633334Y-38802381D02*
X188300000Y-38326190D01*
X188061905Y-38802381D02*
X188061905Y-37802381D01*
X188442858Y-37802381D01*
X188538096Y-37850000D01*
X188585715Y-37897619D01*
X188633334Y-37992857D01*
X188633334Y-38135714D01*
X188585715Y-38230952D01*
X188538096Y-38278571D01*
X188442858Y-38326190D01*
X188061905Y-38326190D01*
X189538096Y-37802381D02*
X189061905Y-37802381D01*
X189014286Y-38278571D01*
X189061905Y-38230952D01*
X189157143Y-38183333D01*
X189395239Y-38183333D01*
X189490477Y-38230952D01*
X189538096Y-38278571D01*
X189585715Y-38373810D01*
X189585715Y-38611905D01*
X189538096Y-38707143D01*
X189490477Y-38754762D01*
X189395239Y-38802381D01*
X189157143Y-38802381D01*
X189061905Y-38754762D01*
X189014286Y-38707143D01*
X188633334Y-43802381D02*
X188300000Y-43326190D01*
X188061905Y-43802381D02*
X188061905Y-42802381D01*
X188442858Y-42802381D01*
X188538096Y-42850000D01*
X188585715Y-42897619D01*
X188633334Y-42992857D01*
X188633334Y-43135714D01*
X188585715Y-43230952D01*
X188538096Y-43278571D01*
X188442858Y-43326190D01*
X188061905Y-43326190D01*
X189490477Y-42802381D02*
X189300000Y-42802381D01*
X189204762Y-42850000D01*
X189157143Y-42897619D01*
X189061905Y-43040476D01*
X189014286Y-43230952D01*
X189014286Y-43611905D01*
X189061905Y-43707143D01*
X189109524Y-43754762D01*
X189204762Y-43802381D01*
X189395239Y-43802381D01*
X189490477Y-43754762D01*
X189538096Y-43707143D01*
X189585715Y-43611905D01*
X189585715Y-43373810D01*
X189538096Y-43278571D01*
X189490477Y-43230952D01*
X189395239Y-43183333D01*
X189204762Y-43183333D01*
X189109524Y-43230952D01*
X189061905Y-43278571D01*
X189014286Y-43373810D01*
X190102381Y-51166666D02*
X189626190Y-51500000D01*
X190102381Y-51738095D02*
X189102381Y-51738095D01*
X189102381Y-51357142D01*
X189150000Y-51261904D01*
X189197619Y-51214285D01*
X189292857Y-51166666D01*
X189435714Y-51166666D01*
X189530952Y-51214285D01*
X189578571Y-51261904D01*
X189626190Y-51357142D01*
X189626190Y-51738095D01*
X189102381Y-50833333D02*
X189102381Y-50166666D01*
X190102381Y-50595238D01*
X190102381Y-56166666D02*
X189626190Y-56500000D01*
X190102381Y-56738095D02*
X189102381Y-56738095D01*
X189102381Y-56357142D01*
X189150000Y-56261904D01*
X189197619Y-56214285D01*
X189292857Y-56166666D01*
X189435714Y-56166666D01*
X189530952Y-56214285D01*
X189578571Y-56261904D01*
X189626190Y-56357142D01*
X189626190Y-56738095D01*
X189530952Y-55595238D02*
X189483333Y-55690476D01*
X189435714Y-55738095D01*
X189340476Y-55785714D01*
X189292857Y-55785714D01*
X189197619Y-55738095D01*
X189150000Y-55690476D01*
X189102381Y-55595238D01*
X189102381Y-55404761D01*
X189150000Y-55309523D01*
X189197619Y-55261904D01*
X189292857Y-55214285D01*
X189340476Y-55214285D01*
X189435714Y-55261904D01*
X189483333Y-55309523D01*
X189530952Y-55404761D01*
X189530952Y-55595238D01*
X189578571Y-55690476D01*
X189626190Y-55738095D01*
X189721429Y-55785714D01*
X189911905Y-55785714D01*
X190007143Y-55738095D01*
X190054762Y-55690476D01*
X190102381Y-55595238D01*
X190102381Y-55404761D01*
X190054762Y-55309523D01*
X190007143Y-55261904D01*
X189911905Y-55214285D01*
X189721429Y-55214285D01*
X189626190Y-55261904D01*
X189578571Y-55309523D01*
X189530952Y-55404761D01*
X190102381Y-61166666D02*
X189626190Y-61500000D01*
X190102381Y-61738095D02*
X189102381Y-61738095D01*
X189102381Y-61357142D01*
X189150000Y-61261904D01*
X189197619Y-61214285D01*
X189292857Y-61166666D01*
X189435714Y-61166666D01*
X189530952Y-61214285D01*
X189578571Y-61261904D01*
X189626190Y-61357142D01*
X189626190Y-61738095D01*
X190102381Y-60690476D02*
X190102381Y-60500000D01*
X190054762Y-60404761D01*
X190007143Y-60357142D01*
X189864286Y-60261904D01*
X189673810Y-60214285D01*
X189292857Y-60214285D01*
X189197619Y-60261904D01*
X189150000Y-60309523D01*
X189102381Y-60404761D01*
X189102381Y-60595238D01*
X189150000Y-60690476D01*
X189197619Y-60738095D01*
X189292857Y-60785714D01*
X189530952Y-60785714D01*
X189626190Y-60738095D01*
X189673810Y-60690476D01*
X189721429Y-60595238D01*
X189721429Y-60404761D01*
X189673810Y-60309523D01*
X189626190Y-60261904D01*
X189530952Y-60214285D01*
X190102381Y-66642857D02*
X189626190Y-66976191D01*
X190102381Y-67214286D02*
X189102381Y-67214286D01*
X189102381Y-66833333D01*
X189150000Y-66738095D01*
X189197619Y-66690476D01*
X189292857Y-66642857D01*
X189435714Y-66642857D01*
X189530952Y-66690476D01*
X189578571Y-66738095D01*
X189626190Y-66833333D01*
X189626190Y-67214286D01*
X190102381Y-65690476D02*
X190102381Y-66261905D01*
X190102381Y-65976191D02*
X189102381Y-65976191D01*
X189245238Y-66071429D01*
X189340476Y-66166667D01*
X189388095Y-66261905D01*
X189102381Y-65071429D02*
X189102381Y-64976190D01*
X189150000Y-64880952D01*
X189197619Y-64833333D01*
X189292857Y-64785714D01*
X189483333Y-64738095D01*
X189721429Y-64738095D01*
X189911905Y-64785714D01*
X190007143Y-64833333D01*
X190054762Y-64880952D01*
X190102381Y-64976190D01*
X190102381Y-65071429D01*
X190054762Y-65166667D01*
X190007143Y-65214286D01*
X189911905Y-65261905D01*
X189721429Y-65309524D01*
X189483333Y-65309524D01*
X189292857Y-65261905D01*
X189197619Y-65214286D01*
X189150000Y-65166667D01*
X189102381Y-65071429D01*
X190102381Y-71642857D02*
X189626190Y-71976191D01*
X190102381Y-72214286D02*
X189102381Y-72214286D01*
X189102381Y-71833333D01*
X189150000Y-71738095D01*
X189197619Y-71690476D01*
X189292857Y-71642857D01*
X189435714Y-71642857D01*
X189530952Y-71690476D01*
X189578571Y-71738095D01*
X189626190Y-71833333D01*
X189626190Y-72214286D01*
X190102381Y-70690476D02*
X190102381Y-71261905D01*
X190102381Y-70976191D02*
X189102381Y-70976191D01*
X189245238Y-71071429D01*
X189340476Y-71166667D01*
X189388095Y-71261905D01*
X190102381Y-69738095D02*
X190102381Y-70309524D01*
X190102381Y-70023810D02*
X189102381Y-70023810D01*
X189245238Y-70119048D01*
X189340476Y-70214286D01*
X189388095Y-70309524D01*
X190102381Y-76642857D02*
X189626190Y-76976191D01*
X190102381Y-77214286D02*
X189102381Y-77214286D01*
X189102381Y-76833333D01*
X189150000Y-76738095D01*
X189197619Y-76690476D01*
X189292857Y-76642857D01*
X189435714Y-76642857D01*
X189530952Y-76690476D01*
X189578571Y-76738095D01*
X189626190Y-76833333D01*
X189626190Y-77214286D01*
X190102381Y-75690476D02*
X190102381Y-76261905D01*
X190102381Y-75976191D02*
X189102381Y-75976191D01*
X189245238Y-76071429D01*
X189340476Y-76166667D01*
X189388095Y-76261905D01*
X189197619Y-75309524D02*
X189150000Y-75261905D01*
X189102381Y-75166667D01*
X189102381Y-74928571D01*
X189150000Y-74833333D01*
X189197619Y-74785714D01*
X189292857Y-74738095D01*
X189388095Y-74738095D01*
X189530952Y-74785714D01*
X190102381Y-75357143D01*
X190102381Y-74738095D01*
X192307143Y-96102381D02*
X191973809Y-95626190D01*
X191735714Y-96102381D02*
X191735714Y-95102381D01*
X192116667Y-95102381D01*
X192211905Y-95150000D01*
X192259524Y-95197619D01*
X192307143Y-95292857D01*
X192307143Y-95435714D01*
X192259524Y-95530952D01*
X192211905Y-95578571D01*
X192116667Y-95626190D01*
X191735714Y-95626190D01*
X193259524Y-96102381D02*
X192688095Y-96102381D01*
X192973809Y-96102381D02*
X192973809Y-95102381D01*
X192878571Y-95245238D01*
X192783333Y-95340476D01*
X192688095Y-95388095D01*
X193592857Y-95102381D02*
X194211905Y-95102381D01*
X193878571Y-95483333D01*
X194021429Y-95483333D01*
X194116667Y-95530952D01*
X194164286Y-95578571D01*
X194211905Y-95673810D01*
X194211905Y-95911905D01*
X194164286Y-96007143D01*
X194116667Y-96054762D01*
X194021429Y-96102381D01*
X193735714Y-96102381D01*
X193640476Y-96054762D01*
X193592857Y-96007143D01*
X194452381Y-85452381D02*
X193976190Y-85785715D01*
X194452381Y-86023810D02*
X193452381Y-86023810D01*
X193452381Y-85642857D01*
X193500000Y-85547619D01*
X193547619Y-85500000D01*
X193642857Y-85452381D01*
X193785714Y-85452381D01*
X193880952Y-85500000D01*
X193928571Y-85547619D01*
X193976190Y-85642857D01*
X193976190Y-86023810D01*
X193928571Y-85023810D02*
X193928571Y-84690476D01*
X194452381Y-84547619D02*
X194452381Y-85023810D01*
X193452381Y-85023810D01*
X193452381Y-84547619D01*
X194404762Y-84166667D02*
X194452381Y-84023810D01*
X194452381Y-83785714D01*
X194404762Y-83690476D01*
X194357143Y-83642857D01*
X194261905Y-83595238D01*
X194166667Y-83595238D01*
X194071429Y-83642857D01*
X194023810Y-83690476D01*
X193976190Y-83785714D01*
X193928571Y-83976191D01*
X193880952Y-84071429D01*
X193833333Y-84119048D01*
X193738095Y-84166667D01*
X193642857Y-84166667D01*
X193547619Y-84119048D01*
X193500000Y-84071429D01*
X193452381Y-83976191D01*
X193452381Y-83738095D01*
X193500000Y-83595238D01*
X193928571Y-83166667D02*
X193928571Y-82833333D01*
X194452381Y-82690476D02*
X194452381Y-83166667D01*
X193452381Y-83166667D01*
X193452381Y-82690476D01*
X193452381Y-82404762D02*
X193452381Y-81833333D01*
X194452381Y-82119048D02*
X193452381Y-82119048D01*
X184573809Y-86501190D02*
X184573809Y-86977381D01*
X184240476Y-85977381D02*
X184573809Y-86501190D01*
X184907143Y-85977381D01*
X185764286Y-86977381D02*
X185192857Y-86977381D01*
X185478571Y-86977381D02*
X185478571Y-85977381D01*
X185383333Y-86120238D01*
X185288095Y-86215476D01*
X185192857Y-86263095D01*
X191857143Y-68916666D02*
X191904762Y-68964285D01*
X191952381Y-69107142D01*
X191952381Y-69202380D01*
X191904762Y-69345238D01*
X191809524Y-69440476D01*
X191714286Y-69488095D01*
X191523810Y-69535714D01*
X191380952Y-69535714D01*
X191190476Y-69488095D01*
X191095238Y-69440476D01*
X191000000Y-69345238D01*
X190952381Y-69202380D01*
X190952381Y-69107142D01*
X191000000Y-68964285D01*
X191047619Y-68916666D01*
X191285714Y-68059523D02*
X191952381Y-68059523D01*
X190904762Y-68297619D02*
X191619048Y-68535714D01*
X191619048Y-67916666D01*
X193404762Y-50226191D02*
X193452381Y-50083334D01*
X193452381Y-49845238D01*
X193404762Y-49750000D01*
X193357143Y-49702381D01*
X193261905Y-49654762D01*
X193166667Y-49654762D01*
X193071429Y-49702381D01*
X193023810Y-49750000D01*
X192976190Y-49845238D01*
X192928571Y-50035715D01*
X192880952Y-50130953D01*
X192833333Y-50178572D01*
X192738095Y-50226191D01*
X192642857Y-50226191D01*
X192547619Y-50178572D01*
X192500000Y-50130953D01*
X192452381Y-50035715D01*
X192452381Y-49797619D01*
X192500000Y-49654762D01*
X193404762Y-48845238D02*
X193452381Y-48940476D01*
X193452381Y-49130953D01*
X193404762Y-49226191D01*
X193309524Y-49273810D01*
X192928571Y-49273810D01*
X192833333Y-49226191D01*
X192785714Y-49130953D01*
X192785714Y-48940476D01*
X192833333Y-48845238D01*
X192928571Y-48797619D01*
X193023810Y-48797619D01*
X193119048Y-49273810D01*
X193452381Y-48369048D02*
X192785714Y-48369048D01*
X192976190Y-48369048D02*
X192880952Y-48321429D01*
X192833333Y-48273810D01*
X192785714Y-48178572D01*
X192785714Y-48083333D01*
X193452381Y-47750000D02*
X192785714Y-47750000D01*
X192452381Y-47750000D02*
X192500000Y-47797619D01*
X192547619Y-47750000D01*
X192500000Y-47702381D01*
X192452381Y-47750000D01*
X192547619Y-47750000D01*
X193452381Y-46845238D02*
X192928571Y-46845238D01*
X192833333Y-46892857D01*
X192785714Y-46988095D01*
X192785714Y-47178572D01*
X192833333Y-47273810D01*
X193404762Y-46845238D02*
X193452381Y-46940476D01*
X193452381Y-47178572D01*
X193404762Y-47273810D01*
X193309524Y-47321429D01*
X193214286Y-47321429D01*
X193119048Y-47273810D01*
X193071429Y-47178572D01*
X193071429Y-46940476D01*
X193023810Y-46845238D01*
X193452381Y-46226191D02*
X193404762Y-46321429D01*
X193309524Y-46369048D01*
X192452381Y-46369048D01*
M02*
