G04 #@! TF.FileFunction,Soldermask,Bot*
%FSLAX46Y46*%
G04 Gerber Fmt 4.6, Leading zero omitted, Abs format (unit mm)*
G04 Created by KiCad (PCBNEW 4.0.0-rc2-stable) date 2017/04/01 15:23:39*
%MOMM*%
G01*
G04 APERTURE LIST*
%ADD10C,0.100000*%
%ADD11C,1.524000*%
%ADD12R,1.700000X1.700000*%
%ADD13O,1.700000X1.700000*%
%ADD14C,2.000000*%
%ADD15C,1.500000*%
G04 APERTURE END LIST*
D10*
D11*
X225000000Y-132000000D03*
X225000000Y-87200000D03*
D12*
X233000000Y-132500000D03*
D13*
X233000000Y-129960000D03*
X233000000Y-127420000D03*
D14*
X225000000Y-62400000D03*
X225000000Y-17600000D03*
D15*
X227500000Y-83000000D03*
X222600000Y-83000000D03*
D12*
X230000000Y-132500000D03*
D13*
X230000000Y-129960000D03*
X230000000Y-127420000D03*
D12*
X218000000Y-132000000D03*
D13*
X218000000Y-129460000D03*
X218000000Y-126920000D03*
D12*
X232532000Y-108204000D03*
D13*
X232532000Y-105664000D03*
X232532000Y-103124000D03*
X232532000Y-100584000D03*
X232532000Y-98044000D03*
D12*
X233000000Y-52380000D03*
D13*
X233000000Y-54920000D03*
X233000000Y-57460000D03*
X233000000Y-60000000D03*
X233000000Y-62540000D03*
X233000000Y-65080000D03*
D14*
X205000000Y-62400000D03*
X205000000Y-17600000D03*
D11*
X205000000Y-132000000D03*
X205000000Y-87200000D03*
D12*
X213000000Y-132500000D03*
D13*
X213000000Y-129960000D03*
X213000000Y-127420000D03*
D12*
X213000000Y-52380000D03*
D13*
X213000000Y-54920000D03*
X213000000Y-57460000D03*
X213000000Y-60000000D03*
X213000000Y-62540000D03*
X213000000Y-65080000D03*
D15*
X207500000Y-83000000D03*
X202600000Y-83000000D03*
D12*
X198000000Y-132000000D03*
D13*
X198000000Y-129460000D03*
X198000000Y-126920000D03*
D12*
X212532000Y-108204000D03*
D13*
X212532000Y-105664000D03*
X212532000Y-103124000D03*
X212532000Y-100584000D03*
X212532000Y-98044000D03*
D12*
X210000000Y-132500000D03*
D13*
X210000000Y-129960000D03*
X210000000Y-127420000D03*
D12*
X192532000Y-108204000D03*
D13*
X192532000Y-105664000D03*
X192532000Y-103124000D03*
X192532000Y-100584000D03*
X192532000Y-98044000D03*
D12*
X193000000Y-132500000D03*
D13*
X193000000Y-129960000D03*
X193000000Y-127420000D03*
D14*
X185000000Y-62400000D03*
X185000000Y-17600000D03*
D12*
X190000000Y-132500000D03*
D13*
X190000000Y-129960000D03*
X190000000Y-127420000D03*
D12*
X178000000Y-132000000D03*
D13*
X178000000Y-129460000D03*
X178000000Y-126920000D03*
D15*
X187500000Y-83000000D03*
X182600000Y-83000000D03*
D12*
X193000000Y-52380000D03*
D13*
X193000000Y-54920000D03*
X193000000Y-57460000D03*
X193000000Y-60000000D03*
X193000000Y-62540000D03*
X193000000Y-65080000D03*
D11*
X185000000Y-132000000D03*
X185000000Y-87200000D03*
M02*
